<?xml version="1.0" encoding="UTF-8"?>
<svg version="1.1" xmlns="http://www.w3.org/2000/svg" width="3840" height="3136">
<path d="M0 0 C11.70146676 0.55663015 23.13083537 2.22848803 34.6875 4.0625 C35.66596893 4.21650269 36.64443787 4.37050537 37.65255737 4.5291748 C59.18426609 7.92701021 80.61787578 11.76423702 102 16 C102.96667603 16.19102295 103.93335205 16.3820459 104.92932129 16.57885742 C142.94221555 24.11389791 180.49159179 33.30578474 218 43 C219.46789978 43.37865204 219.46789978 43.37865204 220.9654541 43.76495361 C232.34988375 46.70575615 243.69307522 49.77393847 255 53 C255.82377136 53.23468994 256.64754272 53.46937988 257.49627686 53.71118164 C342.67328765 78.03663581 426.43335642 107.75525764 554 164 C554.67446167 164.31112732 555.34892334 164.62225464 556.04382324 164.94281006 C585.96849215 178.74987579 615.81079077 192.97923504 644.609375 209.0234375 C648.75856734 211.33223675 652.94148691 213.57277609 657.140625 215.7890625 C671.9144771 223.58955502 686.48969849 231.61423196 700.85986328 240.14453125 C704.26070579 242.1540479 707.67367295 244.14170784 711.08984375 246.125 C726.5813153 255.12789977 741.86910757 264.39938943 757 274 C758.95041256 275.23194227 760.90093332 276.46371324 762.8515625 277.6953125 C772.59255567 283.85747585 782.26481425 290.10436577 791.82470703 296.54345703 C794.41607804 298.27859951 797.01834616 299.99681434 799.62109375 301.71484375 C811.28249267 309.42455176 822.76894815 317.30114975 834.04052734 325.56982422 C836.98659522 327.72009404 839.96262414 329.82738353 842.9375 331.9375 C857.21126031 342.10927032 871.2003876 352.62280068 884.99414062 363.43505859 C887.85430562 365.66651643 890.74001023 367.86322824 893.625 370.0625 C901.21002553 375.88534788 908.60237752 381.94202686 916 388 C917.01449219 388.82886719 918.02898438 389.65773438 919.07421875 390.51171875 C920.86448601 391.97508985 922.6535982 393.43987549 924.44140625 394.90625 C926.15338187 396.30719493 927.86957315 397.70300333 929.58984375 399.09375 C936.24015152 404.48430784 942.71929321 410.05208359 949.171875 415.67578125 C951.62743309 417.81415274 954.09444554 419.93733 956.578125 422.04296875 C963.21158477 427.66877924 969.69975893 433.40805771 976.03149414 439.37304688 C978.94767098 442.11706228 981.89949769 444.80266862 984.921875 447.4296875 C988.9906027 450.96972424 992.94592651 454.61863111 996.875 458.3125 C997.57044922 458.96476562 998.26589844 459.61703125 998.98242188 460.2890625 C1003.61797395 464.65345414 1008.15804602 469.08813694 1012.59375 473.65625 C1014.51588684 475.5284612 1016.45883938 477.26362465 1018.49609375 479.00390625 C1023.87554841 483.6737894 1028.87561328 488.72593705 1033.90014648 493.76977539 C1035.5592732 495.43426277 1037.22368051 497.09333447 1038.88867188 498.75195312 C1043.9296694 503.7901264 1048.87266734 508.86221532 1053.50366211 514.28540039 C1055.86794666 516.99454876 1058.4268746 519.49122404 1061 522 C1064.87347678 525.82618085 1068.6236456 529.68447346 1072.13232422 533.85351562 C1073.42970583 535.34457172 1074.76745381 536.80106941 1076.13476562 538.22827148 C1083.41382864 545.87588526 1089.12466087 554.18113012 1094.875 563 C1095.8501908 564.48181262 1096.82594461 565.96325486 1097.80224609 567.44433594 C1100.54948431 571.62008287 1103.27703151 575.80840234 1106 580 C1106.65419922 581.00353516 1107.30839844 582.00707031 1107.98242188 583.04101562 C1115.80960413 595.08492266 1122.99946179 607.46054901 1130 620 C1130.46841309 620.83241211 1130.93682617 621.66482422 1131.41943359 622.52246094 C1152.90970326 660.78216244 1171.22188367 700.67825961 1186 742 C1186.26298889 742.73182495 1186.52597778 743.4636499 1186.79693604 744.21765137 C1215.02601923 822.85271437 1232.23844888 905.27676607 1239.6875 999.3125 C1239.74843842 1000.13475067 1239.80937683 1000.95700134 1239.87216187 1001.8041687 C1240.29078223 1007.53371535 1240.66167333 1013.26517138 1241 1019 C1241.0494577 1019.81999481 1241.09891541 1020.63998962 1241.14987183 1021.48483276 C1242.2806869 1040.95324042 1242.20244616 1060.44374966 1242.1875 1079.9375 C1242.18708584 1080.80596809 1242.18667168 1081.67443619 1242.18624496 1082.5692215 C1242.17080404 1108.43132225 1242.05232198 1134.20578933 1240 1160 C1239.92223328 1161.00393799 1239.84446655 1162.00787598 1239.76434326 1163.04223633 C1237.19642052 1196.16082329 1233.83420036 1229.13292593 1229 1262 C1228.80500916 1263.32726105 1228.80500916 1263.32726105 1228.6060791 1264.68133545 C1222.71981151 1304.49157232 1214.72490733 1343.93706706 1205.69189453 1383.14526367 C1205.50975403 1383.93728683 1205.32761353 1384.72931 1205.13995361 1385.54533386 C1204.80120132 1387.01445688 1204.46031141 1388.4830893 1204.11688232 1389.9511261 C1202.76421366 1394.97650703 1202.76421366 1394.97650703 1204.58203125 1399.58203125 C1210.27005185 1407.82019769 1216.37969684 1415.4944785 1223 1423 C1223.44021484 1423.50337891 1223.88042969 1424.00675781 1224.33398438 1424.52539062 C1229.55825997 1430.48371989 1234.91415084 1435.9355521 1241 1441 C1242.41539062 1442.22976563 1242.41539062 1442.22976563 1243.859375 1443.484375 C1262.46413123 1459.61429294 1283.06210738 1473.21108292 1304.765625 1484.80273438 C1307.00848754 1486.00454796 1309.23885001 1487.22745697 1311.46875 1488.453125 C1360.53197407 1515.1603556 1415.75431683 1531.77829471 1470.2097168 1543.48876953 C1471.27712852 1543.72196396 1471.27712852 1543.72196396 1472.36610413 1543.95986938 C1474.28652878 1544.37845228 1476.20887839 1544.78817588 1478.13134766 1545.19726562 C1481 1546 1481 1546 1483 1548 C1482.87127876 1550.02647591 1482.87127876 1550.02647591 1482.32937622 1552.56838989 C1482.13018585 1553.53035278 1481.93099548 1554.49231567 1481.72576904 1555.48342896 C1481.49416077 1556.5422226 1481.26255249 1557.60101624 1481.02392578 1558.69189453 C1480.79013214 1559.80409363 1480.5563385 1560.91629272 1480.31546021 1562.06219482 C1479.53637292 1565.7548181 1478.74089706 1569.44371151 1477.9453125 1573.1328125 C1477.40336016 1575.68564846 1476.86242799 1578.23870118 1476.32247925 1580.79196167 C1475.04254543 1586.83586008 1473.7508097 1592.87717275 1472.4548558 1598.91765392 C1470.98027547 1605.79350774 1469.5188117 1612.6721277 1468.05846429 1619.55101609 C1465.05360177 1633.70380871 1462.03221309 1647.85304235 1459 1662 C1454.55449839 1663.36438803 1450.88438859 1662.31477384 1446.46875 1661.26171875 C1445.61813995 1661.06577621 1444.76752991 1660.86983368 1443.8911438 1660.66795349 C1441.09142987 1660.0186576 1438.29559558 1659.35429096 1435.5 1658.6875 C1434.0564212 1658.34679474 1434.0564212 1658.34679474 1432.5836792 1657.99920654 C1380.27369946 1645.63806053 1328.83791428 1629.6286203 1280 1607 C1278.9063916 1606.49500977 1277.8127832 1605.99001953 1276.68603516 1605.46972656 C1260.68721693 1598.03851901 1245.18889949 1589.96966478 1230 1581 C1229.19771973 1580.52852539 1228.39543945 1580.05705078 1227.56884766 1579.57128906 C1204.65979074 1566.04568202 1182.98541266 1550.56952121 1163 1533 C1162.08734375 1532.19949219 1161.1746875 1531.39898438 1160.234375 1530.57421875 C1146.65885973 1518.38279931 1133.00393891 1505.59829121 1122 1491 C1120.93367078 1489.62523128 1119.86582714 1488.25163651 1118.796875 1486.87890625 C1103 1466.51334901 1103 1466.51334901 1103 1463 C1101.87754883 1462.94839722 1101.87754883 1462.94839722 1100.73242188 1462.89575195 C1006.04193574 1458.3269785 910.94191829 1440.97413632 760 1395 C758.75379883 1394.57122559 757.50759766 1394.14245117 756.22363281 1393.70068359 C678.55797868 1366.86635203 602.76121448 1330.60662366 535 1284 C534.14970215 1283.41621582 533.2994043 1282.83243164 532.42333984 1282.23095703 C512.27827882 1268.36064919 492.81167813 1253.63223957 474 1238 C473.49114258 1237.57750977 472.98228516 1237.15501953 472.45800781 1236.71972656 C465.45229692 1230.88944193 458.62327106 1224.9106601 451.94921875 1218.703125 C449.7930882 1216.70409967 447.58502381 1214.77812943 445.35498047 1212.86206055 C440.84420234 1208.91968601 436.60019481 1204.74448152 432.37109375 1200.50390625 C431.57776138 1199.71153061 430.78442902 1198.91915497 429.96705627 1198.10276794 C428.30110919 1196.43749717 426.63640744 1194.77097971 424.97290039 1193.10327148 C422.44463866 1190.56965378 419.91108339 1188.04141833 417.37695312 1185.51367188 C415.7496793 1183.88573717 414.12271575 1182.25749225 412.49609375 1180.62890625 C411.74798935 1179.88282608 410.99988495 1179.13674591 410.22911072 1178.36805725 C405.6195124 1173.73812041 401.24403083 1168.9662555 397 1164 C396.00300521 1162.84730925 395.00567191 1161.69491109 394.0078125 1160.54296875 C378.40017861 1142.40595031 363.50720148 1123.76135269 350 1104 C349.39430176 1103.11602539 348.78860352 1102.23205078 348.16455078 1101.32128906 C332.70641063 1078.67629925 318.69747265 1055.29971306 306 1031 C305.24855713 1029.56503174 305.24855713 1029.56503174 304.48193359 1028.10107422 C283.88242703 988.50312843 268.90650315 947.09870665 256.9389534 904.18814468 C255.91035835 900.50859206 254.87118299 896.83205801 253.83220196 893.15542698 C250.52358856 881.44560294 247.25264853 869.72548 244 858 C243.79209335 857.25091621 243.58418671 856.50183243 243.36997986 855.73004913 C238.13152645 836.85066198 233.02070163 817.93842596 228 799 C227.66393738 797.73397949 227.32787476 796.46795898 226.98162842 795.16357422 C215.9348851 753.53942449 205.25832624 711.82548387 195 670 C194.83163635 669.31377312 194.66327271 668.62754623 194.48980713 667.9205246 C177.67553806 599.36380317 162.07836395 530.51828586 146.484375 461.67578125 C146.26758276 460.71873039 146.05079052 459.76167953 145.82742882 458.77562714 C145.61244051 457.82653725 145.3974522 456.87744736 145.1759491 455.89959717 C136.03336117 415.53901646 126.85396218 375.19420896 117 335 C116.83715767 334.33538002 116.67431534 333.67076004 116.50653839 332.98600006 C95.74797339 248.30358401 72.15803416 164.07673071 28 60 C27.53819336 58.96746094 27.07638672 57.93492187 26.60058594 56.87109375 C20.53983885 43.36403698 14.16732269 30.01191994 7.68188477 16.70483398 C4.99540933 11.18295352 2.3355168 5.68031049 0 0 Z M243 218 C243.71542969 218.71414063 244.43085937 219.42828125 245.16796875 220.1640625 C246.99009056 221.98554339 248.80363867 223.81444996 250.61328125 225.6484375 C251.50402344 226.54820312 252.39476562 227.44796875 253.3125 228.375 C254.19550781 229.26960937 255.07851562 230.16421875 255.98828125 231.0859375 C258.11708385 233.1917687 260.3260534 235.1596156 262.6015625 237.10546875 C267.79577428 241.60806161 272.62488488 246.47504084 277.47290039 251.3425293 C279.05959946 252.93458966 280.65157742 254.5212299 282.24414062 256.10742188 C287.13745588 260.9975392 291.93456644 265.92565795 296.43237305 271.18725586 C299.14462949 274.32360597 302.02311188 277.30366394 304.875 280.3125 C309.79040063 285.53466634 314.44520096 290.84899232 318.921875 296.453125 C321.05718453 299.0700833 323.28530363 301.56842779 325.5625 304.0625 C329.11321008 307.96766996 332.45393696 311.97920566 335.71875 316.125 C337.45115832 318.30830911 339.19966932 320.47172503 340.96875 322.625 C348.05459114 331.25487518 354.87663809 340.03496635 361.52050781 349.00878906 C362.9919306 350.9891396 364.4742238 352.96079638 365.9609375 354.9296875 C421.61430499 428.63378537 468.11281079 508.82594488 510 591 C510.84739746 592.65974854 510.84739746 592.65974854 511.71191406 594.35302734 C519.87799911 610.38434168 527.53066836 626.63360626 535 643 C535.52706543 644.15064941 536.05413086 645.30129883 536.59716797 646.48681641 C559.63815215 696.8876396 579.47628762 748.50560272 596.3046875 801.3046875 C607.7346818 837.15333557 621.20234236 871.84573424 637 906 C637.53189941 907.15097168 638.06379883 908.30194336 638.61181641 909.48779297 C650.35898346 934.73560664 663.09273659 959.55827506 677.45068359 983.42333984 C678.85010562 985.75071142 680.23383757 988.0865391 681.61328125 990.42578125 C694.22665531 1011.6281338 708.21033539 1032.26112118 723 1052 C723.42893555 1052.57379395 723.85787109 1053.14758789 724.29980469 1053.73876953 C737.65216905 1071.52287195 752.00942853 1088.57932291 767 1105 C767.80824219 1105.90105469 768.61648438 1106.80210937 769.44921875 1107.73046875 C776.16197869 1115.16245297 783.1789415 1122.28615914 790.25 1129.375 C790.72158539 1129.84917358 791.19317078 1130.32334717 791.67904663 1130.81188965 C796.73277374 1135.88748104 801.82804843 1140.84786586 807.26611328 1145.51123047 C809.66890159 1147.57433989 811.98640516 1149.72616588 814.3125 1151.875 C819.71656638 1156.79181449 825.27518587 1161.46285127 831 1166 C831.64324219 1166.51046875 832.28648437 1167.0209375 832.94921875 1167.546875 C875.62543331 1201.30920371 953.13435084 1262 1011 1262 C1009.66009508 1255.58047963 1007.977676 1249.39333598 1005.97265625 1243.15234375 C1005.67229965 1242.20812057 1005.37194305 1241.2638974 1005.06248474 1240.2910614 C1004.06766137 1237.17152595 1003.06580148 1234.05431845 1002.0625 1230.9375 C1001.71396973 1229.85176697 1001.36543945 1228.76603394 1001.00634766 1227.6473999 C970.5975973 1133.01510771 935.93871131 1039.614107 895 949 C894.43966865 947.75402887 893.87961868 946.50793118 893.31982422 945.26171875 C878.90666391 913.18658066 863.82145815 881.4671906 848.125 850 C847.56099487 848.86672272 846.99698975 847.73344543 846.41589355 846.56582642 C839.31408329 832.3108279 831.9610491 818.2328125 824.26055908 804.2923584 C822.56628612 801.2112804 820.90871424 798.11235317 819.2578125 795.0078125 C813.05440797 783.35293126 806.66815301 771.84225162 799.96264648 760.46826172 C796.60861205 754.77670954 793.34770598 749.05099978 790.1875 743.25 C778.72014557 722.33227163 765.73345296 702.15937271 753 682 C752.36239746 680.98873047 751.72479492 679.97746094 751.06787109 678.93554688 C741.0420272 663.05983886 730.66061915 647.45592541 720 632 C719.30841797 630.99630371 718.61683594 629.99260742 717.90429688 628.95849609 C709.09459226 616.18939696 700.15177544 603.52609602 691 591 C690.44103027 590.23236328 689.88206055 589.46472656 689.30615234 588.67382812 C681.26972661 577.64441722 673.04377581 566.78352246 664.61230469 556.05322266 C663.11514468 554.14663337 661.62301616 552.23624703 660.1328125 550.32421875 C653.68514803 542.06426904 647.10143565 533.91887991 640.47216797 525.80419922 C639.17728489 524.21726954 637.88709522 522.62651263 636.59765625 521.03515625 C631.03658284 514.18689044 625.31143192 507.48887992 619.55273438 500.80712891 C618.01354018 499.01575856 616.48212881 497.21804113 614.953125 495.41796875 C609.24313764 488.70375397 603.42290353 482.12208388 597.4375 475.65234375 C595.48256122 473.52509466 593.57117955 471.37727748 591.6875 469.1875 C588.21588787 465.18631991 584.61073299 461.31272095 581 457.4375 C580.41822998 456.81190186 579.83645996 456.18630371 579.23706055 455.54174805 C576.3769666 452.48227158 573.48438135 449.47373934 570.5 446.53515625 C568.16561941 444.22104664 565.97297054 441.84795794 563.83984375 439.34765625 C559.23201548 434.0123438 554.22153092 429.07205575 549.23022461 424.09985352 C547.56573723 422.4407268 545.90666553 420.77631949 544.24804688 419.11132812 C539.18945084 414.04989682 534.09735016 409.08367494 528.65209961 404.43383789 C526.31402566 402.40465091 524.1588342 400.21718107 522 398 C518.5095856 394.47245353 514.95355686 391.12615526 511.18359375 387.90234375 C508.99188332 385.99292876 506.8563234 384.02949402 504.72583008 382.05224609 C499.5416966 377.24246283 494.23117805 372.68528694 488.71875 368.25 C485.87342622 365.89524929 483.1535371 363.4399162 480.4375 360.9375 C476.36038747 357.19344737 472.19249531 353.66357847 467.83984375 350.24609375 C465.66791008 348.52826451 463.51821453 346.79286119 461.37890625 345.03515625 C452.78653939 337.97828309 444.05682392 331.16416771 435.11132812 324.56103516 C432.92851891 322.94714962 430.75301848 321.3237523 428.578125 319.69921875 C402.98952383 300.64115526 376.50524618 283.16136654 349 267 C348.19336914 266.52385254 347.38673828 266.04770508 346.55566406 265.55712891 C297.35298624 234.1153165 297.35298624 234.1153165 243 218 Z " fill="#2DB99B" transform="translate(848,390)"/>
<path d="M0 0 C-1.65748038 4.34956634 -4.91184104 7.09070711 -8.1875 10.25 C-13.0209621 15.00051246 -17.63948699 19.80754701 -22 25 C-22.7940625 25.91652344 -23.588125 26.83304687 -24.40625 27.77734375 C-31.39902558 35.87829212 -37.90906507 44.30281718 -44.35595703 52.84130859 C-45.93610081 54.91609792 -47.53885127 56.97061201 -49.15234375 59.01953125 C-57.80168371 70.05069007 -65.55161045 81.60376753 -73.23583984 93.32226562 C-74.69974841 95.54426247 -76.17819545 97.75378323 -77.67578125 99.953125 C-97.45924976 129.01813 -114.60524394 159.93287633 -131 191 C-131.87857666 192.66240723 -131.87857666 192.66240723 -132.77490234 194.35839844 C-148.74162063 224.66266647 -163.57711185 255.4648472 -177.29881287 286.84843445 C-179.18081255 291.149351 -181.09097809 295.43587172 -183.03125 299.7109375 C-220.71029517 382.85427331 -250.86518731 469.93208867 -278 557 C-278.33169189 558.06130127 -278.66338379 559.12260254 -279.00512695 560.21606445 C-287.73323377 588.19421824 -294.63145525 616.16209451 -300.35127258 644.89910889 C-318.39193712 734.92472239 -356.22876739 822.40331169 -408 898 C-408.47228027 898.68980957 -408.94456055 899.37961914 -409.43115234 900.09033203 C-420.54845879 916.24606121 -432.3593828 932.00226588 -445 947 C-445.88941214 948.06372749 -446.77872941 949.1275343 -447.66796875 950.19140625 C-452.58507015 956.05492391 -457.57694625 961.83338398 -462.734375 967.48828125 C-464.61229448 969.57018163 -466.45817519 971.67275 -468.296875 973.7890625 C-471.94396174 977.9643245 -475.69714492 982.0290826 -479.5 986.0625 C-480.18707031 986.79130371 -480.87414063 987.52010742 -481.58203125 988.27099609 C-499.72000847 1007.42446793 -499.72000847 1007.42446793 -508.79296875 1015.07421875 C-511.3700135 1017.32286133 -513.84907493 1019.66275315 -516.33618164 1022.01000977 C-522.13357782 1027.48083242 -527.98091739 1032.76606366 -534.21484375 1037.7421875 C-536.82119431 1039.85504953 -539.35504315 1042.02839379 -541.88305664 1044.2331543 C-549.57228044 1050.92876011 -557.55943316 1057.15661488 -565.7109375 1063.27734375 C-568.05381778 1065.04050109 -570.38682506 1066.81613509 -572.71875 1068.59375 C-592.17035919 1083.37197137 -612.2363042 1097.13383936 -633 1110 C-634.0631543 1110.66112793 -635.12630859 1111.32225586 -636.22167969 1112.00341797 C-680.50049254 1139.46399377 -726.97778437 1163.39514679 -774.9375 1183.75 C-775.62255615 1184.04095551 -776.3076123 1184.33191101 -777.01342773 1184.63168335 C-784.92918348 1187.9828416 -792.8826472 1191.16573762 -801 1194 C-800.36359136 1184.01522431 -798.71986906 1174.17002252 -797.21838379 1164.28890991 C-792.29471335 1131.68675617 -788.54537851 1099.01892253 -786.25 1066.125 C-786.19074341 1065.27618256 -786.13148682 1064.42736511 -786.07043457 1063.55282593 C-785.66960947 1057.70416971 -785.31905829 1051.8536597 -785 1046 C-784.9516098 1045.13008423 -784.9032196 1044.26016846 -784.85336304 1043.3638916 C-783.83412294 1024.41640842 -783.79840636 1005.46861859 -783.8125 986.5 C-783.81276688 985.69378078 -783.81303375 984.88756157 -783.81330872 984.05691147 C-783.82337215 959.80436722 -783.97475558 935.61201209 -785.81640625 911.41668701 C-786.01298329 908.82909796 -786.20184351 906.24100087 -786.390625 903.65283203 C-793.29711919 810.3125837 -811.83118685 718.76472459 -890 510 C-890.83966309 508.21795166 -890.83966309 508.21795166 -891.69628906 506.39990234 C-898.86469208 491.21482858 -906.35802903 476.27321165 -914.55419922 461.61083984 C-916.00027218 458.9995085 -917.4131076 456.37281727 -918.81640625 453.73828125 C-926.65487609 439.0594535 -935.2038653 424.85841742 -943.94610596 410.7074585 C-944.9712028 409.04665556 -945.99321499 407.38394993 -947.01513672 405.72119141 C-955.3179317 392.22005246 -963.90600531 378.98112993 -973 366 C-973.49564453 365.28827637 -973.99128906 364.57655273 -974.50195312 363.84326172 C-985.97569211 347.36960289 -997.76836523 331.18950916 -1010.57617188 315.72363281 C-1012.58840473 313.28769935 -1014.5730775 310.82957525 -1016.5625 308.375 C-1020.06081777 304.10860139 -1023.60995324 299.88749248 -1027.1875 295.6875 C-1027.91851929 294.82487549 -1027.91851929 294.82487549 -1028.66430664 293.94482422 C-1031.12628815 291.06952344 -1033.64224219 288.34032058 -1036.36328125 285.70703125 C-1039 283 -1039 283 -1039 281 C-1037.89527344 280.42894531 -1036.79054688 279.85789062 -1035.65234375 279.26953125 C-1026.65275645 274.58947079 -1017.74997871 269.77404339 -1008.9375 264.75 C-997.45873594 258.21103464 -985.84108552 251.94876592 -974.19482422 245.71435547 C-969.16239173 243.01393204 -964.14424031 240.28733771 -959.125 237.5625 C-955.08423293 235.37333586 -951.04221422 233.18649062 -947 231 C-945.94184082 230.42701172 -944.88368164 229.85402344 -943.79345703 229.26367188 C-927.42366307 220.40935553 -910.93927541 211.80514868 -894.37411499 203.32310486 C-893.64479767 202.94964432 -892.91548035 202.57618378 -892.1640625 202.19140625 C-891.44529938 201.82338394 -890.72653625 201.45536163 -889.98599243 201.07618713 C-885.17759617 198.61137282 -880.38795428 196.11309296 -875.60864258 193.59228516 C-849.69536075 179.9312224 -823.42793293 166.80375679 -796.90576172 154.36523438 C-794.16524159 153.07763661 -791.42885512 151.78153933 -788.69337463 150.48327637 C-768.70233606 141.00065318 -748.55595912 131.89566658 -728.29425049 123.00714111 C-726.01161319 122.00509801 -723.73007128 121.00059629 -721.44873047 119.99560547 C-639.52465023 83.93844783 -555.09355556 53.1390888 -337 18 C-335.88484984 17.94157299 -335.88484984 17.94157299 -334.7471714 17.88196564 C-318.73826874 17.06171631 -302.73358832 16.76537217 -286.70695496 16.58500862 C-282.21428391 16.53438405 -277.72170719 16.47728534 -273.22912598 16.41929626 C-261.26252216 16.26569334 -249.29584518 16.1182998 -237.32907456 15.97827739 C-168.25677375 15.22642249 -168.25677375 15.22642249 -99.3125 11.1875 C-98.28431152 11.1045166 -97.25612305 11.0215332 -96.19677734 10.93603516 C-65.72568284 8.47040689 -35.30236103 5.19244656 -5.12084961 0.2878418 C-3 0 -3 0 0 0 Z " fill="#2DB99B" transform="translate(3020,465)"/>
<path d="M0 0 C30.72026406 9.56982771 60.68443119 21.78231467 90 35 C91.12776855 35.5067627 92.25553711 36.01352539 93.41748047 36.53564453 C121.89784998 49.39179405 150.0469102 63.17239895 177 79 C178.83698788 80.06553822 180.67423113 81.1306363 182.51171875 82.1953125 C220.07547523 104.06817202 255.65212407 128.96212728 289.23095703 156.55126953 C290.83366232 157.86378032 292.44561218 159.16498249 294.05859375 160.46484375 C299.70536396 165.02230794 305.12418587 169.76718362 310.46484375 174.6796875 C312.53325758 176.57281203 314.62405876 178.42251704 316.75 180.25 C327.92383359 190.01874074 338.49805252 200.39619762 349 210.875 C349.54220184 211.41461365 350.08440369 211.95422729 350.64303589 212.51019287 C356.09889583 217.94550596 361.4898929 223.39358584 366.49707031 229.25195312 C368.87357198 232.01604539 371.38164079 234.65425939 373.875 237.3125 C378.35867269 242.13236077 382.6162423 247.07503978 386.73828125 252.2109375 C388.74604509 254.6868328 390.80051667 257.11398396 392.87988281 259.52978516 C399.94249126 267.75271523 406.49469672 276.3331482 413 285 C413.55558594 285.73460449 414.11117187 286.46920898 414.68359375 287.22607422 C424.67759451 300.45427672 433.94803506 314.11320481 443 328 C443.60875977 328.93247559 444.21751953 329.86495117 444.84472656 330.82568359 C493.47211705 405.57270191 529.03269755 488.19586877 557 584 C557.22453857 584.77676086 557.44907715 585.55352173 557.68041992 586.3538208 C586.49270894 686.07611671 600.67274336 789.89444999 518 1624 C517.24299805 1625.81709473 517.24299805 1625.81709473 516.47070312 1627.67089844 C508.05154308 1647.80529388 498.74571763 1667.47680998 489 1687 C488.52210022 1687.95933441 488.52210022 1687.95933441 488.0345459 1688.93804932 C478.80357636 1707.44923447 468.76397777 1725.34021719 458 1743 C456.89950589 1744.82537996 455.79923292 1746.65089328 454.69921875 1748.4765625 C428.64951446 1791.41302187 397.84453705 1831.66627277 363.54785156 1868.33886719 C361.95880072 1870.0442145 360.38092403 1871.75936947 358.8046875 1873.4765625 C352.05975022 1880.80048559 345.15422329 1887.94823182 338.125 1895 C337.3405249 1895.78906738 336.5560498 1896.57813477 335.74780273 1897.39111328 C331.57528395 1901.55257142 327.31969091 1905.5473268 322.85351562 1909.39160156 C320.06284949 1911.81321754 317.3819864 1914.34761683 314.6875 1916.875 C309.89004372 1921.33826707 304.96837627 1925.56974429 299.85546875 1929.671875 C297.22788515 1931.81420035 294.66584482 1934.01153751 292.11083984 1936.23876953 C284.32435181 1943.01772325 276.21484919 1949.29551965 267.97070312 1955.50537109 C266.21265207 1956.83871953 264.46951855 1958.18784004 262.734375 1959.55078125 C226.41933914 1987.99755934 186.30658914 2011.89814321 145.67285156 2033.57177734 C143.28488013 2034.84777596 140.90303654 2036.13426172 138.5234375 2037.42578125 C97.51006959 2059.58142633 53.99290197 2076.8241852 10.27270508 2092.78588867 C8.2490127 2093.53664005 6.23732616 2094.32194866 4.2487793 2095.16137695 C2 2096 2 2096 -1 2096 C-14.14257812 2048.35815431 -14.14257812 2048.35815431 -14.95610046 2045.40907478 C-15.49496864 2043.45571829 -16.03387842 2041.50237327 -16.5728302 2039.54903984 C-17.89873492 2034.74334037 -19.22393811 2029.93744974 -20.54760742 2025.13113403 C-22.87152486 2016.69542809 -25.20224944 2008.26192767 -27.56640625 1999.83740234 C-27.94939971 1998.46782792 -28.3322582 1997.09821573 -28.71496582 1995.7285614 C-29.40296663 1993.26984458 -30.09497487 1990.81224393 -30.79187012 1988.35603333 C-31.08807251 1987.29519028 -31.3842749 1986.23434723 -31.68945312 1985.14135742 C-31.94505005 1984.23576584 -32.20064697 1983.33017426 -32.46398926 1982.3971405 C-33 1980 -33 1980 -33 1976 C-32.27224365 1975.6189209 -31.5444873 1975.2378418 -30.79467773 1974.84521484 C-9.93301339 1963.88641542 10.62944402 1952.47404495 30 1939 C30.61439941 1938.5757373 31.22879883 1938.15147461 31.86181641 1937.71435547 C46.72198617 1927.43752896 61.14434396 1916.6005566 75 1905 C75.49918945 1904.58572754 75.99837891 1904.17145508 76.51269531 1903.74462891 C84.27995154 1897.29737658 91.79783092 1890.6294358 99.15917969 1883.72314453 C101.21700843 1881.79686399 103.28428474 1879.88097833 105.3515625 1877.96484375 C106.85969806 1876.56024263 108.36751359 1875.1552978 109.875 1873.75 C110.57657227 1873.10071533 111.27814453 1872.45143066 112.00097656 1871.7824707 C116.07956579 1867.9632782 119.84203644 1864.00187595 123.47705078 1859.75878906 C125.22715934 1857.73766337 127.07705008 1855.8566413 129 1854 C132.87991585 1850.16459561 136.46520692 1846.15320619 140 1842 C140.82371094 1841.04222656 141.64742187 1840.08445312 142.49609375 1839.09765625 C149.2270587 1831.24041372 155.69392627 1823.20141389 162 1815 C162.45955078 1814.40413086 162.91910156 1813.80826172 163.39257812 1813.19433594 C177.72090257 1794.55157166 190.92943278 1775.17477817 203 1755 C203.55365234 1754.08202637 204.10730469 1753.16405273 204.67773438 1752.21826172 C213.87662893 1736.92785289 222.23360335 1721.2810624 230.28955078 1705.36962891 C231.82380006 1702.34711842 233.37505001 1699.33424714 234.93359375 1696.32421875 C277.14004094 1614.24647069 302.26820039 1521.59652378 320 1425 C320.29006927 1423.39566101 320.29006927 1423.39566101 320.58599854 1421.75891113 C334.62843675 1343.67525542 342.59374935 1264.76202385 346.6875 1185.5625 C346.74834778 1184.3868045 346.80919556 1183.21110901 346.87188721 1181.99978638 C348.18272247 1156.34741215 349.06844453 1130.68096249 349.5625 1105 C349.58334656 1103.92193085 349.60419312 1102.84386169 349.62567139 1101.73312378 C351.5903837 996.87868232 348.42578107 891.82705836 181 301 C180.4622998 300.23268555 179.92459961 299.46537109 179.37060547 298.67480469 C171.67776145 287.74712786 163.56896611 277.25302475 155 267 C154.50725586 266.40815918 154.01451172 265.81631836 153.50683594 265.20654297 C147.49396192 257.99473341 141.32841793 250.93733787 135 244 C134.22914063 243.13632812 133.45828125 242.27265625 132.6640625 241.3828125 C126.73374512 234.79559843 120.56986941 228.46480504 114.3125 222.1875 C113.51666504 221.38707275 112.72083008 220.58664551 111.90087891 219.76196289 C107.09456232 214.96812895 102.15432996 210.41505822 97 206 C95.80857836 204.95462463 94.61844648 203.90777726 93.4296875 202.859375 C85.7290041 196.10854619 77.90286937 189.58538595 69.77148438 183.359375 C68.01211707 182.00929822 66.26393777 180.64559664 64.515625 179.28125 C34.39275838 156.01019222 1.0979308 136.7976293 -33 120 C-32.38816463 113.91571751 -31.13636605 108.28632626 -29.47143555 102.40966797 C-29.21436829 101.48489151 -28.95730103 100.56011505 -28.69244385 99.60731506 C-27.84595375 96.56739756 -26.99140765 93.52980906 -26.13671875 90.4921875 C-25.54189808 88.36253185 -24.9475712 86.23273823 -24.35371399 84.10281372 C-22.79031447 78.50085177 -21.22001404 72.9008468 -19.64831543 67.3012085 C-18.0613318 61.64212287 -16.48124934 55.98111149 -14.90039062 50.3203125 C-11.83534725 39.35104951 -8.76763919 28.38255497 -5.67995834 17.41963959 C-5.03584312 15.12754814 -4.39628651 12.83423096 -3.75772095 10.54058838 C-3.39567009 9.24983811 -3.0334884 7.95912453 -2.67114258 6.66845703 C-2.36799637 5.58194855 -2.06485016 4.49544006 -1.7525177 3.37600708 C-1 1 -1 1 0 0 Z " fill="#4D545C" transform="translate(2947,130)"/>
<path d="M0 0 C3.00403537 3.00403537 3.43307603 6.81429098 4.44262695 10.82983398 C4.79677673 12.20363724 4.79677673 12.20363724 5.15808105 13.60519409 C5.94139158 16.65051505 6.71480715 19.69826096 7.48828125 22.74609375 C8.0333273 24.87264221 8.57900634 26.99902851 9.12528992 29.1252594 C10.56794495 34.74707809 12.00233572 40.37097335 13.43493652 45.99536133 C14.87585028 51.64717467 16.32376346 57.29719281 17.77148438 62.94726562 C19.40787189 69.33403736 21.04371882 75.72093686 22.673172 82.10948181 C23.17178531 84.06315597 23.67045645 86.01681537 24.16918945 87.97045898 C24.40657491 88.90101325 24.64396036 89.83156752 24.88853931 90.7903204 C26.06580682 95.39342657 27.25802932 99.99192984 28.47763062 104.58401489 C28.71182048 105.46613427 28.94601034 106.34825365 29.18729687 107.25710392 C29.6298453 108.91880869 30.07463489 110.57991878 30.52203083 112.24032497 C32 117.78256094 32 117.78256094 32 120 C31.39341553 120.29543701 30.78683105 120.59087402 30.16186523 120.89526367 C-10.72287997 140.88327612 -49.13635131 164.67263887 -84 194 C-84.53157715 194.44666016 -85.0631543 194.89332031 -85.61083984 195.35351562 C-87.36961868 196.83512014 -89.12318476 198.32267012 -90.875 199.8125 C-91.39151123 200.24957275 -91.90802246 200.68664551 -92.44018555 201.13696289 C-102.96418635 210.14912327 -112.93016563 219.76245468 -122.70458984 229.57421875 C-124.39175958 231.26681347 -126.08430196 232.95390597 -127.77734375 234.640625 C-133.3986498 240.25813315 -138.87078581 245.92319964 -144 252 C-144.97261239 253.11835946 -145.94654015 254.23557653 -146.921875 255.3515625 C-153.87222951 263.37548991 -160.54435956 271.57349983 -167 280 C-167.46873535 280.61037109 -167.9374707 281.22074219 -168.42041016 281.84960938 C-181.35696334 298.74811878 -193.42820479 316.13721785 -204.41308594 334.36865234 C-205.9550484 336.92546334 -207.51219181 339.47254584 -209.0703125 342.01953125 C-255.27657081 418.21651405 -284.91818707 503.76204412 -347.1268959 885.44939804 C-347.24439713 887.40667042 -347.36401272 889.36381553 -347.48373413 891.32095337 C-350.46971522 940.920129 -351.34168209 990.53183837 -351.25713849 1040.20599926 C-351.24959238 1045.15127655 -351.25233167 1050.09647367 -351.26074219 1055.04174805 C-351.42959733 1157.04023098 -346.10776406 1259.01954726 -284.69281006 1574.83758545 C-283.99500508 1577.01559026 -283.30293916 1579.19535481 -282.61181641 1581.37548828 C-271.31851477 1616.90225605 -257.77500409 1651.48953513 -241.85095215 1685.19451904 C-240.50831959 1688.04320745 -239.18196442 1690.89948971 -237.8515625 1693.75390625 C-226.93652986 1717.00180784 -214.36776387 1739.12943264 -200.87988281 1760.95556641 C-199.2829941 1763.54169657 -197.69700988 1766.13390064 -196.1171875 1768.73046875 C-187.56096577 1782.7182054 -177.94877592 1795.97518913 -168 1809 C-167.60071289 1809.5254541 -167.20142578 1810.0509082 -166.79003906 1810.59228516 C-159.05241651 1820.7732085 -151.03763091 1830.68939578 -142.6875 1840.375 C-142.2030542 1840.93880371 -141.7186084 1841.50260742 -141.21948242 1842.08349609 C-131.89431906 1852.83281721 -122.07630217 1863.09083878 -111.99853516 1873.13183594 C-110.23351456 1874.8914348 -108.47398867 1876.65640397 -106.71484375 1878.421875 C-100.97870623 1884.16168512 -95.20571909 1889.76342712 -89 1895 C-87.91637025 1895.94869808 -86.83429291 1896.8991728 -85.75390625 1897.8515625 C-77.42159034 1905.11789116 -68.76988635 1911.87444799 -59.93994141 1918.52294922 C-58.2687673 1919.79536343 -56.62208851 1921.09983362 -54.98046875 1922.41015625 C-32.96882828 1939.96526759 -8.277252 1954.64859785 16.4934082 1967.90576172 C21.79916053 1970.75101164 26.93007809 1973.75171282 32 1977 C29.0952798 1989.60778191 25.95684132 2002.14594942 22.71875 2014.671875 C22.21831217 2016.61181828 21.71794747 2018.55178042 21.21765137 2020.49176025 C20.1767963 2024.52592047 19.13452284 2028.55971097 18.09130859 2032.59326172 C16.76344547 2037.72818929 15.44002264 2042.86424973 14.1177597 2048.0006218 C13.0886058 2051.99574697 12.05665881 2055.99014685 11.02394104 2059.98435211 C10.53505323 2061.8768802 10.047103 2063.76965077 9.56016541 2065.66268158 C6.93690019 2075.85564701 4.23406202 2085.98024934 1 2096 C-8.66203518 2093.61064774 -17.84102014 2090.23010899 -27.125 2086.6875 C-27.93134888 2086.38109589 -28.73769775 2086.07469177 -29.56848145 2085.75900269 C-46.57398648 2079.28585198 -63.34754177 2072.33046507 -80 2065 C-80.67399841 2064.70371704 -81.34799683 2064.40743408 -82.04241943 2064.10217285 C-111.1626791 2051.28263109 -139.87191166 2037.54016253 -167.37939453 2021.51757812 C-170.04248009 2019.97540001 -172.71954472 2018.46071774 -175.40234375 2016.953125 C-214.56683684 1994.91063621 -251.63109468 1968.98516862 -286.29101562 1940.40478516 C-287.87988323 1939.09873599 -289.47862053 1937.80471919 -291.078125 1936.51171875 C-296.42233392 1932.19007494 -301.59810272 1927.73305614 -306.6796875 1923.10546875 C-308.70154184 1921.27082315 -310.74678522 1919.47231214 -312.8125 1917.6875 C-324.01126758 1907.89576085 -334.62178267 1897.53840063 -345.12255859 1887.0078125 C-347.38915993 1884.73580631 -349.66111959 1882.46925556 -351.93359375 1880.203125 C-353.40136271 1878.73469583 -354.86882176 1877.2659568 -356.3359375 1875.796875 C-357.00273529 1875.13210144 -357.66953308 1874.46732788 -358.35653687 1873.78240967 C-362.22339322 1869.89645487 -365.91102684 1865.90351699 -369.4887085 1861.74940491 C-371.56467834 1859.34635307 -373.72030352 1857.0199408 -375.875 1854.6875 C-380.32186477 1849.80663191 -384.52428901 1844.77624476 -388.66748047 1839.63720703 C-390.18221604 1837.77611932 -391.71671785 1835.93242794 -393.25390625 1834.08984375 C-401.15102105 1824.61088929 -408.70772002 1814.95050268 -416 1805 C-416.50321777 1804.31921387 -417.00643555 1803.63842773 -417.52490234 1802.93701172 C-427.13633516 1789.92689386 -436.1520095 1776.53863116 -445 1763 C-445.54011719 1762.17387207 -446.08023438 1761.34774414 -446.63671875 1760.49658203 C-495.3651472 1685.57192581 -530.44908172 1601.69420995 -610 941 C-609.94908203 939.86671265 -609.89816406 938.73342529 -609.84570312 937.5657959 C-604.91617006 829.60356195 -591.57570615 721.76814665 -546 550 C-545.76323547 549.25919189 -545.52647095 548.51838379 -545.28253174 547.75512695 C-525.91297073 487.21973356 -501.41476141 427.82120343 -469.56884766 372.73193359 C-468.03916709 370.06820413 -466.536826 367.39098646 -465.04296875 364.70703125 C-458.11452124 352.30723151 -450.57737556 340.39108765 -442.70849609 328.56787109 C-441.19010742 326.28573162 -439.68073878 323.99803842 -438.17578125 321.70703125 C-428.98008337 307.7458729 -419.09258021 294.32234259 -409 281 C-408.56155762 280.41831055 -408.12311523 279.83662109 -407.67138672 279.23730469 C-402.21201787 271.99875715 -396.54123583 264.99779032 -390.64453125 258.11328125 C-388.24672003 255.30821314 -385.93190535 252.44296865 -383.625 249.5625 C-379.54908898 244.54824976 -375.21147206 239.81957713 -370.77978516 235.12133789 C-368.06378842 232.2400821 -365.40868244 229.32874829 -362.83032227 226.32324219 C-358.89984065 221.82183948 -354.73393186 217.5896737 -350.50390625 213.37109375 C-349.71153061 212.57776138 -348.91915497 211.78442902 -348.10276794 210.96705627 C-346.43749717 209.30110919 -344.77097971 207.63640744 -343.10327148 205.97290039 C-340.56965378 203.44463866 -338.04141833 200.91108339 -335.51367188 198.37695312 C-333.88573717 196.7496793 -332.25749225 195.12271575 -330.62890625 193.49609375 C-329.88282608 192.74798935 -329.13674591 191.99988495 -328.36805725 191.22911072 C-324.27685892 187.15588432 -320.09853444 183.2456551 -315.72015381 179.48204041 C-313.32472814 177.41820308 -311.00985961 175.27038353 -308.6875 173.125 C-304.27646827 169.10619407 -299.76264642 165.27134676 -295.1171875 161.52734375 C-292.78762058 159.64952084 -290.48742603 157.73975883 -288.1953125 155.81640625 C-278.5102212 147.71086759 -268.56003616 140.08175643 -258.32470703 132.68505859 C-256.12313583 131.08925473 -253.93309838 129.47896593 -251.74609375 127.86328125 C-218.57550047 103.46682015 -183.27298049 82.4163252 -147 63 C-145.48140381 62.18426514 -145.48140381 62.18426514 -143.93212891 61.35205078 C-125.9564537 51.73560573 -107.62820424 43.14072487 -88.99682617 34.88739014 C-87.08073143 34.03587707 -85.16771126 33.17788565 -83.25585938 32.31689453 C-56.06782722 20.09256187 -28.12875215 9.83344539 0 0 Z " fill="#4D545C" transform="translate(887,130)"/>
<path d="M0 0 C42.9 0 85.8 0 130 0 C129.32250248 8.8074677 128.49358835 17.41434858 127.23675537 26.13343811 C126.96980862 28.02094753 126.96980862 28.02094753 126.697469 29.94658846 C126.20810648 33.40594189 125.7136333 36.8645475 125.21825385 40.3230437 C124.6817727 44.07508004 124.15014707 47.82780481 123.61790466 51.58044434 C122.69195625 58.10424467 121.76297252 64.62760695 120.83193207 71.15068245 C119.46285773 80.74282911 118.09857254 90.33565252 116.73533121 99.92862969 C114.49264103 115.7093099 112.24627259 131.48946423 109.99755859 147.26928711 C107.8666048 162.22281843 105.73706639 177.17654987 103.60986328 192.13061523 C103.48142342 193.03353344 103.35298355 193.93645164 103.22065157 194.866731 C102.44429222 200.32455735 101.66799636 205.78239272 100.89171636 211.24023035 C99.72661444 219.43168233 98.56138993 227.62311686 97.39611816 235.81454468 C97.20412782 237.16418163 97.20412782 237.16418163 97.00825888 238.54108398 C95.20274794 251.23306588 93.3962086 263.92490106 91.58886892 276.61662267 C86.44266483 312.75513382 81.30266706 348.89450363 76.18212479 385.03666081 C75.68133424 388.57118389 75.18043435 392.10569147 74.67952673 395.64019797 C74.06847829 399.95189391 73.45747937 404.26359687 72.84649658 408.57530212 C72.7275325 409.41482836 72.60856843 410.25435459 72.48599938 411.11932101 C71.0874298 420.98937077 69.68987175 430.85956277 68.29384363 440.72997232 C67.43585225 446.79586545 66.57690266 452.86162238 65.71720207 458.9272735 C65.22462647 462.40299319 64.73255181 465.878782 64.24177456 469.35475612 C63.71197251 473.1055795 63.18044854 476.85615494 62.64849854 480.60667419 C62.49454896 481.69978427 62.34059938 482.79289434 62.18198466 483.91912895 C61.96862244 485.41966872 61.96862244 485.41966872 61.75094986 486.95052242 C61.62915619 487.81140309 61.50736252 488.67228376 61.38187814 489.55925173 C60.99192818 492.05159051 60.49473433 494.52632834 60 497 C26.34 497 -7.32 497 -42 497 C-43.68785255 493.6242949 -43.22309363 489.79094125 -43.28125 486.07421875 C-43.29965942 485.17564651 -43.31806885 484.27707428 -43.33703613 483.35127258 C-43.39587351 480.46341619 -43.44852742 477.57549642 -43.5 474.6875 C-43.79729554 457.3216768 -43.79729554 457.3216768 -45 440 C-45.73863281 440.68964844 -46.47726562 441.37929687 -47.23828125 442.08984375 C-53.95175801 448.3251431 -60.7559114 454.38048189 -68 460 C-68.6688623 460.51965332 -69.33772461 461.03930664 -70.02685547 461.57470703 C-81.49019808 470.40993017 -93.2577896 478.13988148 -106 485 C-106.68658691 485.37350586 -107.37317383 485.74701172 -108.08056641 486.13183594 C-141.81152788 504.31808255 -183.04128952 511.74917186 -220.328125 500.74609375 C-229.77793883 497.77760944 -237.87508199 493.71673136 -246 488 C-246.89332031 487.37222656 -247.78664063 486.74445312 -248.70703125 486.09765625 C-273.69138401 467.33060786 -282.39280885 435.33499646 -286.6237793 405.89746094 C-288.02966584 395.0700362 -288.20373771 384.27563996 -288.1875 373.375 C-288.18656342 372.55854004 -288.18562683 371.74208008 -288.18466187 370.90087891 C-288.0233642 305.64445186 -278.57263556 225.5113352 -235 174 C-234.44957031 173.31550781 -233.89914062 172.63101563 -233.33203125 171.92578125 C-214.10384842 148.67840581 -184.17058842 137.69750331 -155.01098633 134.27658081 C-144.7347347 133.33263298 -134.37082736 133.55891507 -124.0625 133.625 C-122.78720428 133.62932037 -121.51190857 133.63364075 -120.19796753 133.63809204 C-90.75986322 133.7547246 -62.07955749 135.90834815 -32.99633789 140.3737793 C-31.9421743 140.5350531 -31.9421743 140.5350531 -30.86671448 140.69958496 C-28.97490434 140.99148226 -27.08409009 141.28981374 -25.19335938 141.58862305 C-22.41102329 141.9470509 -19.79920905 142.08343543 -17 142 C-16.98598145 140.69240723 -16.98598145 140.69240723 -16.97167969 139.35839844 C-16.58335796 110.12767069 -13.8405838 81.76700273 -9.06640625 52.9375 C-8.94611494 52.21103271 -8.82582363 51.48456543 -8.70188713 50.73608398 C-5.88992464 33.80893337 -2.92395303 16.9080762 0 0 Z M-128.7421875 231.80859375 C-130.33861976 233.79793032 -131.6810001 235.81682776 -133 238 C-133.48984375 238.804375 -133.9796875 239.60875 -134.484375 240.4375 C-152.49695274 273.12011528 -164.02163328 344.21327983 -154.6875 381.03125 C-152.52983494 387.21001812 -149.26725597 391.18964462 -144 395 C-126.40303287 400.86565571 -104.75880795 393.73776546 -88.87597656 385.93994141 C-76.23369152 379.60563669 -65.23347501 371.52017582 -54 363 C-53.32035439 362.56400073 -52.64070877 362.12800146 -51.94046783 361.67879009 C-49.58980016 359.6451168 -49.375527 358.67777969 -48.97644043 355.64057922 C-48.8505101 354.74872925 -48.72457977 353.85687927 -48.59483337 352.93800354 C-48.41543968 351.47269447 -48.41543968 351.47269447 -48.23242188 349.9777832 C-48.09195938 348.94610016 -47.95149689 347.91441711 -47.80677795 346.85147095 C-47.34390936 343.41992366 -46.90630536 339.98564058 -46.46875 336.55078125 C-46.14924935 334.14288168 -45.82822 331.7351845 -45.5057373 329.3276825 C-44.65648658 322.95506438 -43.82868249 316.57983215 -43.00506592 310.20385742 C-42.17932865 303.84183869 -41.33277536 297.48259777 -40.48828125 291.12304688 C-37.21744681 266.42925536 -34.02564435 241.72511767 -31 217 C-38.28590016 216.95317845 -45.57176665 216.91788252 -52.85778809 216.89637566 C-56.24281211 216.88604136 -59.62773149 216.87207771 -63.01269531 216.84912109 C-98.56816771 215.51369532 -98.56816771 215.51369532 -128.7421875 231.80859375 Z " fill="#4D545C" transform="translate(1323,2422)"/>
<path d="M0 0 C0.76957031 0.59554687 1.53914063 1.19109375 2.33203125 1.8046875 C21.65645782 17.73685773 31.97689968 42.06834647 37 66 C37.16516113 66.77891602 37.33032227 67.55783203 37.50048828 68.36035156 C50.00615839 131.03095895 35.22924892 216.70112604 0.36010742 270.12133789 C-3.13325383 275.33316503 -6.95095034 280.21323529 -11 285 C-11.55042969 285.68449219 -12.10085938 286.36898437 -12.66796875 287.07421875 C-17.45919956 292.86694199 -23.07540691 297.40641138 -29 302 C-29.79664063 302.64710938 -30.59328125 303.29421875 -31.4140625 303.9609375 C-80.74929489 342.33278492 -158.47417116 342.67541942 -218 336 C-251.61296775 331.7105328 -286.2770978 323.46290281 -312 300 C-312.76570312 299.31550781 -313.53140625 298.63101563 -314.3203125 297.92578125 C-335.65937663 277.81352743 -344.61607184 249.39938113 -348 221 C-348.13148438 219.92105469 -348.26296875 218.84210937 -348.3984375 217.73046875 C-354.31632182 156.71228311 -341.29182248 72.79715289 -301.77734375 24.078125 C-298.26687949 19.97358217 -294.67400433 15.95865692 -291 12 C-290.18982422 11.09121094 -290.18982422 11.09121094 -289.36328125 10.1640625 C-265.33546613 -15.61893307 -226.66762769 -26.41314368 -193 -31 C-191.90042969 -31.15098145 -190.80085937 -31.30196289 -189.66796875 -31.45751953 C-128.32093137 -39.43573273 -51.03413657 -39.59883068 0 0 Z M-184.5625 74.3125 C-211.72198069 106.10896519 -216.03898014 174.02088566 -214 214 C-213.12092431 223.57640421 -210.333219 232.70514948 -203.37109375 239.6171875 C-193.96224618 246.9958197 -182.01294796 247.2093219 -170.61010742 247.24023438 C-168.46818016 247.2498621 -166.32724625 247.28088456 -164.18554688 247.3125 C-149.82581853 247.4245739 -136.27553179 244.93320546 -125.3125 234.9375 C-98.11763201 204.95175057 -93.92756058 144.25590589 -93.70483398 105.2878418 C-93.69332147 103.89288178 -93.67288061 102.49796557 -93.64331055 101.10327148 C-93.40575539 89.82935478 -94.07625687 77.55815826 -101.5390625 68.421875 C-111.59824865 58.63165104 -126.32715511 57.88466106 -139.63134766 57.9440918 C-156.89960211 58.35168098 -172.03119081 61.69550664 -184.5625 74.3125 Z " fill="#4D545C" transform="translate(937,2589)"/>
<path d="M0 0 C0.75667969 0.66386719 1.51335937 1.32773438 2.29296875 2.01171875 C19.70619527 18.22610007 26.24301071 40.42476854 27.24609375 63.60546875 C28.00226634 94.68992663 21.73749146 126.56754579 -0.1875 149.75 C-18.15258901 166.94051633 -42.39061352 174.81284152 -66.25 179.6875 C-67.17538574 179.87779785 -68.10077148 180.0680957 -69.05419922 180.26416016 C-87.35108698 183.79903135 -105.94129762 185.49871342 -124.5 186.9375 C-126.58554919 187.10295592 -128.67107931 187.26865242 -130.7565918 187.43457031 C-137.5035218 187.96790261 -144.25164305 188.48508476 -151 189 C-152.21318909 189.09299377 -153.42637817 189.18598755 -154.67633057 189.28179932 C-162.17471926 189.85608111 -169.67363686 190.42266009 -177.17333984 190.97952271 C-179.57788862 191.15823862 -181.98235048 191.33812834 -184.38671875 191.51925659 C-187.7640002 191.7726768 -191.14167347 192.02002064 -194.51953125 192.265625 C-195.50512527 192.3404158 -196.4907193 192.4152066 -197.50617981 192.49226379 C-204.34658624 192.98019437 -211.14340622 193.07969005 -218 193 C-216.3293461 206.6403977 -214.81226651 217.39887583 -204.6875 227.25 C-190.13114287 236.72855813 -172.22356599 236.51639451 -155.4375 236.375 C-154.46578857 236.37101196 -153.49407715 236.36702393 -152.49291992 236.36291504 C-115.72842844 236.1898465 -78.9756788 233.7480102 -42.38671875 230.27050781 C-41.48605682 230.18594833 -40.5853949 230.10138885 -39.65744019 230.01426697 C-38.01013554 229.85843613 -36.36320753 229.69853101 -34.71682739 229.53321838 C-29.13316363 229.00247882 -23.60692964 228.91882309 -18 229 C-16.54270642 237.93160535 -15.40299771 246.85656189 -14.4921875 255.859375 C-14.36184113 257.12920227 -14.23149475 258.39902954 -14.09719849 259.70733643 C-13.82499483 262.36935182 -13.55417279 265.03146356 -13.28564453 267.69384766 C-12.94363663 271.08195283 -12.59443672 274.46927345 -12.24328423 277.8564415 C-11.90532747 281.12781981 -11.57412399 284.39988121 -11.2421875 287.671875 C-11.11721893 288.8751947 -10.99225037 290.0785144 -10.86349487 291.31829834 C-10.23799827 297.58368281 -9.86669421 303.70360723 -10 310 C-70.47086857 338.55869285 -153.1655273 345.18594904 -219 336 C-220.17079102 335.83870605 -221.34158203 335.67741211 -222.54785156 335.51123047 C-238.42589286 333.24900381 -253.87093828 330.39429304 -269 325 C-269.67514648 324.76168457 -270.35029297 324.52336914 -271.04589844 324.27783203 C-285.71920519 318.99906464 -298.92812192 311.89246991 -311 302 C-311.86238281 301.30261719 -312.72476562 300.60523437 -313.61328125 299.88671875 C-339.62924695 277.75494078 -349.87888682 243.61334871 -352.75683594 210.70214844 C-355.51197712 168.75540051 -350.61963635 125.36407914 -339 85 C-338.74524902 84.11199707 -338.49049805 83.22399414 -338.22802734 82.30908203 C-326.87418294 43.69177426 -304.98408365 9.57234194 -269.15234375 -10.16015625 C-201.9734714 -45.75379594 -84.51416439 -47.46021132 0 0 Z M-165 56 C-166.33611328 56.29197266 -166.33611328 56.29197266 -167.69921875 56.58984375 C-179.16968758 59.55846432 -188.77238017 66.30823678 -195.09765625 76.3203125 C-202.90774988 89.92902882 -210 108.07694507 -210 124 C-196.96139306 123.31277821 -183.97174961 122.16710967 -170.97290039 120.953125 C-167.44155511 120.62537636 -163.90931681 120.30874531 -160.37695312 119.9921875 C-130.56375536 118.06871055 -130.56375536 118.06871055 -106.5 102.26171875 C-99.96652362 93.18096438 -98.7358623 79.83961753 -100 69 C-101.24534479 64.15960328 -103.45263158 61.04247807 -107.5 58.125 C-116.51803509 53.3324716 -127.41657481 53.66847235 -137.375 53.75 C-138.5602124 53.75604248 -139.7454248 53.76208496 -140.96655273 53.76831055 C-149.13602527 53.86093495 -156.99990944 54.22095888 -165 56 Z " fill="#4D545C" transform="translate(1836,2589)"/>
<path d="M0 0 C0.89407562 0.00060425 1.78815125 0.0012085 2.70932007 0.00183105 C42.85286078 0.075036 82.02865263 5.64443899 120.625 16.75 C121.26813141 16.93364105 121.91126282 17.1172821 122.57388306 17.30648804 C131.02038714 19.7353927 139.07764636 22.66132154 147.125 26.1875 C145.71027286 35.47321979 143.77368825 44.60959685 141.68359375 53.76171875 C141.35234929 55.22186438 141.02130336 56.68205506 140.69044495 58.14228821 C140.00266967 61.1740709 139.31241978 64.20527623 138.62036133 67.23608398 C137.73221574 71.12665052 136.85059608 75.01866325 135.97077847 78.91112041 C135.29142117 81.91331152 134.60860838 84.91470836 133.9247303 87.91587257 C133.59788991 89.3522037 133.2721551 90.78878686 132.94753838 92.22562218 C132.49647543 94.2198215 132.04024287 96.21284942 131.58374023 98.20581055 C131.32551987 99.33987839 131.0672995 100.47394623 130.80125427 101.64237976 C130.125 104.1875 130.125 104.1875 129.125 105.1875 C127.467776 105.28927623 125.80621421 105.32103067 124.14587402 105.32553101 C123.0668129 105.33098434 121.98775177 105.33643768 120.87599182 105.34205627 C119.08402626 105.34361977 119.08402626 105.34361977 117.25585938 105.34521484 C116.00530258 105.35029556 114.75474579 105.35537628 113.46629333 105.36061096 C110.73691886 105.37134729 108.00759609 105.38033967 105.2782135 105.38673019 C100.94678703 105.39741643 96.61543858 105.41767051 92.28405762 105.43984985 C79.96333459 105.50172855 67.64261299 105.55553971 55.32177734 105.58886719 C48.52349457 105.60733722 41.7253397 105.6364395 34.9271512 105.6768719 C31.33557261 105.69776425 27.7441541 105.71337323 24.1525116 105.71567917 C-9.95253376 105.36460439 -9.95253376 105.36460439 -39.875 120.1875 C-64.34180264 145.37523973 -67.2192249 193.06814702 -66.875 226.1875 C-66.43784594 236.60050972 -64.36015305 246.59013299 -58.8125 255.5 C-42.8412338 270.11200951 -19.93235243 267.653483 0.20703888 267.51371002 C2.39297369 267.49988634 4.57886362 267.49161627 6.76483154 267.48504639 C33.93939205 267.39911138 60.93676182 266.47036353 87.99658203 263.79736328 C93.40201273 263.2692526 98.69165667 263.02627319 104.125 263.1875 C106.07205239 265.13455239 105.70814179 268.71268284 105.97290039 271.38183594 C106.05107498 272.134729 106.12924957 272.88762207 106.20979309 273.66333008 C106.46844928 276.16575077 106.7206623 278.66877531 106.97265625 281.171875 C107.1502744 282.90727913 107.32821126 284.64265068 107.50645447 286.37799072 C107.87987552 290.0228766 108.25026898 293.6680535 108.6184082 297.31347656 C109.0900308 301.98242867 109.56775776 306.6507302 110.04760075 311.31884384 C110.41590521 314.90631058 110.78161658 318.49403782 111.14648247 322.08185577 C111.32166904 323.80268134 111.49750308 325.52344112 111.67399788 327.244133 C111.92069184 329.65436907 112.16405682 332.06491847 112.40649414 334.47558594 C112.479729 335.18539612 112.55296387 335.8952063 112.62841797 336.62652588 C112.98031097 340.16175797 113.20406419 343.63452788 113.125 347.1875 C87.51444821 356.1462039 62.07884779 363.55233042 35.25 368 C34.07614746 368.19513184 32.90229492 368.39026367 31.69287109 368.59130859 C12.52938066 371.56925876 -6.61486253 372.52107324 -25.99072266 372.44824219 C-29.37290355 372.43750665 -32.75455357 372.44822443 -36.13671875 372.4609375 C-80.61478604 372.49078774 -132.76382619 366.71471813 -166.1328125 333.96484375 C-167.03773438 333.04832031 -167.94265625 332.13179687 -168.875 331.1875 C-169.75929687 330.30191406 -170.64359375 329.41632812 -171.5546875 328.50390625 C-194.9936677 303.96065799 -202.82323685 269.15370125 -203.875 236.1875 C-203.91625 234.92550781 -203.9575 233.66351562 -204 232.36328125 C-204.88797225 175.69955217 -194.30567668 103.47790567 -157.875 58.1875 C-157.46523926 57.6723584 -157.05547852 57.1572168 -156.63330078 56.62646484 C-128.55085494 21.52601066 -88.38455241 7.05443721 -44.8125 1.9375 C-29.88038133 0.4430241 -14.99726075 -0.01890698 0 0 Z " fill="#4D545C" transform="translate(406.875,2554.8125)"/>
<path d="M0 0 C22.77 0 45.54 0 69 0 C68.35601694 9.01576289 67.6156281 17.84971305 66.42114258 26.78393555 C66.26482361 27.97821671 66.10850464 29.17249786 65.94744873 30.40296936 C65.5226473 33.64035988 65.09411829 36.87722623 64.66340089 40.11383414 C64.29941544 42.85233808 63.93793939 45.59117121 63.57637328 48.32999545 C62.71848884 54.82753534 61.85611479 61.32446852 60.9909668 67.82104492 C60.20897993 73.69372755 59.43234095 79.56708645 58.66088867 85.44116211 C48.29813431 164.32425418 48.29813431 164.32425418 40.6875 196.8125 C40.16523195 199.082966 39.64568419 201.35403447 39.12739563 203.62541199 C38.67371904 205.60785044 38.21349201 207.58878678 37.75268555 209.56958008 C37.06493595 212.70404963 36.49477075 215.8300047 36 219 C36.70382813 218.33355469 37.40765625 217.66710938 38.1328125 216.98046875 C45.74809036 209.84278134 53.70144489 203.32291474 62 197 C62.6398584 196.50854492 63.2797168 196.01708984 63.93896484 195.51074219 C96.39381579 170.60706925 134.486728 146.78521249 176 142 C176.88171875 141.89042969 177.7634375 141.78085938 178.671875 141.66796875 C202.69280805 139.06454393 230.72499536 141.51977145 250.75683594 156.29589844 C266.48007774 169.00850199 275.7678092 185.84150368 278 206 C280.02203802 231.22825869 275.35967223 256.25426881 271.70292687 281.12047124 C270.80741617 287.23983385 269.93472596 293.3624536 269.05937195 299.48472595 C267.39878579 311.07500781 265.71836576 322.66231975 264.03046626 334.24865192 C262.12828951 347.31243905 260.24807557 360.37935558 258.36988699 373.44660962 C255.12362193 396.02961223 251.86034168 418.61010032 248.5792284 441.18806553 C247.19220032 450.73779982 245.81221243 460.28838554 244.45907593 469.84298706 C244.2815811 471.09454512 244.2815811 471.09454512 244.10050052 472.37138718 C243.55879995 476.19266727 243.01925769 480.0142261 242.48403645 483.83641911 C242.30059272 485.13417994 242.11714899 486.43194078 241.92814636 487.76902771 C241.77157153 488.88563498 241.6149967 490.00224226 241.45367718 491.15268612 C241 494 241 494 240 498 C217.23 498 194.46 498 171 498 C171.60385123 490.14993402 172.23273496 482.47150035 173.32836914 474.70309448 C173.52460294 473.27699881 173.52460294 473.27699881 173.72480106 471.82209313 C174.15789352 468.68149074 174.5965113 465.54168675 175.03515625 462.40185547 C175.34929141 460.1321479 175.6630737 457.86239148 175.97653198 455.59259033 C176.64923625 450.7268344 177.32437456 445.8614248 178.00143433 440.99627304 C179.07281791 433.29724118 180.13848185 425.59742414 181.20336914 417.89749146 C182.69738547 407.09881878 184.19375748 396.30047541 185.69238281 385.50244141 C185.78725467 384.81885571 185.88212653 384.13527002 185.9798733 383.43096961 C186.36426625 380.66130936 186.74866368 377.89164973 187.13306779 375.12199103 C188.19177622 367.49367234 189.24983674 359.86526383 190.30761719 352.23681641 C190.44975079 351.21179421 190.44975079 351.21179421 190.59475577 350.16606449 C192.17745575 338.75159026 193.75809321 327.33683127 195.33752728 315.92190468 C196.39600676 308.27340037 197.45715955 300.62527319 198.52044678 292.97743583 C199.18199006 288.21567727 199.8414321 283.45362937 200.50033951 278.69150543 C200.80539857 276.4900105 201.11133747 274.28863728 201.41823959 272.08739853 C201.83841063 269.07290194 202.25538879 266.05797948 202.67163086 263.04293823 C202.79254624 262.18114704 202.91346163 261.31935585 203.03804111 260.43144977 C206.78682114 234.38775942 206.78682114 234.38775942 199 210 C199 209.34 199 208.68 199 208 C197.66726889 207.33213024 196.33379215 206.66574824 195 206 C194.34386719 205.64679687 193.68773438 205.29359375 193.01171875 204.9296875 C175.26137537 196.87490983 152.38468796 202.36107002 134.875 208.75 C117.20117293 215.56158258 100.53169155 225.24439762 85 236 C84.39381836 236.41701172 83.78763672 236.83402344 83.16308594 237.26367188 C73.48968575 243.93197876 64.007204 250.84006249 54.76611328 258.09814453 C50.08766314 261.7576976 45.49658487 265.06929443 40.23046875 267.83349609 C35.08188025 271.2947597 30.92510661 274.401853 29.66764832 280.74681091 C29.40131618 282.69122022 29.16734926 284.64021108 28.95776367 286.59155273 C28.73903107 288.26253981 28.73903107 288.26253981 28.51587963 289.9672842 C28.18093953 292.52839244 27.85681035 295.08910307 27.54473495 297.65293503 C26.9598894 302.39661914 26.29716269 307.12840125 25.62832642 311.86087036 C24.55709455 319.45570071 23.49868502 327.05210398 22.45588684 334.65089417 C22.31679915 335.66400467 22.17771146 336.67711517 22.03440899 337.72092599 C21.74800599 339.80710872 21.46162672 341.89329471 21.17527032 343.97948384 C20.4343473 349.37237252 19.69039747 354.76484342 18.94657898 360.15733337 C16.42377877 378.45088312 13.90565603 396.74507481 11.39135742 415.03979492 C9.99576589 425.19426247 8.59717227 435.34831198 7.19529694 445.50191396 C6.31066849 451.91049965 5.42982922 458.31959123 4.55177844 464.72908127 C4.00811454 468.69117097 3.46095591 472.65277198 2.91277313 476.61423874 C2.65853059 478.45678907 2.40575322 480.29954223 2.15450859 482.14250374 C1.81299014 484.64613708 1.46635434 487.14900819 1.11836243 489.65174866 C1.01894814 490.38983562 0.91953386 491.12792258 0.81710702 491.88837582 C0.11410988 496.88589012 0.11410988 496.88589012 -1 498 C-3.14743549 498.09425595 -5.29801026 498.11742648 -7.44750977 498.11352539 C-8.45722336 498.11374443 -8.45722336 498.11374443 -9.48733521 498.1139679 C-11.72205784 498.11326878 -13.9566981 498.10547652 -16.19140625 498.09765625 C-17.73697362 498.09579206 -19.28254157 498.09436816 -20.82810974 498.09336853 C-24.90357077 498.0895434 -28.97899637 498.07971317 -33.05444336 498.06866455 C-37.21011882 498.05845032 -41.36579999 498.05387089 -45.52148438 498.04882812 C-53.68100657 498.03809089 -61.84049711 498.02061887 -70 498 C-69.40707691 486.79160625 -67.9681351 475.79933351 -66.36499023 464.70019531 C-66.09057325 462.77461079 -65.81659149 460.8489642 -65.54300404 458.92326164 C-64.95054258 454.75994937 -64.35498115 450.5970966 -63.75699615 446.43457413 C-62.78468063 439.66636405 -61.81922534 432.89718487 -60.85443115 426.12789917 C-59.45448224 416.31060546 -58.05119433 406.49379399 -56.64559937 396.67730713 C-54.42404702 381.16169594 -52.20895333 365.64516662 -49.99536133 350.12841797 C-49.80913031 348.82303692 -49.62289929 347.51765586 -49.43102491 346.17271781 C-48.67142241 340.84829823 -47.91182734 335.52387759 -47.1523084 330.19944608 C-46.08919651 322.74689496 -45.02568405 315.29440117 -43.96172249 307.8419713 C-38.31720413 268.30525359 -32.70013897 228.76472078 -27.10791144 189.22057343 C-26.64375342 185.93848551 -26.17952198 182.65640797 -25.71530342 179.37432861 C-22.33499796 155.4742521 -18.95688768 131.57386576 -15.58136547 107.67311323 C-14.26188728 98.33103779 -12.94129149 88.98912071 -11.61991417 79.64731371 C-10.71648189 73.25976603 -9.8144049 66.87202921 -8.91351646 60.48412228 C-8.36153024 56.57258066 -7.80819725 52.66123038 -7.25451195 48.74992895 C-7.00527077 46.98740053 -6.75654834 45.22479864 -6.50846279 43.46210718 C-4.4659536 28.95308222 -2.22831525 14.4840491 0 0 Z " fill="#2DB99B" transform="translate(3353,2421)"/>
<path d="M0 0 C0.87129547 0.00276947 1.74259094 0.00553894 2.64028931 0.00839233 C32.4967707 0.11795678 62.21564279 1.83985732 91.875 5.25 C91.34118094 11.94551516 90.35343046 18.36473137 88.84375 24.90625 C88.64777222 25.77519897 88.45179443 26.64414795 88.24987793 27.53942871 C87.83916539 29.35505125 87.42560435 31.17003164 87.00927734 32.984375 C86.37056183 35.76935164 85.74123294 38.55632864 85.11328125 41.34375 C84.71147843 43.11470615 84.30915373 44.88554399 83.90625 46.65625 C83.71768433 47.48950806 83.52911865 48.32276611 83.33483887 49.18127441 C81.99145316 55.01709369 81.99145316 55.01709369 80.875 57.25 C79.87514069 57.25586624 78.87528137 57.26173248 77.84512329 57.26777649 C68.34395061 57.3254124 58.8429979 57.39838003 49.34205055 57.48571491 C44.45949635 57.53012112 39.57701991 57.56943947 34.69433594 57.59643555 C29.96735778 57.62276954 25.24068387 57.66337481 20.51389694 57.71318626 C18.72577118 57.72965442 16.93759304 57.74129167 15.14940262 57.74761391 C-3.59961982 57.82049661 -25.01774261 58.19528361 -39.125 72.25 C-49.19587009 84.5498353 -51.84876324 100.30681887 -54.1875 115.5625 C-54.43861535 117.13681033 -54.69082733 118.71094609 -54.9440918 120.28491211 C-55.68851936 124.93729389 -56.40969057 129.59306424 -57.125 134.25 C-57.33787033 135.6308625 -57.55076016 137.011722 -57.76367188 138.39257812 C-58.85489799 145.47911435 -58.85489799 145.47911435 -59.92016602 152.56958008 C-60.06639404 153.54822021 -60.21262207 154.52686035 -60.36328125 155.53515625 C-60.5495105 156.80178101 -60.5495105 156.80178101 -60.73950195 158.09399414 C-61.125 160.25 -61.125 160.25 -62.125 163.25 C-26.815 163.25 8.495 163.25 44.875 163.25 C44.27800106 170.41398731 43.66841358 177.48357447 42.71875 184.59375 C42.6115564 185.41073364 42.50436279 186.22771729 42.3939209 187.06945801 C42.17008303 188.7701206 41.94485962 190.4706014 41.71826172 192.17089844 C41.37203437 194.77228234 41.03143878 197.37436237 40.69140625 199.9765625 C40.47168504 201.64066872 40.25164469 203.30473284 40.03125 204.96875 C39.93017944 205.74166382 39.82910889 206.51457764 39.72497559 207.31091309 C39.27033141 210.70078394 38.7060502 213.92579922 37.875 217.25 C2.565 217.25 -32.745 217.25 -69.125 217.25 C-70.115 225.17 -71.105 233.09 -72.125 241.25 C-72.77791006 246.11347366 -73.43805163 250.97392564 -74.12252808 255.83279419 C-74.30123983 257.11184627 -74.47995157 258.39089836 -74.66407883 259.7087096 C-75.14771 263.16952917 -75.63351713 266.63003987 -76.11979318 270.09048867 C-76.64871468 273.85721672 -77.17556033 277.62423531 -77.70275879 281.39120483 C-78.96851743 290.43179592 -80.23780235 299.47189038 -81.50778931 308.51188833 C-81.86750246 311.07255459 -82.22712226 313.63323394 -82.58671045 316.19391775 C-84.8301583 332.16973408 -87.07478961 348.14538366 -89.32299614 364.12053108 C-89.84050809 367.79796268 -90.35800799 371.47539598 -90.87548828 375.15283203 C-91.00406727 376.06656097 -91.13264627 376.98028992 -91.26512159 377.92170762 C-93.34993319 392.73867082 -95.42706408 407.55670028 -97.5010805 422.37517799 C-99.64009089 437.65705933 -101.78620912 452.93792961 -103.9391185 468.21785915 C-105.14392236 476.77004702 -106.3456974 485.32263548 -107.5394249 493.87637711 C-108.55507876 501.15400619 -109.5772241 508.43068771 -110.60750352 515.70626129 C-111.13131275 519.4066533 -111.6522711 523.10738036 -112.16482925 526.80934906 C-117.55477969 565.69774785 -124.62148118 604.49685635 -157.125 630.25 C-160.67841527 632.81152669 -164.31688864 635.08763187 -168.125 637.25 C-169.03636719 637.77335937 -169.94773437 638.29671875 -170.88671875 638.8359375 C-208.88961638 659.26314305 -259.04762647 651.73626194 -300.3125 647.75 C-302.2001709 647.57247192 -302.2001709 647.57247192 -304.12597656 647.39135742 C-305.27420898 647.27252197 -306.42244141 647.15368652 -307.60546875 647.03125 C-308.60473389 646.92876953 -309.60399902 646.82628906 -310.63354492 646.72070312 C-313.125 646.25 -313.125 646.25 -316.125 644.25 C-314.72167735 637.46847014 -313.3155552 630.68752515 -311.9074707 623.90698242 C-311.4286327 621.59949959 -310.95043946 619.29188286 -310.47290039 616.98413086 C-309.7870089 613.67005702 -309.09881201 610.35646914 -308.41015625 607.04296875 C-308.19657974 606.0085112 -307.98300323 604.97405365 -307.76295471 603.9082489 C-307.56282272 602.9474794 -307.36269073 601.9867099 -307.15649414 600.99682617 C-306.89335167 599.72774666 -306.89335167 599.72774666 -306.62489319 598.43302917 C-306.125 596.25 -306.125 596.25 -305.125 593.25 C-304.31306183 593.24413376 -303.50112366 593.23826752 -302.6645813 593.23222351 C-294.92930222 593.17378404 -287.19432668 593.10142633 -279.45932198 593.01428509 C-275.48478431 592.96997668 -271.51033991 592.93063975 -267.53564453 592.90356445 C-232.19576618 593.86518556 -232.19576618 593.86518556 -201.1875 579.1875 C-187.79857785 564.00662615 -186.18570733 541.55520429 -183.52734375 522.44140625 C-183.18159001 520.00521107 -182.8350414 517.5691286 -182.48777771 515.13314819 C-181.73401645 509.83219543 -180.98600633 504.53047873 -180.24310303 499.22799683 C-179.14842339 491.41486329 -178.04289313 483.60329231 -176.93536043 475.7919718 C-174.38300671 457.78596185 -171.85100329 439.77710303 -169.32151151 421.76786965 C-167.90309537 411.66925378 -166.48334156 401.57082603 -165.06366909 391.47238672 C-164.14320265 384.92467371 -163.22290505 378.37693697 -162.30258805 371.82920295 C-161.52611613 366.3049072 -160.74960841 360.7806165 -159.97301292 355.25633812 C-159.04513145 348.65585214 -158.11736988 342.05534932 -157.18969727 335.45483398 C-157.03694489 334.36801531 -156.88419252 333.28119664 -156.72681129 332.16144407 C-154.73007868 317.95390699 -152.73696953 303.74586685 -150.74725056 289.53734589 C-149.73168018 282.28559508 -148.71470052 275.03404214 -147.69730133 267.78254771 C-146.88221692 261.97221509 -146.06898208 256.16162761 -145.25714523 250.35084039 C-144.76074193 246.80102928 -144.2625694 243.2514682 -143.7638799 239.70197761 C-143.53432342 238.06542572 -143.30551088 236.42876929 -143.07749641 234.79200184 C-142.76777849 232.56942152 -142.4554352 230.34722558 -142.14242554 228.12510681 C-141.9689176 226.88566283 -141.79540966 225.64621885 -141.61664391 224.36921597 C-141.125 221.25 -141.125 221.25 -140.125 217.25 C-160.585 217.25 -181.045 217.25 -202.125 217.25 C-201.155625 209.391875 -200.18625 201.53375 -199.1875 193.4375 C-198.88336182 190.95887451 -198.57922363 188.48024902 -198.26586914 185.92651367 C-198.02254279 183.96530167 -197.77898752 182.00411804 -197.53515625 180.04296875 C-197.41072144 179.0219104 -197.28628662 178.00085205 -197.15808105 176.94885254 C-197.0363855 175.97468384 -196.91468994 175.00051514 -196.78930664 173.99682617 C-196.63275352 172.72774666 -196.63275352 172.72774666 -196.47303772 171.43302917 C-196.125 169.25 -196.125 169.25 -195.125 166.25 C-188.56415649 165.81590222 -182.00283972 165.38956183 -175.44116211 164.96826172 C-173.21546389 164.82448152 -170.98987384 164.67901563 -168.7644043 164.53173828 C-156.5377117 163.72377073 -144.38238488 162.98118132 -132.125 163.25 C-132.01905518 162.23848877 -131.91311035 161.22697754 -131.80395508 160.18481445 C-130.50117729 147.98833116 -128.93618934 135.83354363 -127.25805664 123.68334961 C-126.96184121 121.52544049 -126.67014793 119.36690562 -126.38305664 117.20776367 C-122.47177378 87.8028596 -116.80409762 56.94657056 -96.125 34.25 C-95.24070312 33.27289062 -94.35640625 32.29578125 -93.4453125 31.2890625 C-80.57454328 17.52937997 -64.95555925 9.49362527 -46.875 4.5 C-46.17415283 4.30116211 -45.47330566 4.10232422 -44.7512207 3.89746094 C-30.17020871 0.1314935 -14.96390935 -0.09432134 0 0 Z " fill="#2DB99B" transform="translate(2125.125,2408.75)"/>
<path d="M0 0 C15.90387396 15.51118571 21.66604719 35.23775247 21.95263672 56.8359375 C22.04182869 70.5662761 21.64026739 84.04101109 18.53125 97.46875 C18.2528125 98.7578125 17.974375 100.046875 17.6875 101.375 C13.27236567 119.79676738 4.84943986 135.93078803 -8.46875 149.46875 C-9.22929687 150.2421875 -9.98984375 151.015625 -10.7734375 151.8125 C-23.40287672 163.90363526 -39.90968895 170.70767286 -56.46875 175.59375 C-57.23131104 175.82336426 -57.99387207 176.05297852 -58.77954102 176.28955078 C-75.70875846 181.05772392 -93.2546004 183.12317849 -110.71875 184.71875 C-112.80750176 184.91641124 -114.89620409 185.1145954 -116.98486328 185.31323242 C-124.01171031 185.97582885 -131.04057281 186.61564701 -138.06987 187.2516098 C-140.64805744 187.48498043 -143.22619191 187.71893066 -145.80432129 187.95294189 C-158.95142772 189.14570971 -172.09936457 190.3290636 -185.24803162 191.50450134 C-187.31413333 191.68920512 -189.38022421 191.87403001 -191.44630432 192.05897522 C-197.39902525 192.59169778 -203.35196064 193.12189911 -209.30524826 193.64825249 C-211.14538373 193.81122873 -212.9854551 193.97493056 -214.82545853 194.13939095 C-217.36636738 194.3662821 -219.90750766 194.59037719 -222.44873047 194.8137207 C-223.19230427 194.88068272 -223.93587807 194.94764473 -224.70198441 195.01663589 C-228.30232511 195.32995306 -231.85440213 195.54278081 -235.46875 195.46875 C-233.04374188 231.10346712 -233.04374188 231.10346712 -214.46875 260.46875 C-170.65000786 293.52377577 -89.43751952 275.87024643 -38.64257812 270.73901367 C-37.79944565 270.65448944 -36.95631317 270.56996521 -36.08763123 270.48287964 C-34.52586056 270.32551176 -32.96435945 270.16543265 -31.4032135 270.00198364 C-27.40684437 269.59769519 -23.48518932 269.39110909 -19.46875 269.46875 C-19.03810805 275.03693517 -18.610973 280.60537444 -18.18701172 286.17407227 C-18.0424557 288.06639782 -17.89696047 289.95865188 -17.75048828 291.85083008 C-17.53948866 294.57875369 -17.33192608 297.30692098 -17.125 300.03515625 C-17.05937866 300.87397842 -16.99375732 301.7128006 -16.92614746 302.57704163 C-16.5773984 307.22395915 -16.40307796 311.80877147 -16.46875 316.46875 C-46.67388296 330.86512219 -84.48426459 333.22784442 -117.46875 335.46875 C-118.15481323 335.51574036 -118.84087646 335.56273071 -119.54772949 335.61114502 C-131.85298327 336.43380868 -144.13743062 336.71067645 -156.46875 336.71875 C-157.40729828 336.71942474 -158.34584656 336.72009949 -159.31283569 336.72079468 C-202.03817302 336.67227459 -243.67678848 329.66788985 -275.78125 299.59375 C-301.67716186 272.31745904 -307.95044323 232.90943292 -307.78125 196.78125 C-307.77909485 195.94081146 -307.7769397 195.10037292 -307.77471924 194.23446655 C-307.52344209 132.47911194 -297.1822242 56.63779695 -252.09375 10.78125 C-246.93424436 5.66440313 -241.70318061 1.24826318 -235.46875 -2.53125 C-234.91413086 -2.87607422 -234.35951172 -3.22089844 -233.78808594 -3.57617188 C-176.12745649 -39.14023728 -53.4788619 -45.92890492 0 0 Z M-200.46875 54.46875 C-220.38510512 77.82988224 -227.76200253 113.84376223 -230.46875 143.46875 C-215.75722336 142.19038347 -201.04657787 140.90217594 -186.33685303 139.60324097 C-179.08000678 138.96254675 -171.82295399 138.32437749 -164.56542969 137.69140625 C-157.87124046 137.10744907 -151.17759074 136.51764805 -144.4844532 135.92175484 C-140.89370149 135.60223562 -137.30277321 135.28520152 -133.71124268 134.97454834 C-95.2523259 133.07109724 -95.2523259 133.07109724 -63.0546875 114.41796875 C-50.37362371 98.83212926 -47.18202468 77.01472037 -48.46875 57.46875 C-49.57169125 50.45256073 -52.21827718 44.35168973 -57.46875 39.46875 C-72.80217054 28.41966755 -94.83751012 29.9844383 -112.78417969 30.07763672 C-116.46326769 30.09372602 -120.1412575 30.07769936 -123.8203125 30.05859375 C-152.07957059 30.03281756 -179.91514098 32.91801753 -200.46875 54.46875 Z " fill="#2DB99B" transform="translate(2816.46875,2590.53125)"/>
<path d="M0 0 C-1.36632048 10.01934644 -2.95131381 19.98894591 -4.65942383 29.95483398 C-5.06958514 32.3539423 -5.47331721 34.75408308 -5.87695312 37.15429688 C-6.13763356 38.68235778 -6.39868659 40.21035519 -6.66015625 41.73828125 C-6.77996353 42.45478348 -6.89977081 43.17128571 -7.02320862 43.90950012 C-7.88557666 48.88557666 -7.88557666 48.88557666 -9 50 C-10.41860658 50.10043316 -11.84224837 50.13081765 -13.2644043 50.1328125 C-14.18397415 50.13482666 -15.10354401 50.13684082 -16.05097961 50.13891602 C-17.57842049 50.13202759 -17.57842049 50.13202759 -19.13671875 50.125 C-20.20774338 50.12234131 -21.27876801 50.11968262 -22.38224792 50.11694336 C-34.0903038 50.0507645 -45.78470323 49.62493505 -57.48465633 49.21653366 C-86.34247183 48.21527025 -115.18587161 47.77550736 -144.06084824 47.75323486 C-146.79299132 47.75002293 -149.52509997 47.74292441 -152.25723267 47.73486328 C-156.59441526 47.72306823 -160.93145732 47.72275972 -165.26864624 47.73136139 C-166.85829597 47.73332604 -168.44795326 47.73224784 -170.03759766 47.72768402 C-197.62567468 47.52020113 -197.62567468 47.52020113 -221.125 60.0625 C-227.20232025 69.58363506 -228.52195293 79.93861362 -227 91 C-224.44478918 100.2435046 -217.57570062 106.13487546 -209.453125 110.74609375 C-207.7265464 111.65814361 -205.9915466 112.55436693 -204.25 113.4375 C-203.27828857 113.93773682 -202.30657715 114.43797363 -201.30541992 114.95336914 C-188.32104619 121.51474361 -174.93689785 127.22746409 -161.62001038 133.07174683 C-154.64017478 136.14269295 -147.71938387 139.3305032 -140.8125 142.5625 C-131.26813646 147.02688893 -121.69684724 151.42375752 -112.09851074 155.77059937 C-107.91327401 157.66740785 -103.73127687 159.57134491 -99.54943848 161.47563171 C-96.69664867 162.77448892 -93.8428343 164.07086966 -90.98535156 165.359375 C-75.19010169 172.49009975 -60.20728265 180.66143421 -47 192 C-46.16855469 192.64324219 -45.33710938 193.28648437 -44.48046875 193.94921875 C-31.48453896 204.69388511 -24.95190823 221.66561008 -23 238 C-21.37985715 263.83783796 -25.72137688 295.62771911 -43.1015625 315.95703125 C-43.72804688 316.63121094 -44.35453125 317.30539062 -45 318 C-45.75023438 318.82886719 -46.50046875 319.65773438 -47.2734375 320.51171875 C-73.44614523 348.12929205 -116.42498977 350.9817121 -152.17131042 352.06585312 C-162.23358468 352.30261025 -172.29911581 352.28949161 -182.36352539 352.26074219 C-186.36831542 352.24939717 -190.37283802 352.25611157 -194.37761879 352.26761723 C-222.94245189 352.33718124 -251.33286472 351.07457561 -279.75 348.0625 C-281.43699537 347.88875718 -283.1240074 347.7151761 -284.81103516 347.54174805 C-319.03382428 343.98308786 -319.03382428 343.98308786 -323 342 C-322.35444339 330.98439234 -320.61252495 320.14393747 -318.9375 309.25 C-318.65262803 307.37765993 -318.36811997 305.50526446 -318.08398438 303.6328125 C-317.393515 299.08789228 -316.69813147 294.5437493 -316 290 C-312.60413107 290.14501102 -309.20831299 290.29118523 -305.8125 290.4375 C-304.43094727 290.49647461 -304.43094727 290.49647461 -303.02148438 290.55664062 C-298.10901845 290.76880693 -293.19728896 290.98799612 -288.28662109 291.23852539 C-275.5266351 291.88347729 -262.7733222 292.29887503 -250 292.5625 C-249.01331329 292.58334656 -248.02662659 292.60419312 -247.01004028 292.62567139 C-170.69939351 299.10174935 -170.69939351 299.10174935 -102.06640625 277.41015625 C-94.970485 269.88954146 -92.63270593 259.36640847 -92.78515625 249.3046875 C-93.2595391 244.21585333 -94.92248336 240.33104997 -98.125 236.375 C-110.47123628 226.17593525 -125.56790719 220.10905187 -140.08203125 213.64453125 C-147.11421163 210.51063795 -154.11854963 207.31584462 -161.125 204.125 C-170.65167306 199.78738365 -180.18372713 195.46211613 -189.7265625 191.16015625 C-199.43586422 186.78303232 -209.1390591 182.39265743 -218.83422852 177.98431396 C-220.76061674 177.10879647 -222.68786502 176.23517191 -224.61523438 175.36181641 C-242.340149 167.29815743 -258.60183858 158.22791898 -273 145 C-273.67160156 144.42121094 -274.34320312 143.84242188 -275.03515625 143.24609375 C-289.98136219 129.6617289 -295.99648883 109.30296534 -297.12890625 89.77734375 C-297.75426932 65.47156577 -291.74471719 39.02901664 -275.38671875 20.44921875 C-216.97752796 -39.48950895 -73.83178225 -12.784382 0 0 Z " fill="#2DB99B" transform="translate(3218,2574)"/>
<path d="M0 0 C1.36067544 0.00502513 2.72135267 0.00958624 4.08203125 0.01367188 C7.38806725 0.02539541 10.69401001 0.04180573 14 0.0625 C10.82397554 14.19532248 7.06725059 28.15377943 3.25 42.125 C2.64166169 44.35995382 2.03358701 46.59497942 1.42578125 48.83007812 C-0.04644747 54.24171487 -1.52190334 59.65246322 -3 65.0625 C-3.80928955 65.0718457 -4.6185791 65.08119141 -5.45239258 65.09082031 C-62.48524784 65.91603504 -104.36659707 94.15967682 -148.72265625 127.87890625 C-149.28218994 128.30397461 -149.84172363 128.72904297 -150.41821289 129.16699219 C-151.88746983 130.28906092 -153.35026356 131.41957889 -154.8125 132.55078125 C-157 134.0625 -157 134.0625 -159 134.0625 C-159.14986359 135.21700653 -159.29972717 136.37151306 -159.45413208 137.56100464 C-164.967476 179.95393006 -170.82094189 222.29907554 -176.69143319 264.64371657 C-177.75812088 272.3397982 -178.8213605 280.03635357 -179.88393009 287.73300469 C-180.92151962 295.24771793 -181.96130303 302.7621254 -183.00284588 310.27629173 C-183.61944368 314.72493044 -184.2351857 319.17368325 -184.84872055 323.62274551 C-185.41918403 327.75888004 -185.99237166 331.89462775 -186.56771278 336.03008652 C-186.77793448 337.54453625 -186.9871734 339.05912278 -187.19536781 340.57385254 C-187.47883001 342.63507159 -187.76579854 344.69577247 -188.05368042 346.75637817 C-188.21327681 347.90891649 -188.37287319 349.06145481 -188.53730583 350.24891853 C-189 353.0625 -189 353.0625 -190 356.0625 C-213.1 356.0625 -236.2 356.0625 -260 356.0625 C-250.1139436 285.32553247 -240.168784 214.5969842 -230.18897296 143.87319157 C-228.63790536 132.88114731 -227.08771004 121.88898022 -225.5378718 110.89676256 C-223.91642839 99.3967408 -222.29441629 87.8967994 -220.67182428 76.39693964 C-219.77237511 70.02219727 -218.87314066 63.64742482 -217.97447777 57.27257156 C-217.14187091 51.36647176 -216.30854408 45.460474 -215.47464943 39.55455589 C-215.17002122 37.39620169 -214.86564993 35.2378112 -214.56155396 33.07938194 C-214.14733742 30.13962481 -213.73219593 27.19999975 -213.31681824 24.26040649 C-213.19698851 23.40837698 -213.07715879 22.55634746 -212.95369786 21.67849886 C-212.84190515 20.88872413 -212.73011243 20.09894939 -212.61493206 19.28524208 C-212.51961687 18.60962687 -212.42430168 17.93401166 -212.32609814 17.23792326 C-211.91683032 14.5076693 -211.45386588 11.7856953 -211 9.0625 C-193.18 9.0625 -175.36 9.0625 -157 9.0625 C-157.81276387 35.07094386 -158.8905397 61.06527752 -160 87.0625 C-159.40574219 86.46300537 -158.81148437 85.86351074 -158.19921875 85.24584961 C-155.95733893 82.98675473 -153.71308469 80.73005127 -151.46728516 78.47485352 C-150.50248541 77.50507727 -149.53859105 76.5343993 -148.57568359 75.56274414 C-142.89611345 69.83293847 -137.16599785 64.26646716 -131 59.0625 C-130.06510742 58.25969604 -130.06510742 58.25969604 -129.11132812 57.44067383 C-113.51754318 44.10335904 -96.9032653 32.11386472 -79 22.0625 C-78.33967773 21.68786621 -77.67935547 21.31323242 -76.99902344 20.92724609 C-52.77432398 7.28298993 -27.89192271 -0.17756856 0 0 Z " fill="#2DB99B" transform="translate(2465,2562.9375)"/>
</svg>
