<svg xmlns="http://www.w3.org/2000/svg" viewBox="0 0 256 246" fill="none">
  <path d="M10.7 190.4c-2.6 4.5-5.6 9.8-8 14.2a11.2 11.2 0 0 0 4.5 15.2l55.3 28.8a11.2 11.2 0 0 0 15-4c1.8-3.2 4.1-7.2 6.7-11.6 18.5-31.7 37.3-27.7 72-11.3l54.8 28.5a11.2 11.2 0 0 0 15.1-4.7l27.8-55.5a11.2 11.2 0 0 0-4.8-15c-8-4-24-12.1-43.5-22.3C130.3 116.5 48.6 125 10.7 190.4z" fill="#2684FF"/>
  <path d="M245.3 55.6c-2.6-4.5-5.6-9.8-8-14.2a11.2 11.2 0 0 0-15.2-4.5l-55.3 28.8a11.2 11.2 0 0 0-4 15c1.8 3.2 4.1 7.2 6.7 11.6 18.5 31.7 37.3 27.7 72 11.3l54.8-28.5a11.2 11.2 0 0 0 4.7-15.1l-27.8-55.5a11.2 11.2 0 0 0-15 4.8c-8 4-24 12.1-43.5 22.3C130.3 129.5 48.6 121 10.7 55.6" fill="url(#a)"/>
  <defs>
    <linearGradient id="a" x1="234.3" y1="36.8" x2="99.6" y2="113.5" gradientUnits="userSpaceOnUse">
      <stop stop-color="#2684FF"/>
      <stop offset="1" stop-color="#0052CC"/>
    </linearGradient>
  </defs>
</svg>
