<?xml version="1.0" encoding="UTF-8"?>
<svg version="1.1" xmlns="http://www.w3.org/2000/svg" width="110" height="110" viewBox="143 0 315 315">
<path d="M0 0 C0.9873392 -0.00706559 1.97467841 -0.01413118 2.99193698 -0.02141088 C4.60777636 -0.01778826 4.60777636 -0.01778826 6.25625896 -0.01409245 C7.40644833 -0.01932912 8.55663769 -0.0245658 9.74168128 -0.02996117 C12.93022245 -0.04236659 16.11862698 -0.04580475 19.30718768 -0.04536426 C22.74765988 -0.04701375 26.18809204 -0.06008268 29.6285429 -0.07155704 C37.14920471 -0.09439516 44.66983828 -0.10232624 52.19053006 -0.10738349 C56.88742858 -0.11064162 61.58431892 -0.11716477 66.28121281 -0.12438488 C79.2887629 -0.14394856 92.2963054 -0.16035436 105.30387115 -0.16326141 C106.13604943 -0.16344898 106.9682277 -0.16363655 107.82562349 -0.16382981 C109.51260356 -0.16419605 111.19958363 -0.16455975 112.8865637 -0.16492092 C113.72396765 -0.16510373 114.56137159 -0.16528654 115.42415142 -0.16547489 C116.68179248 -0.16574572 116.68179248 -0.16574572 117.96484043 -0.16602201 C131.55182778 -0.16956403 145.13865668 -0.19658914 158.72558907 -0.23397278 C172.67918762 -0.27205772 186.63270753 -0.2914189 200.5863592 -0.29172093 C208.41923354 -0.29230542 216.2519188 -0.30079248 224.08474445 -0.32971859 C230.754053 -0.35423493 237.4231035 -0.36151373 244.09244493 -0.34647106 C247.49408223 -0.33930325 250.89521 -0.34015298 254.29679012 -0.36288166 C257.98790869 -0.38326582 261.67770662 -0.37283299 265.36880779 -0.35466862 C266.43934188 -0.36786858 267.50987597 -0.38106855 268.61285049 -0.39466852 C276.50735318 -0.3059104 281.23425456 1.82598495 287.02644634 7.10381222 C287.47246197 7.65037472 287.91847759 8.19693722 288.37800884 8.76006222 C289.0702354 9.57990597 289.0702354 9.57990597 289.77644634 10.41631222 C292.30562343 14.21813256 293.25273682 17.70581791 293.26027775 22.241436 C293.26672664 23.22529181 293.27317553 24.20914762 293.27981985 25.22281724 C293.27517404 26.8328202 293.27517404 26.8328202 293.27043438 28.47534847 C293.27496549 29.62145428 293.27949661 30.76756009 293.28416502 31.94839638 C293.29463397 35.12554048 293.29613508 38.3025422 293.29377627 41.47969806 C293.293368 44.90789623 293.30440829 48.33606068 293.31389141 51.76424313 C293.33050017 58.47928691 293.3360009 65.19429558 293.33711617 71.90935818 C293.33806672 77.36827193 293.34217739 82.82717409 293.34851742 88.28608418 C293.36612967 103.76586949 293.37535634 119.24562707 293.37385647 134.72542248 C293.37377656 135.55983943 293.37369665 136.39425639 293.37361431 137.2539587 C293.37353255 138.08939546 293.37345079 138.92483222 293.37336655 139.78558525 C293.3725537 153.32405033 293.39169103 166.86240414 293.41989104 180.40083704 C293.44862354 194.30471448 293.46243113 208.20853765 293.46070349 222.11244553 C293.46003971 229.91734274 293.46552697 237.7221233 293.48705959 245.52699375 C293.50527625 252.17249046 293.50961484 258.81781765 293.49604075 265.46332852 C293.48951323 268.85281802 293.49156122 272.24171714 293.50674725 275.63121891 C293.52215806 279.30904533 293.51291767 282.98601732 293.49748516 286.66382504 C293.50777229 287.73046818 293.51805941 288.79711132 293.52865827 289.89607698 C293.45920406 297.3845905 292.02549822 302.81093915 287.03816509 308.50224972 C286.38718853 309.04107784 285.73621197 309.57990597 285.06550884 310.13506222 C284.4171104 310.68935909 283.76871197 311.24365597 283.10066509 311.81474972 C279.21080181 314.49491623 275.70417536 315.50934646 271.00601768 315.52012444 C269.52500888 315.53072282 269.52500888 315.53072282 268.0140807 315.54153532 C266.93685445 315.53912023 265.85962819 315.53670515 264.74975872 315.53421688 C263.59956936 315.53945356 262.44937999 315.54469024 261.26433641 315.5500856 C258.07579523 315.56249103 254.8873907 315.56592918 251.69883001 315.5654887 C248.25835781 315.56713819 244.81792564 315.58020711 241.37747478 315.59168148 C233.85681298 315.61451959 226.33617941 315.62245067 218.81548762 315.62750793 C214.1185891 315.63076606 209.42169877 315.6372892 204.72480488 315.64450932 C191.71725478 315.66407299 178.70971229 315.68047879 165.70214653 315.68338585 C164.86996826 315.68357342 164.03778999 315.68376099 163.18039419 315.68395424 C161.49341412 315.68432049 159.80643406 315.68468419 158.11945399 315.68504535 C156.86334807 315.68531957 156.86334807 315.68531957 155.58186626 315.68559933 C154.3242252 315.68587015 154.3242252 315.68587015 153.04117725 315.68614645 C139.4541899 315.68968847 125.867361 315.71671358 112.28042861 315.75409722 C98.32683007 315.79218216 84.37331016 315.81154333 70.41965848 315.81184536 C62.58678415 315.81242986 54.75409888 315.82091691 46.92127323 315.84984303 C40.25196468 315.87435937 33.58291418 315.88163817 26.91357275 315.8665955 C23.51193546 315.85942768 20.11080768 315.86027742 16.70922756 315.8830061 C13.01810899 315.90339025 9.32831106 315.89295742 5.63720989 315.87479305 C4.5666758 315.88799302 3.49614171 315.90119299 2.3931672 315.91479295 C-5.5013355 315.82603483 -10.22823687 313.69413948 -16.02042866 308.41631222 C-16.46644428 307.86974972 -16.91245991 307.32318722 -17.37199116 306.76006222 C-17.83347553 306.21349972 -18.29495991 305.66693722 -18.77042866 305.10381222 C-21.29960575 301.30199188 -22.24671913 297.81430652 -22.25426006 293.27868843 C-22.26070896 292.29483262 -22.26715785 291.31097681 -22.27380216 290.29730719 C-22.27070496 289.22397189 -22.26760775 288.15063658 -22.26441669 287.04477596 C-22.26894781 285.89867015 -22.27347892 284.75256434 -22.27814734 283.57172805 C-22.28861629 280.39458396 -22.29011739 277.21758223 -22.28775859 274.04042637 C-22.28735031 270.6122282 -22.29839061 267.18406375 -22.30787373 263.75588131 C-22.32448249 257.04083753 -22.32998322 250.32582886 -22.33109848 243.61076625 C-22.33204904 238.15185251 -22.3361597 232.69295034 -22.34249973 227.23404026 C-22.36011198 211.75425495 -22.36933866 196.27449736 -22.36783879 180.79470196 C-22.36775887 179.960285 -22.36767896 179.12586805 -22.36759663 178.26616573 C-22.36751486 177.43072897 -22.3674331 176.59529221 -22.36734886 175.73453919 C-22.36653602 162.19607411 -22.38567335 148.65772029 -22.41387336 135.11928739 C-22.44260586 121.21540996 -22.45641345 107.31158678 -22.45468581 93.4076789 C-22.45402202 85.6027817 -22.45950928 77.79800114 -22.48104191 69.99313068 C-22.49925857 63.34763398 -22.50359716 56.70230679 -22.49002306 50.05679592 C-22.48349555 46.66730641 -22.48554354 43.2784073 -22.50072956 39.88890553 C-22.51614037 36.2110791 -22.50689998 32.53410712 -22.49146748 28.8562994 C-22.5017546 27.78965626 -22.51204173 26.72301312 -22.52264059 25.62404746 C-22.45318637 18.13553394 -21.01948053 12.70918528 -16.03214741 7.01787472 C-15.38117085 6.47904659 -14.73019428 5.94021847 -14.05949116 5.38506222 C-13.41109272 4.83076534 -12.76269428 4.27646847 -12.09464741 3.70537472 C-8.20478412 1.02520821 -4.69815767 0.01077798 0 0 Z " fill="#4CB748" transform="translate(164.99699115753174,-0.26006221771240234)"/>
<path d="M0 0 C3.96 0 7.92 0 12 0 C10.70628442 12.18816255 8.50003563 23.99982899 6 36 C15.57 36 25.14 36 35 36 C35.37125 32.3803125 35.37125 32.3803125 35.75 28.6875 C36.82257273 18.97850229 38.84760704 9.51859216 41 0 C45.29 0 49.58 0 54 0 C53.5322128 4.98973013 52.91584503 9.63696802 51.60546875 14.484375 C50.57381396 18.77073426 49.83195374 23.11493656 49.05322266 27.45336914 C48.51989475 30.38949072 47.94528856 33.16413433 47 36 C51.95 36 56.9 36 62 36 C62 39.63 62 43.26 62 47 C56.39 47 50.78 47 45 47 C44.81824219 48.36511719 44.63648438 49.73023438 44.44921875 51.13671875 C43.07269377 61.2450836 41.50435884 71.10181981 39 81 C44.61 81 50.22 81 56 81 C56 84.96 56 88.92 56 93 C49.4 93 42.8 93 36 93 C35.7525 95.59875 35.505 98.1975 35.25 100.875 C34.26030636 110.43789263 32.2718868 119.66982411 30 129 C26.04 129 22.08 129 18 129 C17.7656108 122.67149167 18.60576078 117.15916666 20 111 C20.34181443 109.4532726 20.68289716 107.90638341 21.0234375 106.359375 C22.00490554 101.90376051 23.00321151 97.45232192 24 93 C14.43 93 4.86 93 -5 93 C-5.433125 96.155625 -5.86625 99.31125 -6.3125 102.5625 C-7.55920749 111.46040561 -9.13578873 120.21157545 -11 129 C-15.29 129 -19.58 129 -24 129 C-22 117 -20 105 -18 93 C-22.95 93 -27.9 93 -33 93 C-33 89.04 -33 85.08 -33 81 C-27.06 81 -21.12 81 -15 81 C-14.83177734 79.17662109 -14.83177734 79.17662109 -14.66015625 77.31640625 C-13.9710782 71.11470384 -12.69555894 65.04454803 -11.4375 58.9375 C-11.20353516 57.78572266 -10.96957031 56.63394531 -10.72851562 55.44726562 C-10.15587138 52.63079088 -9.57842637 49.81529294 -9 47 C-14.61 47 -20.22 47 -26 47 C-26 43.37 -26 39.74 -26 36 C-19.4 36 -12.8 36 -6 36 C-5.896875 34.123125 -5.79375 32.24625 -5.6875 30.3125 C-5.23717493 24.393942 -4.19332998 18.85437373 -2.765625 13.1015625 C-1.69408819 8.76074502 -0.85153204 4.38866511 0 0 Z " fill="#F9FCF9" transform="translate(363,81)"/>
<path d="M0 0 C3.7803993 3.52146784 7.24705625 7.1940549 10.52734375 11.18359375 C12.823002 13.72282316 14.53954973 14.75371911 17.9375 15.1875 C21.00139723 15.04750385 21.00139723 15.04750385 23.14453125 13.3671875 C25.88112856 9.59932509 25.6717732 6.11387772 25.75 1.5625 C25.77964844 0.72203125 25.80929687 -0.1184375 25.83984375 -0.984375 C25.91031636 -3.0515715 25.95744939 -5.11954033 26 -7.1875 C31.28 -7.1875 36.56 -7.1875 42 -7.1875 C42.10890711 -4.18650412 42.18773555 -1.18953622 42.25 1.8125 C42.28351563 2.65167969 42.31703125 3.49085938 42.3515625 4.35546875 C42.46844641 11.89448079 40.50727776 16.99181252 35.5 22.625 C28.08469251 29.11339405 21.74136514 29.43727342 12 28.8125 C2.85362016 27.61162639 -3.7645003 18.86989766 -9.18359375 12.07421875 C-11.29055491 9.45071227 -12.91997817 8.17343988 -16 6.8125 C-20.6276811 6.21132371 -20.6276811 6.21132371 -24.67895508 8.0715332 C-26.29300662 10.19864493 -26.4177836 11.39399757 -26.51171875 14.04296875 C-26.54716797 14.84541016 -26.58261719 15.64785156 -26.61914062 16.47460938 C-26.65297852 17.72467773 -26.65297852 17.72467773 -26.6875 19 C-26.72166016 19.84498047 -26.75582031 20.68996094 -26.79101562 21.56054688 C-26.87341471 23.64406649 -26.93838645 25.72826216 -27 27.8125 C-31.95 27.8125 -36.9 27.8125 -42 27.8125 C-42.13592625 24.47777608 -42.23455198 21.14867533 -42.3125 17.8125 C-42.35439453 16.87792969 -42.39628906 15.94335938 -42.43945312 14.98046875 C-42.55596324 8.31609039 -41.38876459 3.91812132 -37 -1.1875 C-26.2331679 -10.99210763 -10.43783393 -9.09000552 0 0 Z " fill="#F9FCF9" transform="translate(276,136.1875)"/>
<path d="M0 0 C1.20970459 0.00523682 2.41940918 0.01047363 3.66577148 0.01586914 C4.97094727 0.0190918 6.27612305 0.02231445 7.62084961 0.02563477 C9.00952213 0.03399138 10.39819401 0.04245634 11.78686523 0.05102539 C13.17944179 0.05603873 14.57202005 0.06060193 15.96459961 0.06469727 C19.38456394 0.07653105 22.80444367 0.09301659 26.22436523 0.11352539 C24.2031614 13.79384345 24.2031614 13.79384345 22.72436523 19.92602539 C22.48717773 20.9224707 22.24999023 21.91891602 22.00561523 22.94555664 C21.08705344 26.67032473 20.15481905 30.39171014 19.22436523 34.11352539 C9.98436523 34.11352539 0.74436523 34.11352539 -8.77563477 34.11352539 C-8.77563477 26.27612702 -8.77563477 26.27612702 -7.96313477 22.67602539 C-7.26202803 19.44091857 -6.60005307 16.20644322 -6.01000977 12.94946289 C-5.87828369 12.22428467 -5.74655762 11.49910645 -5.61083984 10.75195312 C-5.34778353 9.29618107 -5.08716385 7.83996641 -4.82910156 6.38330078 C-3.6899953 0.15092337 -3.6899953 0.15092337 0 0 Z " fill="#50B84D" transform="translate(369.775634765625,127.886474609375)"/>
<path d="M0 0 C3.5318806 1.51452856 6.12190005 3.56310918 8.16015625 6.8984375 C10.06049758 11.65371023 9.48917938 16.55963849 7.875 21.3125 C5.45923101 24.77510222 3.87856292 26.23083095 0 28 C-4.97348174 28.80128317 -9.784651 29.23577291 -14.296875 26.71875 C-17.57616844 23.95438694 -19.78345314 21.80638459 -20.30859375 17.42578125 C-20.69940934 7.98699266 -20.69940934 7.98699266 -17.125 3.8125 C-12.18879857 -1.08793185 -6.681583 -0.76799805 0 0 Z " fill="#FAFDFA" transform="translate(200,110)"/>
<path d="M0 0 C4.4035241 1.95972438 7.20793438 4.49471354 9 9 C9.79356609 14.66832924 9.13589326 19.12194381 6 24 C3.95943261 26.4656856 3.13026076 26.95657975 0 28 C-11.53207237 29.06496711 -11.53207237 29.06496711 -16.1875 25.6875 C-20.32422103 19.55374123 -20.96655917 15.39076049 -20 8 C-16.07698714 -0.20550498 -8.16130963 -1.14120008 0 0 Z " fill="#FBFDFA" transform="translate(200,183)"/>
<path d="M0 0 C9.57 0 19.14 0 29 0 C28.67 0.99 28.34 1.98 28 3 C28 2.34 28 1.68 28 1 C23.91542868 1.02279137 19.83365935 1.10008907 15.75 1.1875 C14.01169922 1.19620117 14.01169922 1.19620117 12.23828125 1.20507812 C5.6020559 1.17560592 5.6020559 1.17560592 0.203125 4.55078125 C-0.19390625 5.35902344 -0.5909375 6.16726562 -1 7 C-0.67 4.69 -0.34 2.38 0 0 Z " fill="#76C873" transform="translate(358,174)"/>
</svg>
