<svg xmlns="http://www.w3.org/2000/svg" viewBox="0 0 512 512">
  <path fill="#1496FF" d="M314.7 4.9c-37.6 21.7-60.2 61.6-60.2 106.4 0 67.7 55.1 122.5 122.8 122.5 17.2 0 33.5-3.5 48.3-9.8 7.9-3.4 13.3-5.6 17.5-5.6 8.4 0 13.4 7.5 13.4 14.3 0 6-3.9 11.5-11.3 15.2-25.3 12.5-54 19.6-84.3 19.6-105 0-190.2-85-190.2-189.9 0-30.3 7.1-58.9 19.7-84.3 3.6-7.3 9.2-11.3 15.1-11.3 6.8 0 14.3 5 14.3 13.5 0 4.2-2.2 9.6-5.1 9.4z"/>
  <path fill="#73BE28" d="M4.9 197.3C26.7 159.7 66.6 137 111.3 137c67.7 0 122.5 55.1 122.5 122.8 0 17.2-3.5 33.5-9.8 48.3-3.4 7.9-5.6 13.3-5.6 17.5 0 8.4 7.5 13.4 14.3 13.4 6 0 11.5-3.9 15.2-11.3 12.5-25.3 19.6-54 19.6-84.3C267.5 138.3 182.5 53.2 77.6 53.2c-30.3 0-58.9 7.1-84.3 19.7C-14 76.5-18 82.1-18 88c0 6.8 5 14.3 13.5 14.3 4.2 0 9.6-2.2 9.4-5.1v100.1z"/>
  <path fill="#B4DC00" d="M197.3 507.1c-37.6-21.7-60.2-61.6-60.2-106.4 0-67.7 55.1-122.5 122.8-122.5 17.2 0 33.5 3.5 48.3 9.8 7.9 3.4 13.3 5.6 17.5 5.6 8.4 0 13.4-7.5 13.4-14.3 0-6-3.9-11.5-11.3-15.2-25.3-12.5-54-19.6-84.3-19.6-105 0-190.2 85-190.2 189.9 0 30.3 7.1 58.9 19.7 84.3 3.6 7.3 9.2 11.3 15.1 11.3 6.8 0 14.3-5 14.3-13.5 0-4.2-2.2-9.6-5.1-9.4z"/>
  <path fill="#6F2DA8" d="M507.1 314.7c-21.7 37.6-61.6 60.2-106.4 60.2-67.7 0-122.5-55.1-122.5-122.8 0-17.2 3.5-33.5 9.8-48.3 3.4-7.9 5.6-13.3 5.6-17.5 0-8.4-7.5-13.4-14.3-13.4-6 0-11.5 3.9-15.2 11.3-12.5 25.3-19.6 54-19.6 84.3 0 105 85 190.2 189.9 190.2 30.3 0 58.9-7.1 84.3-19.7 7.3-3.6 11.3-9.2 11.3-15.1 0-6.8-5-14.3-13.5-14.3-4.2 0-9.6 2.2-9.4 5.1z"/>
</svg>
