<?xml version="1.0" encoding="UTF-8"?>
<svg version="1.1" xmlns="http://www.w3.org/2000/svg" width="960" height="988">
<path d="M0 0 C0.55321678 0.66835121 1.10643356 1.33670242 1.67641449 2.0253067 C5.03600714 5.9821004 8.56521238 9.67511199 12.25002289 13.32767487 C12.89329025 13.96948196 13.53655762 14.61128906 14.19931793 15.27254486 C15.58186323 16.65131539 16.96556137 18.02893075 18.35031891 19.40547943 C20.54794813 21.59022006 22.74232886 23.77817851 24.93593597 25.96695709 C29.5931569 30.61280989 34.25429946 35.2547156 38.91603851 39.89603424 C44.3226343 45.27894682 49.72756485 50.66350981 55.12827301 56.05233002 C57.27922482 58.19684933 59.43319023 60.33830908 61.58730316 62.4796524 C62.91903635 63.80774955 64.25062737 65.13598928 65.58205414 66.46439362 C66.17238937 67.04956253 66.76272461 67.63473145 67.37094879 68.23763275 C70.18072505 71.04705735 72.87310095 73.898118 75.44834137 76.92436981 C81.19700605 83.56297666 87.52946971 89.66597863 93.73317719 95.87430573 C95.18601967 97.33178288 96.63866642 98.78945517 98.09113312 100.24730682 C102.01808957 104.1873153 105.94831716 108.12404414 109.87957549 112.05975986 C112.33595296 114.51907602 114.79174564 116.97897469 117.24736214 119.43905067 C124.93266633 127.13800261 132.61995005 134.83496974 140.31014556 142.52903599 C149.18587543 151.40925852 158.05500578 160.29600405 166.91852397 169.18841499 C173.7762341 176.06770368 180.63966127 182.94125371 187.50749952 189.81043106 C191.60798602 193.91196712 195.70599049 198.01591302 199.79807854 202.1258297 C203.64025577 205.98442426 207.48945326 209.83587152 211.34424782 213.68185997 C212.75941783 215.09625655 214.17201163 216.51323602 215.5818634 217.93293381 C217.50223292 219.86592947 219.43155352 221.78951748 221.36347198 223.71096039 C221.92290613 224.27845094 222.48234027 224.84594149 223.05872697 225.43062872 C225.78634509 228.12362641 227.65622826 229.67692297 231.41603851 230.39603424 C232.56241823 234.51592097 232.56071333 238.49117544 232.55584621 242.74033546 C232.55879764 243.59387519 232.56174906 244.44741491 232.56478992 245.32681948 C232.57349887 248.20643726 232.57506321 251.08601495 232.57666779 253.96564484 C232.58139758 256.04341855 232.58654833 258.12119133 232.59208542 260.19896305 C232.60600975 265.92436884 232.61358032 271.64976826 232.62005842 277.37518668 C232.62642468 282.28242607 232.63649556 287.18965498 232.64661907 292.09688784 C232.67996521 308.2689683 232.70151213 324.44105243 232.71981892 340.61315519 C232.72458796 344.82489833 232.72959646 349.03664116 232.73462415 353.248384 C232.76567806 379.40377184 232.79228967 405.55916225 232.80904293 431.71456337 C232.81298003 437.77489095 232.8169919 443.83521847 232.82106781 449.89554596 C232.82182031 451.02490375 232.82182031 451.02490375 232.82258802 452.17707685 C232.83899174 476.5664942 232.87742735 500.95581096 232.92835491 525.34517887 C232.98063803 550.42958498 233.01336661 575.51393756 233.02062046 600.59839925 C233.02164898 604.14556707 233.02288528 607.69273479 233.02424049 611.2399025 C233.02462755 612.28701429 233.02462755 612.28701429 233.02502243 613.35527985 C233.02970764 624.56535357 233.05460236 635.77529432 233.08699192 646.98531836 C233.11911403 658.26790183 233.12847186 669.55033899 233.11655997 680.83297659 C233.1107443 686.93954712 233.11452085 693.04570264 233.14472961 699.15221024 C233.17220742 704.75260264 233.17150625 710.35228747 233.14921916 715.95269643 C233.14601196 717.96904505 233.15277156 719.98544204 233.17101639 722.00171067 C233.35579619 743.75686093 227.61582896 762.70340219 212.27150726 778.79056549 C192.8526528 796.50927401 168.20291508 798.57087205 143.06005096 798.50955963 C141.4168778 798.50927921 139.77370452 798.50944339 138.13053143 798.51001072 C133.63896584 798.51030486 129.14742699 798.50439158 124.65586758 798.49744081 C119.80224955 798.49104447 114.94863044 798.49049589 110.09500885 798.48926544 C101.68981628 798.48638318 93.28463254 798.47995082 84.87944412 798.47119904 C72.70855774 798.45862035 60.53767461 798.45256239 48.3667828 798.44826567 C28.59413629 798.44120263 8.82149388 798.43040532 -10.95114899 798.41654205 C-12.13372449 798.41571424 -13.31629999 798.41488643 -14.53471111 798.41403353 C-24.12597712 798.40729137 -33.717243 798.40036801 -43.30850887 798.39343071 C-51.683855 798.38737933 -60.05920117 798.38139827 -68.43454742 798.37552643 C-70.20351156 798.37428424 -70.20351156 798.37428424 -72.00821234 798.37301695 C-91.70136758 798.35931088 -111.39452289 798.34956228 -131.08768165 798.34261608 C-143.22091072 798.33814552 -155.35412752 798.33012749 -167.48735087 798.31747127 C-175.80851016 798.3090179 -184.12966664 798.30414842 -192.45082994 798.30204606 C-197.24480028 798.30070689 -202.03875474 798.29773666 -206.8327198 798.29028702 C-211.23224859 798.28347656 -215.63175457 798.28141456 -220.03128813 798.28292263 C-221.61200631 798.28265399 -223.19272541 798.28072037 -224.77343883 798.27682984 C-229.01005923 798.26689742 -233.2436315 798.29127534 -237.47961595 798.36715391 C-238.92949397 798.38705224 -240.37958987 798.39391879 -241.8295993 798.39006344 C-253.55476608 798.27314087 -253.55476608 798.27314087 -263.36436409 804.12978429 C-263.99672243 804.81147657 -264.62908078 805.49316886 -265.2806015 806.19551849 C-266.01085983 806.91492829 -266.74111817 807.63433809 -267.49350554 808.37554818 C-269.90309986 810.76830766 -272.25121451 813.21313515 -274.6032486 815.66239166 C-276.32987089 817.40008925 -278.06007623 819.1342328 -279.79355621 820.86508942 C-283.50489637 824.58630703 -287.1909612 828.33070583 -290.85539818 832.09805107 C-296.16211724 837.55333675 -301.51516697 842.96123713 -306.88053531 848.35877756 C-315.59779377 857.13044185 -324.28024334 865.93570999 -332.93967438 874.76444244 C-341.32648315 883.31501738 -349.72426622 891.8544912 -358.14084625 900.37577057 C-358.91871308 901.16333518 -358.91871308 901.16333518 -359.71229439 901.96681019 C-365.38102244 907.7055422 -371.05305675 913.44099624 -376.72770023 919.17387867 C-377.2272043 919.67853406 -377.72670836 920.18318945 -378.24134891 920.70313743 C-382.3348489 924.83880999 -382.3348489 924.83880999 -384.23415656 926.75702742 C-390.06616975 932.64742246 -395.88798635 938.54749427 -401.69169921 944.46578196 C-405.76423036 948.6184876 -409.84596071 952.76204676 -413.93081665 956.90262604 C-415.5993288 958.59771925 -417.2642585 960.29634762 -418.9252491 961.99881172 C-421.19953998 964.32918172 -423.48627607 966.64664333 -425.77620697 968.96163177 C-426.42418037 969.63217045 -427.07215377 970.30270913 -427.73976272 970.99356717 C-435.84115158 979.11958406 -444.78085221 984.33861038 -456.39646149 984.70853424 C-466.08088063 984.50325354 -474.18095711 981.74342503 -481.58396149 975.39603424 C-490.4145524 965.8407956 -491.71789284 957.15699345 -491.78928375 944.51761627 C-491.79918335 943.4300705 -491.80908295 942.34252472 -491.81928253 941.22202301 C-491.85091054 937.6159863 -491.87571606 934.00993738 -491.90036774 930.40384674 C-491.92099122 927.86265517 -491.94198887 925.32146662 -491.96334076 922.78028107 C-492.00733633 917.42874636 -492.04834005 912.07720158 -492.08664703 906.72562408 C-492.13486921 899.99115386 -492.18878481 893.25674707 -492.24461555 886.52233505 C-492.49008387 856.81323941 -492.66030482 827.10617537 -492.58396149 797.39603424 C-493.79538063 797.44000084 -493.79538063 797.44000084 -495.03127289 797.48485565 C-523.84194812 798.48761011 -552.64602457 798.58377883 -581.47190094 798.58133698 C-588.10597402 798.58123457 -594.73994199 798.59501352 -601.37399006 798.61210918 C-606.57938348 798.62332219 -611.78475192 798.62525354 -616.99015617 798.62472725 C-619.43485318 798.6258885 -621.87955126 798.63020246 -624.32423592 798.63805962 C-686.5739135 798.81985504 -686.5739135 798.81985504 -707.48484039 778.87528229 C-718.15281226 767.99203745 -727.69632341 751.06625731 -727.71391332 735.52541089 C-727.71744174 734.53863054 -727.72097016 733.55185018 -727.7246055 732.5351674 C-727.72340772 731.45127238 -727.72220995 730.36737737 -727.72097588 729.25063705 C-727.7236277 728.09427925 -727.72627953 726.93792144 -727.72901171 725.74652249 C-727.73537416 722.52195057 -727.73724099 719.29741144 -727.73723449 716.07283436 C-727.73830323 712.57015789 -727.74509307 709.06749178 -727.75114119 705.564821 C-727.76222074 698.61078715 -727.76786642 691.65675835 -727.77185007 684.70271723 C-727.77685747 676.37557337 -727.78758483 668.04843932 -727.7983318 659.72130125 C-727.82396981 639.59051857 -727.83899974 619.45973206 -727.85184227 599.32893773 C-727.85609668 592.66065813 -727.86066241 585.9923788 -727.86542559 579.32409954 C-727.89068775 543.86866056 -727.91273594 508.41322112 -727.92515373 472.95777512 C-727.92807507 464.74171955 -727.93104258 456.52566399 -727.93405914 448.30960846 C-727.93443005 447.2888649 -727.93480096 446.26812135 -727.93518311 445.21644617 C-727.94733507 412.1312493 -727.97827255 379.04610568 -728.01998067 345.96093381 C-728.06278097 311.94731481 -728.08939644 277.93372393 -728.09462845 243.92007728 C-728.09536888 239.11438173 -728.09627956 234.30868622 -728.09728622 229.50299072 C-728.09747684 228.55719741 -728.09766745 227.6114041 -728.09786384 226.63695039 C-728.10137551 211.42451037 -728.12166477 196.21213706 -728.14808286 180.99972153 C-728.17424743 165.70236059 -728.1819465 150.40507662 -728.17098157 135.1076965 C-728.16501172 126.02383947 -728.17287969 116.94024385 -728.20081241 107.85642646 C-728.21810838 101.78111129 -728.21707832 95.70597367 -728.20144472 89.63065456 C-728.19306176 86.17375661 -728.19234675 82.71735622 -728.21405618 79.26050511 C-728.34206096 54.33600661 -724.5645304 34.97336085 -706.58396149 16.39603424 C-691.39812422 3.31151825 -674.12496898 -1.15606447 -654.4451828 -1.3401413 C-652.91293155 -1.3678628 -651.38069927 -1.39664805 -649.84848505 -1.42634618 C-644.42719335 -1.52069944 -639.00589477 -1.56481693 -633.58396149 -1.60396576 C-632.02630318 -1.61611448 -632.02630318 -1.61611448 -630.43717703 -1.62850863 C-613.11737359 -1.75993963 -595.79754063 -1.79616161 -578.47733512 -1.81658284 C-570.848924 -1.82575154 -563.22052595 -1.84055955 -555.59212416 -1.85541697 C-540.66176333 -1.8843158 -525.73139783 -1.90791021 -510.8010243 -1.92912273 C-497.75491769 -1.9476679 -484.70881525 -1.96796422 -471.662714 -1.98996353 C-470.79361188 -1.99142626 -469.92450976 -1.992889 -469.02907121 -1.99439605 C-465.50048246 -2.00033552 -461.97189373 -2.00628096 -458.44330502 -2.01223666 C-425.4548534 -2.06787828 -392.46639543 -2.11800729 -359.4779314 -2.16565178 C-330.17545645 -2.20800852 -300.87299379 -2.25545893 -271.57053375 -2.30709076 C-238.58830263 -2.36519038 -205.6060687 -2.42003836 -172.6238237 -2.46969163 C-169.11231203 -2.47498723 -165.60080037 -2.48029137 -162.08928871 -2.48559952 C-161.22476334 -2.48690359 -160.36023797 -2.48820766 -159.46951486 -2.48955125 C-146.4093518 -2.50931059 -133.34919454 -2.53157655 -120.2890377 -2.55506516 C-105.46642689 -2.58171121 -90.64381537 -2.60480915 -75.82119184 -2.62315013 C-67.52326262 -2.6335194 -59.22534872 -2.64667638 -50.92743061 -2.66378843 C-44.74660972 -2.67622513 -38.56579337 -2.68345474 -32.38496233 -2.68858413 C-29.87455884 -2.69148939 -27.36415668 -2.69611685 -24.85375982 -2.7025729 C-21.46111665 -2.71104921 -18.06852418 -2.71343379 -14.67587185 -2.71418953 C-13.68491012 -2.71813504 -12.69394839 -2.72208055 -11.67295751 -2.72614563 C-10.77382032 -2.72507552 -9.87468312 -2.72400542 -8.94829935 -2.72290289 C-7.78374145 -2.72467302 -7.78374145 -2.72467302 -6.59565714 -2.72647891 C-3.75693562 -2.55359952 -2.01328215 -2.03870843 0 0 Z M-491.58396149 235.39603424 C-491.58396149 381.25603424 -491.58396149 527.11603424 -491.58396149 677.39603424 C-487.3996987 673.80952328 -483.47367143 670.41004385 -479.6175766 666.54317474 C-478.23176392 665.15725632 -478.23176392 665.15725632 -476.81795502 663.74333954 C-475.81698086 662.73723339 -474.81605155 661.73108263 -473.81516266 660.72489166 C-472.74372097 659.65152779 -471.67204916 658.5783936 -470.60016632 657.50547028 C-468.30487683 655.20703548 -466.01114619 652.90706053 -463.71862602 650.60586357 C-460.09514881 646.96880985 -456.46781174 643.33562207 -452.83989716 639.7029953 C-445.14744512 631.99947349 -437.45924774 624.29171187 -429.77146149 616.58353424 C-421.45376477 608.24381133 -413.13533441 599.90482791 -404.81203824 591.57069284 C-401.20342587 587.95709118 -397.59726704 584.34106386 -393.99295175 580.72317636 C-391.7568196 578.47960613 -389.51863668 576.23809055 -387.27988052 573.99713898 C-386.23973085 572.95511137 -385.20044891 571.91221679 -384.16208458 570.86841011 C-382.74882807 569.44797752 -381.33222236 568.03087951 -379.91542816 566.61397552 C-378.72612591 565.42134236 -378.72612591 565.42134236 -377.51279736 564.20461559 C-374.20501847 561.10306231 -372.02394215 561.26792572 -367.57505608 561.25736904 C-366.28570101 561.2518946 -364.99634595 561.24642015 -363.66791952 561.24077982 C-362.22354156 561.23970347 -360.77916354 561.23871881 -359.33478546 561.23781586 C-357.81100668 561.23325305 -356.28722916 561.22825344 -354.76345313 561.22285229 C-350.56079384 561.20922976 -346.35814267 561.20184096 -342.15546703 561.19542563 C-337.62920615 561.1874397 -333.10296225 561.17373574 -328.57671356 561.1607132 C-320.72954972 561.13892473 -312.88238418 561.12078893 -305.03520584 561.10510826 C-293.6893921 561.08243118 -282.34359717 561.05428538 -270.99779935 561.02478898 C-252.59163252 560.97708652 -234.18545801 560.93382955 -215.77927399 560.89334869 C-197.89547885 560.85400726 -180.01169053 560.81258429 -162.1279068 560.76834869 C-161.02623088 560.76562442 -159.92455496 560.76290015 -158.78949492 560.76009332 C-153.26291381 560.74641407 -147.7363328 560.73269375 -142.20975184 560.71895301 C-96.33450262 560.60494655 -50.45923863 560.49814644 -4.58396149 560.39603424 C-3.29610867 557.82032862 -3.45979613 555.99098025 -3.46091366 553.10552788 C-3.45892279 551.97605358 -3.45693192 550.84657928 -3.45488071 549.68287849 C-3.45779338 548.43228331 -3.46070604 547.18168812 -3.46370697 545.89319611 C-3.46285095 544.5756987 -3.46199493 543.25820129 -3.46111298 541.90077972 C-3.45886092 538.22410506 -3.46289578 534.5474593 -3.46788876 530.87078831 C-3.47224041 526.85250401 -3.47079514 522.83422114 -3.47007084 518.81593513 C-3.46953811 511.00777759 -3.47416581 503.1996315 -3.48057217 495.39147691 C-3.48775787 486.3641049 -3.48856613 477.33673982 -3.48935699 468.30936432 C-3.49461238 444.46325247 -3.50857342 420.61714319 -3.52146149 396.77103424 C-3.54208649 343.51728424 -3.56271149 290.26353424 -3.58396149 235.39603424 C-164.62396149 235.39603424 -325.66396149 235.39603424 -491.58396149 235.39603424 Z " fill="#00AB46" transform="translate(727.5839614868164,2.6039657592773438)"/>
<path d="M0 0 C0.55321678 0.66835121 1.10643356 1.33670242 1.67641449 2.0253067 C5.03600714 5.9821004 8.56521238 9.67511199 12.25002289 13.32767487 C12.89329025 13.96948196 13.53655762 14.61128906 14.19931793 15.27254486 C15.58186323 16.65131539 16.96556137 18.02893075 18.35031891 19.40547943 C20.54794813 21.59022006 22.74232886 23.77817851 24.93593597 25.96695709 C29.5931569 30.61280989 34.25429946 35.2547156 38.91603851 39.89603424 C44.3226343 45.27894682 49.72756485 50.66350981 55.12827301 56.05233002 C57.27922482 58.19684933 59.43319023 60.33830908 61.58730316 62.4796524 C62.91903635 63.80774955 64.25062737 65.13598928 65.58205414 66.46439362 C66.17238937 67.04956253 66.76272461 67.63473145 67.37094879 68.23763275 C70.18072505 71.04705735 72.87310095 73.898118 75.44834137 76.92436981 C81.19700605 83.56297666 87.52946971 89.66597863 93.73317719 95.87430573 C95.18601967 97.33178288 96.63866642 98.78945517 98.09113312 100.24730682 C102.01808957 104.1873153 105.94831716 108.12404414 109.87957549 112.05975986 C112.33595296 114.51907602 114.79174564 116.97897469 117.24736214 119.43905067 C124.93266633 127.13800261 132.61995005 134.83496974 140.31014556 142.52903599 C149.18587543 151.40925852 158.05500578 160.29600405 166.91852397 169.18841499 C173.7762341 176.06770368 180.63966127 182.94125371 187.50749952 189.81043106 C191.60798602 193.91196712 195.70599049 198.01591302 199.79807854 202.1258297 C203.64025577 205.98442426 207.48945326 209.83587152 211.34424782 213.68185997 C212.75941783 215.09625655 214.17201163 216.51323602 215.5818634 217.93293381 C217.50223292 219.86592947 219.43155352 221.78951748 221.36347198 223.71096039 C221.92290613 224.27845094 222.48234027 224.84594149 223.05872697 225.43062872 C225.78634509 228.12362641 227.65622826 229.67692297 231.41603851 230.39603424 C231.41603851 231.71603424 231.41603851 233.03603424 231.41603851 234.39603424 C58.91233835 235.29983399 58.91233835 235.29983399 -133.28318024 235.49369049 C-134.62550602 235.49366207 -135.96783181 235.49363392 -137.3101576 235.49360603 C-169.48338945 235.49280718 -201.65661672 235.48343309 -233.82984544 235.46976857 C-254.55216449 235.46096795 -275.27448274 235.45485981 -295.99680328 235.45096588 C-297.42060337 235.45069524 -298.84440347 235.45042454 -300.26820356 235.45015377 C-311.31708032 235.44806384 -322.36595711 235.4461148 -333.4148339 235.4441992 C-386.13788001 235.43502665 -438.86091623 235.41485419 -491.58396149 235.39603424 C-491.58396149 157.18603424 -491.58396149 78.97603424 -491.58396149 -1.60396576 C-369.49200534 -1.89524772 -369.49200534 -1.89524772 -318.61716461 -2.00826263 C-307.71261255 -2.03249572 -296.8080606 -2.05677569 -285.90350889 -2.08116943 C-284.42435368 -2.08447822 -282.94519846 -2.08778552 -281.46604324 -2.09109133 C-257.86963407 -2.14383991 -234.27323401 -2.19984462 -210.67683647 -2.25754433 C-186.43297367 -2.31681005 -162.18910547 -2.37279107 -137.94522557 -2.42461685 C-134.52389382 -2.43193212 -131.10256216 -2.43928508 -127.68123055 -2.446661 C-126.67114252 -2.44883686 -126.67114252 -2.44883686 -125.64064868 -2.45105667 C-114.78450194 -2.47453929 -103.92836647 -2.50150245 -93.07223121 -2.52975514 C-82.16808683 -2.55805893 -71.26393832 -2.58264297 -60.35977729 -2.60363693 C-54.44764269 -2.61512971 -48.53552367 -2.62829067 -42.62340355 -2.64579582 C-37.21816362 -2.66176458 -31.81293473 -2.67315475 -26.40767679 -2.68079685 C-24.44531742 -2.68439861 -22.48296036 -2.68972681 -20.52061077 -2.69689412 C-17.866646 -2.70634299 -15.21274379 -2.70967812 -12.55876446 -2.71139622 C-11.39861167 -2.71774326 -11.39861167 -2.71774326 -10.21502146 -2.72421852 C-2.68165217 -2.71551947 -2.68165217 -2.71551947 0 0 Z " fill="#FABB04" transform="translate(727.5839614868164,2.6039657592773438)"/>
<path d="M0 0 C0 185.79 0 371.58 0 563 C-77.88 563 -155.76 563 -236 563 C-236.20189321 436.51614578 -236.20189321 436.51614578 -236.24082482 388.03114271 C-236.25103043 375.3532646 -236.26146981 362.67538671 -236.27262997 349.99750939 C-236.27397918 348.4641032 -236.27532104 346.930697 -236.27665544 345.3972908 C-236.29797337 320.97029392 -236.33548002 296.54335507 -236.3814861 272.11639324 C-236.42870017 247.0023237 -236.45943906 221.88828622 -236.46957495 196.77417304 C-236.47101563 193.2234924 -236.47264382 189.67281186 -236.47438622 186.12213135 C-236.47472333 185.42333597 -236.47506045 184.7245406 -236.47540778 184.0045696 C-236.48130651 172.77529865 -236.50447009 161.54612711 -236.53416017 150.31689663 C-236.5636689 139.01594028 -236.5744183 127.71511179 -236.56750689 116.41410768 C-236.56430818 110.29570627 -236.56917093 104.17759562 -236.59602737 98.05924606 C-236.62046751 92.45023986 -236.62151767 86.84171827 -236.60449447 81.23268914 C-236.60239242 79.21087373 -236.60864316 77.18902731 -236.62441591 75.16727233 C-236.78910654 52.74071523 -230.95919747 34.48886781 -215 18 C-166.07232044 -24.15737298 -36.73271272 0 0 0 Z " fill="#2683FB" transform="translate(236,1)"/>
<path d="M0 0 C77.88 0 155.76 0 236 0 C236 77.88 236 155.76 236 236 C213.75014832 236.58552241 191.56623054 237.16100954 169.3203125 237.16796875 C166.78652938 237.17120343 164.25274641 237.17456889 161.71896362 237.17805481 C156.49151171 237.18394041 151.26407607 237.18590528 146.03662109 237.18530273 C139.41042377 237.18520028 132.78433156 237.19898619 126.15815926 237.21607494 C120.95705705 237.22728715 115.75597984 237.22921933 110.55486679 237.22869301 C108.11296086 237.22985411 105.67105387 237.23416716 103.22916031 237.24202538 C41.01022189 237.42398666 41.01022189 237.42398666 20.09912109 217.47924805 C8.47010808 205.61556886 -0.13197217 188.45625756 -0.12025452 171.72344971 C-0.12111053 170.99084427 -0.12196655 170.25823883 -0.12284851 169.50343323 C-0.12450397 167.04035003 -0.11897961 164.5773348 -0.11352539 162.11425781 C-0.11321908 160.32156756 -0.11335251 158.52887718 -0.11389065 156.73618698 C-0.11411658 151.93174991 -0.1083171 147.1273377 -0.10128021 142.32290649 C-0.09558891 137.81601889 -0.09531729 133.30913736 -0.09460449 128.80224609 C-0.08935537 115.61816076 -0.07539424 102.43408007 -0.0625 89.25 C-0.041875 59.7975 -0.02125 30.345 0 0 Z " fill="#00832D" transform="translate(0,564)"/>
<path d="M0 0 C20.24030113 -0.11361508 40.48038095 -0.1216658 60.72093558 -0.10646224 C67.22151612 -0.10208128 73.7220775 -0.10524205 80.22265685 -0.11008751 C86.55287558 -0.11461517 92.883086 -0.11527331 99.21330583 -0.11264884 C102.96873771 -0.11109439 106.72415652 -0.11087112 110.47958755 -0.11418533 C114.6255435 -0.11759377 118.77145063 -0.11288073 122.91740417 -0.10728455 C124.15340866 -0.10930878 125.38941315 -0.11133301 126.66287231 -0.11341858 C128.34330879 -0.10918884 128.34330879 -0.10918884 130.05769348 -0.10487366 C131.03412622 -0.10449663 132.01055897 -0.10411961 133.01658058 -0.10373116 C135.33293152 0.02210999 135.33293152 0.02210999 137.33293152 1.02210999 C137.33293152 78.57210999 137.33293152 156.12210999 137.33293152 236.02210999 C59.78293152 236.02210999 -17.76706848 236.02210999 -97.66706848 236.02210999 C-97.77019348 206.81710999 -97.87331848 177.61210999 -97.97956848 147.52210999 C-98.0250885 138.32271545 -98.07060852 129.12332092 -98.11750793 119.64515686 C-98.14009094 108.3551178 -98.14009094 108.3551178 -98.14428711 103.05885315 C-98.14891912 99.38356736 -98.16755018 95.70864781 -98.19494629 92.03346252 C-98.22955343 87.32769185 -98.23946767 82.62244438 -98.23242986 77.91655827 C-98.23389882 76.20067434 -98.24362858 74.48476981 -98.26314414 72.76899624 C-98.4946839 51.39851833 -91.74348806 33.59890136 -76.66706848 18.02210999 C-61.70700479 5.13212643 -44.56214877 0.48183286 -25.14363098 0.27992249 C-23.64570107 0.2519299 -22.14778693 0.22308481 -20.64988708 0.19352722 C-13.76700983 0.07407529 -6.88369997 0.04150414 0 0 Z " fill="#0065DA" transform="translate(97.66706848144531,0.9778900146484375)"/>
<path d="M0 0 C3.34341097 1.11447032 4.06752784 1.98005292 6.26037598 4.62927246 C9.61996863 8.58606616 13.14917387 12.27907775 16.83398438 15.93164062 C17.47725174 16.57344772 18.1205191 17.21525482 18.78327942 17.87651062 C20.16582472 19.25528115 21.54952286 20.63289651 22.9342804 22.00944519 C25.13190961 24.19418582 27.32629034 26.38214426 29.51989746 28.57092285 C34.17711839 33.21677565 38.83826095 37.85868136 43.5 42.5 C48.90659578 47.88291258 54.31152634 53.26747557 59.7122345 58.65629578 C61.86318631 60.80081509 64.01715172 62.94227484 66.17126465 65.08361816 C67.50299784 66.41171531 68.83458885 67.73995504 70.16601562 69.06835938 C70.75635086 69.65352829 71.3466861 70.2386972 71.95491028 70.84159851 C74.76468654 73.65102311 77.45706243 76.50208376 80.03230286 79.52833557 C85.78096753 86.16694242 92.11343119 92.26994439 98.31713867 98.47827148 C99.76998115 99.93574864 101.22262791 101.39342093 102.6750946 102.85127258 C106.60205105 106.79128106 110.53227864 110.7280099 114.46353698 114.66372561 C116.91991445 117.12304178 119.37570713 119.58294045 121.83132362 122.04301643 C129.51662782 129.74196837 137.20391153 137.4389355 144.89410704 145.13300174 C153.76983691 154.01322428 162.63896727 162.89996981 171.50248545 171.79238075 C178.36019558 178.67166944 185.22362276 185.54521947 192.091461 192.41439682 C196.19194751 196.51593288 200.28995197 200.61987878 204.38204002 204.72979546 C208.22421726 208.58839002 212.07341474 212.43983728 215.9282093 216.28582573 C217.34337931 217.70022231 218.75597311 219.11720178 220.16582489 220.53689957 C222.08619441 222.46989523 224.01551501 224.39348324 225.94743347 226.31492615 C226.50686762 226.8824167 227.06630176 227.44990724 227.64268845 228.03459448 C230.37030658 230.72759217 232.24018974 232.28088873 236 233 C236 234.32 236 235.64 236 237 C158.45 237 80.9 237 1 237 C0.979375 198.59625 0.95875 160.1925 0.9375 120.625 C0.928396 108.47896973 0.91929199 96.33293945 0.90991211 83.81884766 C0.90539551 69.0378418 0.90539551 69.0378418 0.90455627 62.12802124 C0.90362101 57.28060452 0.89985921 52.43319864 0.89442444 47.58578491 C0.88759532 41.41352261 0.88550326 35.24127622 0.88692772 29.0690105 C0.8866296 26.79697352 0.88462905 24.52493602 0.88078487 22.25290227 C0.87585272 19.1972777 0.87699466 16.14171592 0.87974548 13.08609009 C0.87683282 12.18558111 0.87392015 11.28507214 0.87091923 10.35727501 C0.88587517 4.22824965 0.88587517 4.22824965 2 2 C1.34 2 0.68 2 0 2 C0 1.34 0 0.68 0 0 Z " fill="#EA4334" transform="translate(723,0)"/>
</svg>
