<?xml version="1.0" encoding="UTF-8"?>
<svg version="1.1" xmlns="http://www.w3.org/2000/svg" width="64" height="66">
<path d="M0 0 C2.4375 0.1875 2.4375 0.1875 5 1 C5.66 2.32 6.32 3.64 7 5 C10.63 5 14.26 5 18 5 C18.268125 6.051875 18.53625 7.10375 18.8125 8.1875 C19.78434089 11.90042712 19.78434089 11.90042712 21.5625 14.4375 C23.54221889 17.96656411 23.65947658 20.98182366 24 25 C23.34 25 22.68 25 22 25 C21.731875 24.39671875 21.46375 23.7934375 21.1875 23.171875 C18.63724859 17.97070436 16.49006123 14.81641607 11.046875 12.5859375 C6.54370623 11.29686247 3.18891914 11.58038148 -1.1875 13.125 C-5.64133796 16.09422531 -7.49269259 19.28783748 -9 24.375 C-9 29.10041062 -7.71612116 32.17156255 -5 36 C-2.00828692 38.58742753 -0.39247319 38.96557253 3.5625 39.3125 C7.60270736 38.94810551 7.60270736 38.94810551 11 37 C13.30852522 33.76806469 13.24800873 30.88547017 13 27 C12.505 25.515 12.505 25.515 12 24 C6.71800407 22.80011955 6.71800407 22.80011955 2 25 C1.08571661 26.90708843 1.08571661 26.90708843 1 29 C2.70892499 32.31460705 2.70892499 32.31460705 6.125 32.6875 C7.07375 32.790625 8.0225 32.89375 9 33 C9 33.66 9 34.32 9 35 C5.39906035 35.92117061 3.61372229 36.28640374 0.1875 34.6875 C-2 33 -2 33 -3 31 C-3.70153846 23.86769231 -3.70153846 23.86769231 -0.625 20.0625 C3.46375833 16.84990417 5.77363721 16.56446977 11 17 C17.78721678 20.65465519 20.18369047 24.69110117 22.4375 31.8046875 C23.06887277 34.2687951 23.2452082 36.4661819 23 39 C22.071875 39.4125 21.14375 39.825 20.1875 40.25 C15.45427732 42.84863206 13.67167065 46.41999317 11 51 C8.38632586 50.55194158 6.15714657 50.0742081 3.75 48.9375 C0.32261346 47.76907277 -2.22346296 48.01247101 -5.8125 48.375 C-6.97394531 48.48585937 -8.13539062 48.59671875 -9.33203125 48.7109375 C-10.21246094 48.80632813 -11.09289063 48.90171875 -12 49 C-12.0515625 48.33613281 -12.103125 47.67226563 -12.15625 46.98828125 C-12.74409735 41.58380758 -12.74409735 41.58380758 -15.84375 37.36328125 C-17.96344957 36.10567452 -17.96344957 36.10567452 -20.125 35.1328125 C-22.41431437 33.74968507 -23.01804799 32.44465137 -24 30 C-22.38405168 27.95880212 -20.7143618 25.95927063 -19 24 C-18.34 24 -17.68 24 -17 24 C-17.144375 23.34773438 -17.28875 22.69546875 -17.4375 22.0234375 C-18.44627294 17.27379823 -19.25715306 12.88590812 -19 8 C-13.66666667 7.33333333 -8.33333333 6.66666667 -3 6 C-2.690625 5.195625 -2.38125 4.39125 -2.0625 3.5625 C-1 1 -1 1 0 0 Z " fill="#F48126" transform="translate(32,0)"/>
<path d="M0 0 C2.875 -0.125 2.875 -0.125 6 0 C6.66 0.66 7.32 1.32 8 2 C8.99 1.34 9.98 0.68 11 0 C13.33199388 -0.07905064 15.66832622 -0.08798769 18 0 C18 3.3 18 6.6 18 10 C14.625 10.125 14.625 10.125 11 10 C10.34 9.34 9.68 8.68 9 8 C8.67 8.66 8.34 9.32 8 10 C7.01 10 6.02 10 5 10 C5 7.69 5 5.38 5 3 C4.01 3.495 4.01 3.495 3 4 C2.34227572 7.02934491 2.34227572 7.02934491 2 10 C1.34 10 0.68 10 0 10 C0 6.7 0 3.4 0 0 Z M12 3 C12 4.32 12 5.64 12 7 C13.32 6.67 14.64 6.34 16 6 C15.67 5.01 15.34 4.02 15 3 C14.01 3 13.02 3 12 3 Z " fill="#555555" transform="translate(46,56)"/>
<path d="M0 0 C4.95 0 9.9 0 15 0 C15 3.3 15 6.6 15 10 C8.56461405 10.36426713 8.56461405 10.36426713 6.0625 8.75 C5 7 5 7 5 3 C4.34 3 3.68 3 3 3 C3 5.31 3 7.62 3 10 C2.01 10 1.02 10 0 10 C0 6.7 0 3.4 0 0 Z M9 3 C9 4.32 9 5.64 9 7 C9.99 6.67 10.98 6.34 12 6 C12 5.01 12 4.02 12 3 C11.01 3 10.02 3 9 3 Z " fill="#545454" transform="translate(14,56)"/>
<path d="M0 0 C0.66 0.99 1.32 1.98 2 3 C-1 4 -1 4 -4 3 C-5.5833253 4.2488427 -5.5833253 4.2488427 -7 6 C-7 7.32 -7 8.64 -7 10 C-5.33388095 10.042721 -3.66617115 10.04063832 -2 10 C-1.67 9.67 -1.34 9.34 -1 9 C-2.32 8.67 -3.64 8.34 -5 8 C-5 7.34 -5 6.68 -5 6 C-2.36 6 0.28 6 3 6 C3.25 8.3125 3.25 8.3125 3 11 C1.4375 12.875 1.4375 12.875 -1 14 C-7.32727273 13.67272727 -7.32727273 13.67272727 -10 11 C-10.55239643 4.03980504 -10.55239643 4.03980504 -8.9375 1 C-5.87672462 -0.57975504 -3.36875585 -0.36750064 0 0 Z " fill="#535353" transform="translate(10,52)"/>
<path d="M0 0 C2.01822917 0.06510417 4.03645833 0.13020833 6.0546875 0.1953125 C6.0546875 3.4953125 6.0546875 6.7953125 6.0546875 10.1953125 C-0.5703125 10.4453125 -0.5703125 10.4453125 -3.9453125 8.1953125 C-4.2578125 5.1953125 -4.2578125 5.1953125 -3.9453125 2.1953125 C-1.9453125 0.1953125 -1.9453125 0.1953125 0 0 Z M-0.9453125 3.1953125 C-0.9453125 4.5153125 -0.9453125 5.8353125 -0.9453125 7.1953125 C0.3746875 6.8653125 1.6946875 6.5353125 3.0546875 6.1953125 C2.7246875 5.2053125 2.3946875 4.2153125 2.0546875 3.1953125 C1.0646875 3.1953125 0.0746875 3.1953125 -0.9453125 3.1953125 Z " fill="#555555" transform="translate(38.9453125,55.8046875)"/>
<path d="M0 0 C1.2065625 0.0309375 1.2065625 0.0309375 2.4375 0.0625 C2.1075 1.7125 1.7775 3.3625 1.4375 5.0625 C0.7775 5.0625 0.1175 5.0625 -0.5625 5.0625 C-0.5625 7.7025 -0.5625 10.3425 -0.5625 13.0625 C-1.5525 13.0625 -2.5425 13.0625 -3.5625 13.0625 C-3.58936553 11.08340602 -3.60883375 9.10421029 -3.625 7.125 C-3.63660156 6.02285156 -3.64820312 4.92070313 -3.66015625 3.78515625 C-3.52747618 0.086036 -3.52747618 0.086036 0 0 Z " fill="#565656" transform="translate(33.5625,52.9375)"/>
</svg>
