<svg xmlns="http://www.w3.org/2000/svg" viewBox="0 0 256 256">
  <defs>
    <linearGradient id="a" x1="98.03%" y1="0.86%" x2="58.89%" y2="40.87%">
      <stop offset="0%" stop-color="#0052CC"/>
      <stop offset="92%" stop-color="#2684FF"/>
    </linearGradient>
    <linearGradient id="b" x1="100.95%" y1="0.3%" x2="55.8%" y2="44.15%">
      <stop offset="0%" stop-color="#0052CC"/>
      <stop offset="92%" stop-color="#2684FF"/>
    </linearGradient>
  </defs>
  <path d="M244.66 0H121.72a11.34 11.34 0 0 0-11.34 11.34c0 31.3 25.38 56.68 56.68 56.68h24.2v23.4c0 31.3 25.38 56.68 56.68 56.68a11.34 11.34 0 0 0 11.34-11.34V14.62c0-8.08-6.54-14.62-14.62-14.62z" fill="#2684FF"/>
  <path d="M183.82 61.81H60.88a11.34 11.34 0 0 0-11.34 11.34c0 31.3 25.38 56.68 56.68 56.68h24.2v23.4c0 31.3 25.38 56.68 56.68 56.68a11.34 11.34 0 0 0 11.34-11.34V76.43c0-8.07-6.54-14.62-14.62-14.62z" fill="url(#a)"/>
  <path d="M122.97 123.63H.03a11.34 11.34 0 0 0-11.34 11.34c0 31.3 25.38 56.68 56.68 56.68h24.2v23.4c0 31.3 25.38 56.68 56.68 56.68a11.34 11.34 0 0 0 11.34-11.34V138.25c0-8.07-6.54-14.62-14.62-14.62z" fill="url(#b)"/>
</svg>
