<?xml version="1.0" encoding="UTF-8"?>
<svg version="1.1" xmlns="http://www.w3.org/2000/svg" width="500" height="500">
<path d="M0 0 C1.9872533 7.40703502 3.65213951 14.86299476 5.1875 22.375 C5.36635742 23.23061523 5.54521484 24.08623047 5.72949219 24.96777344 C5.89481445 25.79051758 6.06013672 26.61326172 6.23046875 27.4609375 C6.37895264 28.19103027 6.52743652 28.92112305 6.68041992 29.67333984 C7.06395232 32.46559634 7.01970096 35.18440314 7 38 C-13.82640129 42.17461361 -34.65323961 46.34704046 -55.48060417 50.5168457 C-65.15052755 52.45289519 -74.8203052 54.38966708 -84.48974609 56.328125 C-92.91506028 58.01716772 -101.34064166 59.70486998 -109.76655018 61.39094543 C-114.23029662 62.28421737 -118.69390394 63.17817195 -123.15719223 64.07373047 C-127.35431578 64.91586106 -131.55179301 65.75620501 -135.74955368 66.59515381 C-137.29367881 66.90408928 -138.83767125 67.21368875 -140.38152313 67.52398682 C-142.48242379 67.94614464 -144.58378011 68.36595423 -146.68527222 68.78515625 C-148.45234937 69.13912476 -148.45234937 69.13912476 -150.25512505 69.50024414 C-153 70 -153 70 -155 70 C-156.00199071 65.23216882 -156.99875529 60.46328605 -157.99072266 55.69335938 C-158.32881048 54.07131578 -158.66831682 52.44956717 -159.00927734 50.828125 C-159.49951701 48.49555609 -159.98462187 46.16196901 -160.46875 43.828125 C-160.69842468 42.74352997 -160.69842468 42.74352997 -160.93273926 41.63702393 C-161.61617367 38.31895868 -162 35.4079243 -162 32 C-143.0456631 27.88391052 -124.06111385 23.94679535 -105.04191399 20.14147997 C-102.93303382 19.71941436 -100.82426485 19.29679735 -98.7155304 18.87400436 C-91.33254391 17.39375265 -83.9491812 15.91539562 -76.56542969 14.43896484 C-69.71368442 13.06885878 -62.86282118 11.69440175 -56.01232862 10.31804717 C-50.07938943 9.12623641 -44.14586375 7.93737761 -38.21186876 6.75083482 C-34.68840518 6.04624379 -31.16518784 5.34047532 -27.64256287 4.63170242 C-23.74368131 3.84734721 -19.84358904 3.06912939 -15.94335938 2.29150391 C-14.78613373 2.05781097 -13.62890808 1.82411804 -12.43661499 1.58334351 C-11.37774078 1.37324646 -10.31886658 1.16314941 -9.22790527 0.94668579 C-8.30929466 0.76274576 -7.39068405 0.57880573 -6.44423676 0.38929176 C-4 0 -4 0 0 0 Z " fill="#F7CE1F" transform="translate(450,393)"/>
<path d="M0 0 C1.02646074 4.76655332 2.04135368 9.53536894 3.0456543 14.30664062 C3.38884544 15.92905772 3.73517555 17.55081415 4.0847168 19.171875 C4.5869098 21.50353642 5.0777265 23.83734903 5.56640625 26.171875 C5.72468399 26.89493835 5.88296173 27.61800171 6.04603577 28.36297607 C6.78574462 31.9523185 7.04981958 34.50126253 6 38 C-14.82405646 42.22080512 -35.65072373 46.42849684 -56.48060417 50.62047005 C-66.15159399 52.56705822 -75.82167326 54.51797479 -85.48974609 56.47900391 C-93.91362543 58.18765499 -102.3390805 59.88826498 -110.76655018 61.57912242 C-115.23132467 62.47521392 -119.6951893 63.37538984 -124.15719223 64.28519058 C-128.35269357 65.14051987 -132.55020871 65.98512158 -136.74955368 66.82136917 C-138.29436111 67.13099365 -139.8383751 67.44460621 -141.38152313 67.76239777 C-143.48081221 68.19411262 -145.58242694 68.61167887 -147.68527222 69.02566528 C-148.86332365 69.26348787 -150.04137508 69.50131046 -151.25512505 69.7463398 C-152.16093378 69.83004766 -153.06674252 69.91375553 -154 70 C-156.87113117 67.12886883 -157.01710006 63.79082637 -157.7265625 59.9296875 C-157.87910492 59.13345978 -158.03164734 58.33723206 -158.18881226 57.51687622 C-158.67483618 54.97090732 -159.15002897 52.42305166 -159.625 49.875 C-159.95241425 48.14960456 -160.28053051 46.42434217 -160.609375 44.69921875 C-161.41572808 40.46790132 -162.20842308 36.23410298 -163 32 C-144.05605807 27.88727212 -125.08254077 23.94890037 -106.07484555 20.14147997 C-103.96797775 19.71936414 -101.86120916 19.29675636 -99.75446892 18.87400436 C-92.37683623 17.39364004 -84.99878735 15.91536974 -77.62036133 14.43896484 C-70.77646763 13.06945112 -63.93361229 11.69482966 -57.09117752 10.31804717 C-51.16345136 9.12557046 -45.23499324 7.93678179 -39.30595726 6.75083482 C-35.78627212 6.04673973 -32.26690573 5.34113871 -28.74829292 4.63170242 C-24.85221833 3.84629471 -20.95463754 3.06854281 -17.05688477 2.29150391 C-15.90325439 2.05781097 -14.74962402 1.82411804 -13.56103516 1.58334351 C-12.50078629 1.37324646 -11.44053741 1.16314941 -10.34815979 0.94668579 C-9.43047097 0.76274576 -8.51278215 0.57880573 -7.56728458 0.38929176 C-5.00249397 0.00037817 -2.58972086 -0.07075099 0 0 Z " fill="#F6BF20" transform="translate(439,336)"/>
<path d="M0 0 C4.27592645 19.67274119 8.34383165 39.38165394 12.30554914 59.11970592 C12.94707028 62.31431325 13.5899555 65.50864553 14.23282844 68.70298107 C16.34074555 79.17696732 18.44447321 89.6517928 20.54688907 100.12688452 C21.09421577 102.85388317 21.64160503 105.58086926 22.1890049 108.30785322 C25.59915194 125.29677357 29.0076545 142.28602341 32.41240692 159.27602577 C33.19516221 163.18190593 33.97793871 167.08778184 34.76074219 170.99365234 C34.95525437 171.96419655 35.14976656 172.93474077 35.35017306 173.93469541 C38.51881575 189.74371143 41.69674139 205.55084719 44.87827557 221.3572733 C48.15276519 237.62637315 51.41860974 253.89718974 54.67602396 270.16971719 C56.50212784 279.29090533 58.33212 288.41127646 60.17192078 297.52971268 C61.7336232 305.26990361 63.28761398 313.01159035 64.83128816 320.75539787 C65.61913132 324.70631877 66.41077386 328.65638117 67.21238327 332.60453415 C67.94481357 336.21239372 68.66672513 339.82218729 69.38004667 343.43387203 C69.76519669 345.36922003 70.1618019 347.30227726 70.55870962 349.23524821 C70.89204235 350.93960081 70.89204235 350.93960081 71.23210907 352.67838478 C71.43010841 353.66490898 71.62810775 354.65143317 71.83210707 355.66785204 C71.88751173 356.43746087 71.9429164 357.20706969 72 358 C69.63699651 360.36300349 68.4201502 360.51433444 65.1875 361.125 C64.33542969 361.29257812 63.48335938 361.46015625 62.60546875 361.6328125 C60.02940474 361.995856 57.59709965 362.02550166 55 362 C50.72407355 342.32725881 46.65616835 322.61834606 42.69445086 302.88029408 C42.05292972 299.68568675 41.4100445 296.49135447 40.76717156 293.29701893 C38.65925445 282.82303268 36.55552679 272.3482072 34.45311093 261.87311548 C33.90578423 259.14611683 33.35839497 256.41913074 32.8109951 253.69214678 C29.40084806 236.70322643 25.9923455 219.71397659 22.58759308 202.72397423 C21.80483779 198.81809407 21.02206129 194.91221816 20.23925781 191.00634766 C20.04474563 190.03580345 19.85023344 189.06525923 19.64982694 188.06530459 C16.48118425 172.25628857 13.30325861 156.44915281 10.12172443 140.6427267 C6.84723481 124.37362685 3.58139026 108.10281026 0.32397604 91.83028281 C-1.50212784 82.70909467 -3.33212 73.58872354 -5.17192078 64.47028732 C-6.7336232 56.73009639 -8.28761398 48.98840965 -9.83128816 41.24460213 C-10.61913132 37.29368123 -11.41077386 33.34361883 -12.21238327 29.39546585 C-12.94481357 25.78760628 -13.66672513 22.17781271 -14.38004667 18.56612797 C-14.76519669 16.63077997 -15.1618019 14.69772274 -15.55870962 12.76475179 C-15.78093144 11.62851672 -16.00315326 10.49228165 -16.23210907 9.32161522 C-16.43010841 8.33509102 -16.62810775 7.34856683 -16.83210707 6.33214796 C-16.88751173 5.56253913 -16.9429164 4.79293031 -17 4 C-14.63699651 1.63699651 -13.4201502 1.48566556 -10.1875 0.875 C-8.90939453 0.62363281 -8.90939453 0.62363281 -7.60546875 0.3671875 C-5.02940474 0.004144 -2.59709965 -0.02550166 0 0 Z " fill="#F38C25" transform="translate(103,9)"/>
<path d="M0 0 C5.22414226 23.76610103 9.97492983 47.62442121 14.73147798 71.48753357 C15.86570638 77.17526867 17.0023958 82.86251193 18.13883972 88.54980469 C20.54574199 100.59691745 22.95026371 112.64450439 25.35424805 124.69219971 C29.14921804 143.71074786 32.94664011 162.72880639 36.74563217 181.74655151 C37.676414 186.40610501 38.60690957 191.06571554 39.53717422 195.72537231 C44.38590616 220.01079147 49.25080878 244.29271143 54.17724609 268.5625 C54.3807568 269.56549385 54.5842675 270.5684877 54.79394519 271.60187531 C56.70848119 281.0372649 58.62499918 290.47223752 60.55136347 299.90522003 C61.23195593 303.24028602 61.91035629 306.57579538 62.58826661 309.91140747 C62.89999961 311.44232969 63.21279334 312.97303636 63.52672362 314.50350952 C63.95094483 316.57180457 64.3716659 318.64078173 64.79154968 320.70996094 C65.02663081 321.86075134 65.26171194 323.01154175 65.50391674 324.19720459 C66 327 66 327 66 330 C63.91798472 330.50546036 61.83432933 331.00416835 59.75 331.5 C58.00976562 331.91765625 58.00976562 331.91765625 56.234375 332.34375 C53 333 53 333 49 333 C34.52069224 261.40533689 20.13074221 189.79330569 5.81860137 118.16503346 C3.31841821 105.65253867 0.81700711 93.14028943 -1.68445468 80.62805021 C-6.79090202 55.08561969 -11.8959742 29.54291451 -17 4 C-14.06030946 2.04020631 -12.44977414 1.51679931 -9.0625 0.875 C-8.20785156 0.70742188 -7.35320312 0.53984375 -6.47265625 0.3671875 C-4 0 -4 0 0 0 Z " fill="#F38C25" transform="translate(130,34)"/>
<path d="M0 0 C7.364204 36.32710853 14.68881506 72.6621896 22 109 C22.19046591 109.94660335 22.38093182 110.89320669 22.57716942 111.86849499 C28.13768883 139.50438721 33.69106835 167.1417036 39.23230362 194.78146935 C41.53728214 206.27832326 43.84416926 217.77478664 46.15600586 229.27026367 C48.15743431 239.22241373 50.15480446 249.17536781 52.14707196 259.12935597 C53.18255426 264.30233295 54.21995999 269.47490585 55.26226425 274.64651299 C56.22845795 279.44081834 57.18927224 284.23616953 58.14586163 289.03240013 C58.49562142 290.78112439 58.84735232 292.52945575 59.20121098 294.27735519 C59.68264494 296.65692993 60.15694549 299.03781993 60.62948608 301.41917419 C60.77011471 302.10552254 60.91074333 302.79187088 61.05563343 303.49901766 C61.81838157 307.38894658 62.13432396 311.03851985 62 315 C60.45998293 315.34087334 58.91787594 315.67230953 57.375 316 C56.51648438 316.185625 55.65796875 316.37125 54.7734375 316.5625 C51.80645501 317.03053104 48.99903218 317.02901119 46 317 C43.46330549 307.38021099 41.45517966 297.67933312 39.52026367 287.92602539 C39.18099713 286.22719943 38.8414708 284.52842534 38.50170803 282.82969856 C37.77125914 279.17475214 37.04263581 275.51944833 36.31544876 271.86385155 C35.14718298 265.99102974 33.97474777 260.11904468 32.80184937 254.24714661 C30.91155744 244.78120612 29.02405071 235.31471264 27.1376462 225.84799677 C23.25077193 206.34259895 19.35836208 186.83830502 15.46482062 167.3342371 C14.81954954 164.1016466 14.17441949 160.86902798 13.52930641 157.63640594 C8.38487055 131.86041332 3.21442687 106.09008673 -2.03122067 80.33449149 C-2.70587778 77.02107892 -3.37952993 73.70746218 -4.05332947 70.39387512 C-6.20173185 59.83288057 -8.35403396 49.27276313 -10.52638626 38.71666622 C-11.37082581 34.60529299 -12.20857738 30.49257869 -13.04447556 26.37946129 C-13.42246256 24.5277546 -13.80353069 22.67667359 -14.18800735 20.82630348 C-14.69882976 18.36732973 -15.19924091 15.9064655 -15.69702148 13.44482422 C-15.84672299 12.73802552 -15.9964245 12.03122683 -16.15066242 11.30300999 C-16.82298996 7.92069836 -17.241211 5.27617163 -16 2 C-14.45998293 1.65912666 -12.91787594 1.32769047 -11.375 1 C-10.08722656 0.7215625 -10.08722656 0.7215625 -8.7734375 0.4375 C-5.80645501 -0.03053104 -2.99903218 -0.02901119 0 0 Z " fill="#F38C25" transform="translate(76,61)"/>
<path d="M0 0 C0.2392923 1.1986821 0.47858459 2.3973642 0.72512817 3.63237 C3.85660163 19.31777644 6.99014174 35.00276969 10.125 50.6875 C10.38125908 51.96965141 10.63751816 53.25180283 10.90154266 54.57280731 C18.53974441 92.78624947 26.21322165 130.99239181 33.93101501 169.18985367 C35.08108766 174.88258176 36.23046996 180.57544921 37.37988281 186.26831055 C38.26886707 190.67106385 39.15786866 195.07381366 40.046875 199.4765625 C40.26115395 200.53777376 40.47543289 201.59898502 40.69620514 202.6923542 C42.86790298 213.44729239 45.04044721 224.20205678 47.21679688 234.95605469 C48.67840943 242.17849159 50.13694482 249.40153999 51.59075737 256.62555122 C52.29311311 260.11508013 52.99702013 263.60427549 53.7053833 267.09259033 C54.45121784 270.76919016 55.19125669 274.44690725 55.9296875 278.125 C56.14409485 279.17440765 56.3585022 280.22381531 56.57940674 281.30502319 C56.76960388 282.25881866 56.95980103 283.21261414 57.15576172 284.1953125 C57.32034882 285.01016113 57.48493591 285.82500977 57.6545105 286.66455078 C58 289 58 289 58 294 C52.72 294.99 47.44 295.98 42 297 C38.2662619 282.76977638 35.3705919 268.41243155 32.49707031 253.98706055 C31.95536064 251.28009341 31.41250121 248.57335715 30.8697052 245.86660767 C29.55691321 239.31648752 28.24820563 232.76555798 26.94098362 226.2143242 C25.41739885 218.57945113 23.88991844 210.94535901 22.36235616 203.31128094 C19.63823385 189.69652961 16.9179484 176.08101447 14.19970703 162.46508789 C11.56270387 149.25609394 8.92243649 136.04775759 6.27880859 122.84008789 C3.39498649 108.43237804 0.51298148 94.02430697 -2.36586881 79.61560279 C-2.67249273 78.0809574 -2.97911769 76.54631222 -3.28574371 75.01166725 C-3.43658983 74.25667887 -3.58743594 73.50169048 -3.74285315 72.72382366 C-4.80639756 67.4013571 -5.87121069 62.07914527 -6.93648529 56.75702477 C-8.2324061 50.28233855 -9.5262384 43.80723915 -10.81739131 37.33160039 C-11.47621038 34.02761491 -12.13626243 30.72388864 -12.79818535 27.42052269 C-13.5144212 23.84526062 -14.22713022 20.26931368 -14.93890381 16.69316101 C-15.15017749 15.64280267 -15.36145116 14.59244433 -15.57912707 13.51025695 C-15.76824703 12.5562172 -15.957367 11.60217745 -16.15221786 10.61922741 C-16.31712652 9.79365501 -16.48203517 8.9680826 -16.65194106 8.11749285 C-17 6 -17 6 -17 3 C-14.54212344 2.49766027 -12.08374976 1.99803143 -9.625 1.5 C-8.57699219 1.28537109 -8.57699219 1.28537109 -7.5078125 1.06640625 C-2.2265625 0 -2.2265625 0 0 0 Z " fill="#F38C25" transform="translate(59,86)"/>
<path d="M0 0 C12.65471854 61.79788602 25.18836267 123.6204708 37.6039381 185.46684551 C37.98164962 187.34831043 38.35936726 189.22977412 38.73709106 191.11123657 C38.92366384 192.04057166 39.11023662 192.96990675 39.30246311 193.92740351 C40.62541382 200.51504442 41.9524595 207.1018526 43.28121948 213.68832397 C44.91561096 221.79008842 46.54457169 229.89292145 48.16656619 237.9971773 C49.00542724 242.1877944 49.84680624 246.37786632 50.69467354 250.56667137 C51.47710701 254.43269803 52.25241198 258.30008281 53.02201378 262.16868365 C53.30382038 263.57866906 53.58826516 264.98813011 53.87551868 266.39701593 C54.26482887 268.30844595 54.64381934 270.22196934 55.0222168 272.1355896 C55.23661911 273.20282446 55.45102142 274.27005932 55.67192078 275.36963463 C56 278 56 278 55 281 C49.72 281.99 44.44 282.98 39 284 C2.02973362 100.24791907 2.02973362 100.24791907 -8.62997437 47.02737427 C-9.41609456 43.10262303 -10.20309453 39.17804986 -10.99087524 35.25363159 C-11.88456007 30.80133038 -12.77645673 26.34867535 -13.66670227 21.8956852 C-13.97962726 20.33189339 -14.29318168 18.76822736 -14.60743713 17.20470238 C-15.02107983 15.14609713 -15.4323919 13.08704084 -15.84301758 11.02783203 C-16.06895096 9.89959015 -16.29488434 8.77134827 -16.52766418 7.60891724 C-17 5 -17 5 -17 3 C-15.10614563 2.49255577 -13.20981334 1.99435426 -11.3125 1.5 C-9.72888672 1.08234375 -9.72888672 1.08234375 -8.11328125 0.65625 C-5.27356794 0.05766551 -2.88199527 -0.05127345 0 0 Z " fill="#F38C25" transform="translate(197,72)"/>
<path d="M0 0 C6.3027427 31.49084011 12.60448425 62.98188035 18.9048522 94.47319565 C19.65075348 98.20145157 20.3966632 101.9297058 21.14257812 105.65795898 C21.36530037 106.77117675 21.36530037 106.77117675 21.59252205 107.90688375 C23.98836163 119.88174493 26.38488188 131.85646977 28.78165922 143.83114328 C31.24582617 156.14258566 33.70924883 168.4541768 36.17199826 180.76590282 C37.68841012 188.3465984 39.20538412 195.92718103 40.72310618 203.50761441 C41.8920523 209.34637243 43.0599567 215.18533854 44.2274971 221.02437782 C44.70279543 223.40059695 45.17841708 225.77675144 45.6544075 228.15283203 C48.51250367 242.42122774 51.30580758 256.699708 54 271 C40.375 274 40.375 274 37 274 C31.18061934 247.67915621 25.9833108 221.22883414 20.69903994 194.79678226 C19.90859576 190.8432646 19.11739049 186.88989949 18.32600021 182.93657112 C18.19359581 182.27514431 18.06119141 181.6137175 17.92477476 180.93224745 C17.65564838 179.58782751 17.38652158 178.24340766 17.11739437 176.8989879 C14.61463405 164.39597357 12.11433996 151.89246704 9.61483411 139.38880176 C7.32867394 127.9528002 5.03932483 116.51743968 2.74852736 105.08236622 C0.38668089 93.29248374 -1.97303877 81.50217745 -4.33044016 69.71140534 C-5.65031194 63.11013512 -6.97102835 56.50903661 -8.29398727 49.90838432 C-9.53271696 43.72725128 -10.76868834 37.54557316 -12.002491 31.36345482 C-12.45622748 29.09239599 -12.91095625 26.82153516 -13.36672974 24.55088425 C-13.98651392 21.46233863 -14.60277272 18.37311048 -15.21810913 15.28367615 C-15.40078193 14.37768643 -15.58345473 13.47169672 -15.77166307 12.53825277 C-15.93516586 11.71353226 -16.09866866 10.88881174 -16.26712608 10.03909969 C-16.40968625 9.32635385 -16.55224643 8.61360802 -16.6991266 7.87926382 C-17 6 -17 6 -17 3 C-14.73000175 2.49622232 -12.45896997 1.99709981 -10.1875 1.5 C-8.29064453 1.08234375 -8.29064453 1.08234375 -6.35546875 0.65625 C-3 0 -3 0 0 0 Z " fill="#F38C25" transform="translate(178,86)"/>
<path d="M0 0 C1.00199071 4.76783118 1.99875529 9.53671395 2.99072266 14.30664062 C3.32881048 15.92868422 3.66831682 17.55043283 4.00927734 19.171875 C4.49951701 21.50444391 4.98462187 23.83803099 5.46875 26.171875 C5.62186646 26.89493835 5.77498291 27.61800171 5.93273926 28.36297607 C6.61617367 31.68104132 7 34.5920757 7 38 C2.23216882 39.00199071 -2.53671395 39.99875529 -7.30664062 40.99072266 C-8.92868422 41.32881048 -10.55043283 41.66831682 -12.171875 42.00927734 C-14.50444391 42.49951701 -16.83803099 42.98462187 -19.171875 43.46875 C-19.89493835 43.62186646 -20.61800171 43.77498291 -21.36297607 43.93273926 C-24.68104132 44.61617367 -27.5920757 45 -31 45 C-32.00059979 40.07113362 -32.99741459 35.1415227 -33.99072266 30.21118164 C-34.32919948 28.53388782 -34.66871141 26.85680253 -35.00927734 25.17993164 C-35.49849075 22.7702347 -35.98398225 20.35981344 -36.46875 17.94921875 C-36.62186646 17.19912033 -36.77498291 16.44902191 -36.93273926 15.67619324 C-37.5222714 12.7294857 -38 10.01367853 -38 7 C-33.07113362 5.99940021 -28.1415227 5.00258541 -23.21118164 4.00927734 C-21.53388782 3.67080052 -19.85680253 3.33128859 -18.17993164 2.99072266 C-15.7702347 2.50150925 -13.35981344 2.01601775 -10.94921875 1.53125 C-10.19912033 1.37813354 -9.44902191 1.22501709 -8.67619324 1.06726074 C-5.7294857 0.4777286 -3.01367853 0 0 0 Z " fill="#F6BF20" transform="translate(257,372)"/>
<path d="M0 0 C0.84351511 3.80294031 1.67933147 7.60748924 2.50854492 11.41357422 C2.92821962 13.33256485 3.35369338 15.25028433 3.77929688 17.16796875 C5.28663398 24.10535156 6.52941869 30.91128723 7 38 C2.23344668 39.02646074 -2.53536894 40.04135368 -7.30664062 41.0456543 C-8.92905772 41.38884544 -10.55081415 41.73517555 -12.171875 42.0847168 C-14.50353642 42.5869098 -16.83734903 43.0777265 -19.171875 43.56640625 C-19.89493835 43.72468399 -20.61800171 43.88296173 -21.36297607 44.04603577 C-24.84459897 44.76354526 -27.62269281 45.31806672 -31 44 C-31.9993573 39.05257386 -32.99620979 34.10465223 -33.99072266 29.15625 C-34.32954851 27.47219128 -34.66906397 25.78827115 -35.00927734 24.10449219 C-35.49757434 21.68720849 -35.98340639 19.26944068 -36.46875 16.8515625 C-36.62186646 16.0963028 -36.77498291 15.34104309 -36.93273926 14.56289673 C-38 9.22774341 -38 9.22774341 -38 7 C-33.07113362 5.99940021 -28.1415227 5.00258541 -23.21118164 4.00927734 C-21.53388782 3.67080052 -19.85680253 3.33128859 -18.17993164 2.99072266 C-15.7702347 2.50150925 -13.35981344 2.01601775 -10.94921875 1.53125 C-10.19912033 1.37813354 -9.44902191 1.22501709 -8.67619324 1.06726074 C-5.7294857 0.4777286 -3.01367853 0 0 0 Z " fill="#F7CE1F" transform="translate(154,452)"/>
<path d="M0 0 C2.23708285 8.52833149 4.06529589 17.08517561 5.6875 25.75 C5.91244141 26.9359375 6.13738281 28.121875 6.36914062 29.34375 C6.91586534 32.22859532 7.45943552 35.11399521 8 38 C3.23216882 39.00199071 -1.53671395 39.99875529 -6.30664062 40.99072266 C-7.92868422 41.32881048 -9.55043283 41.66831682 -11.171875 42.00927734 C-13.50444391 42.49951701 -15.83803099 42.98462187 -18.171875 43.46875 C-18.89493835 43.62186646 -19.61800171 43.77498291 -20.36297607 43.93273926 C-23.68104132 44.61617367 -26.5920757 45 -30 45 C-31.9872533 37.59296498 -33.65213951 30.13700524 -35.1875 22.625 C-35.45578613 21.34157715 -35.45578613 21.34157715 -35.72949219 20.03222656 C-35.97747559 18.79811035 -35.97747559 18.79811035 -36.23046875 17.5390625 C-36.37895264 16.80896973 -36.52743652 16.07887695 -36.68041992 15.32666016 C-37.064148 12.53297901 -37.04986611 9.81629588 -37 7 C-32.05257386 6.0006427 -27.10465223 5.00379021 -22.15625 4.00927734 C-20.47219128 3.67045149 -18.78827115 3.33093603 -17.10449219 2.99072266 C-14.68720849 2.50242566 -12.26944068 2.01659361 -9.8515625 1.53125 C-9.0963028 1.37813354 -8.34104309 1.22501709 -7.56289673 1.06726074 C-2.22774341 0 -2.22774341 0 0 0 Z " fill="#F7CE1F" transform="translate(268,429)"/>
<path d="M0 0 C1.00070114 4.78640832 1.99751241 9.57360392 2.99072266 14.36157227 C3.32917109 15.99037565 3.66868269 17.6189585 4.00927734 19.24731445 C4.49856557 21.58748161 4.9840289 23.92841441 5.46875 26.26953125 C5.62186646 26.99775589 5.77498291 27.72598053 5.93273926 28.47627258 C6.53016886 31.37710754 7 34.02910569 7 37 C2.07113362 38.00059979 -2.8584773 38.99741459 -7.78881836 39.99072266 C-9.46611218 40.32919948 -11.14319747 40.66871141 -12.82006836 41.00927734 C-15.2297653 41.49849075 -17.64018656 41.98398225 -20.05078125 42.46875 C-20.80087967 42.62186646 -21.55097809 42.77498291 -22.32380676 42.93273926 C-25.2705143 43.5222714 -27.98632147 44 -31 44 C-32.00199071 39.23216882 -32.99875529 34.46328605 -33.99072266 29.69335938 C-34.32881048 28.07131578 -34.66831682 26.44956717 -35.00927734 24.828125 C-35.49951701 22.49555609 -35.98462187 20.16196901 -36.46875 17.828125 C-36.62186646 17.10506165 -36.77498291 16.38199829 -36.93273926 15.63702393 C-37.61617367 12.31895868 -38 9.4079243 -38 6 C-33.23344668 4.97353926 -28.46463106 3.95864632 -23.69335938 2.9543457 C-22.07094228 2.61115456 -20.44918585 2.26482445 -18.828125 1.9152832 C-16.49646358 1.4130902 -14.16265097 0.9222735 -11.828125 0.43359375 C-10.74352997 0.19617714 -10.74352997 0.19617714 -9.63702393 -0.04603577 C-6.15540103 -0.76354526 -3.37730719 -1.31806672 0 0 Z " fill="#F6BF20" transform="translate(143,396)"/>
<path d="M0 0 C1.00070114 4.78640832 1.99751241 9.57360392 2.99072266 14.36157227 C3.32917109 15.99037565 3.66868269 17.6189585 4.00927734 19.24731445 C4.49856557 21.58748161 4.9840289 23.92841441 5.46875 26.26953125 C5.62186646 26.99775589 5.77498291 27.72598053 5.93273926 28.47627258 C6.53016886 31.37710754 7 34.02910569 7 37 C-0.40703502 38.9872533 -7.86299476 40.65213951 -15.375 42.1875 C-16.65842285 42.45578613 -16.65842285 42.45578613 -17.96777344 42.72949219 C-18.79051758 42.89481445 -19.61326172 43.06013672 -20.4609375 43.23046875 C-21.19103027 43.37895264 -21.92112305 43.52743652 -22.67333984 43.68041992 C-25.46702099 44.064148 -28.18370412 44.04986611 -31 44 C-32.00070114 39.21359168 -32.99751241 34.42639608 -33.99072266 29.63842773 C-34.32917109 28.00962435 -34.66868269 26.3810415 -35.00927734 24.75268555 C-35.49856557 22.41251839 -35.9840289 20.07158559 -36.46875 17.73046875 C-36.62186646 17.00224411 -36.77498291 16.27401947 -36.93273926 15.52372742 C-37.53016886 12.62289246 -38 9.97089431 -38 7 C-30.59296498 5.0127467 -23.13700524 3.34786049 -15.625 1.8125 C-14.34157715 1.54421387 -14.34157715 1.54421387 -13.03222656 1.27050781 C-12.20948242 1.10518555 -11.38673828 0.93986328 -10.5390625 0.76953125 C-9.80896973 0.62104736 -9.07887695 0.47256348 -8.32666016 0.31958008 C-5.53297901 -0.064148 -2.81629588 -0.04986611 0 0 Z " fill="#F6BF20" transform="translate(200,384)"/>
<path d="M0 0 C1.99282216 7.4277917 3.65538108 14.90298319 5.1875 22.4375 C5.36635742 23.30149414 5.54521484 24.16548828 5.72949219 25.05566406 C6.53668392 29.08847578 7.2463548 32.86293843 7 37 C2.58227612 38.57563503 -1.76133352 39.6323196 -6.3671875 40.5078125 C-7.38656906 40.70333206 -7.38656906 40.70333206 -8.42654419 40.90280151 C-10.57531865 41.31403734 -12.72511638 41.71960715 -14.875 42.125 C-16.34121744 42.40457261 -17.80736407 42.6845169 -19.2734375 42.96484375 C-22.84814981 43.64752758 -26.42380179 44.32513781 -30 45 C-31.90370839 37.5728899 -33.68041858 30.14281471 -35.1875 22.625 C-35.36474609 21.77550781 -35.54199219 20.92601562 -35.72460938 20.05078125 C-36.61548171 15.62737652 -37.21439773 11.53931743 -37 7 C-29.5722083 5.00717784 -22.09701681 3.34461892 -14.5625 1.8125 C-13.69850586 1.63364258 -12.83451172 1.45478516 -11.94433594 1.27050781 C-7.91152422 0.46331608 -4.13706157 -0.2463548 0 0 Z " fill="#F7CE1F" transform="translate(211,441)"/>
<path d="M0 0 C0.99 0 1.98 0 3 0 C2.67 0.66 2.34 1.32 2 2 C1.34 1.34 0.68 0.68 0 0 Z " fill="#F05A2B" transform="translate(120,0)"/>
</svg>
