<?xml version="1.0" encoding="UTF-8"?>
<svg version="1.1" xmlns="http://www.w3.org/2000/svg" width="200" height="200">
<path d="M0 0 C2.3584184 0.09039065 4.7171695 0.17250269 7.07617188 0.24609375 C12.82892713 0.44350803 18.56916022 0.74364481 24.3125 1.125 C19.14892963 11.61488754 19.14892963 11.61488754 16.2109375 16.4453125 C15.64842285 17.37577393 15.0859082 18.30623535 14.50634766 19.26489258 C13.90612793 20.24997803 13.3059082 21.23506348 12.6875 22.25 C11.34815156 24.46435598 10.00965155 26.67922528 8.671875 28.89453125 C8.32158234 29.47387924 7.97128967 30.05322723 7.61038208 30.65013123 C4.55391513 35.71032042 1.52749847 40.78803227 -1.47180176 45.88232422 C-3.46773735 49.26901737 -5.48711148 52.63640723 -7.5625 55.97509766 C-11.6677781 62.63326141 -15.18603807 69.06159707 -17.953125 76.38671875 C-24.32453242 92.21882895 -24.32453242 92.21882895 -31.6875 96.125 C-39.78817611 98.68082411 -48.26505762 98.74635372 -56.6875 98.75 C-57.79264954 98.76305176 -58.89779907 98.77610352 -60.03643799 98.78955078 C-77.19850432 98.76668285 -77.19850432 98.76668285 -82.55133057 94.71380615 C-85.97625989 90.97621977 -87.84489372 86.80223748 -89.6875 82.125 C-90.64405718 80.08250057 -91.60202111 78.04065819 -92.5625 76 C-96.59298754 66.1775526 -98.22888368 56.38142748 -98.125 45.8125 C-98.11742676 44.72235596 -98.10985352 43.63221191 -98.10205078 42.5090332 C-97.82699898 28.9802992 -94.30156179 17.96417061 -87.6875 6.125 C-87.0275 6.125 -86.3675 6.125 -85.6875 6.125 C-84.24455194 8.25541484 -82.936886 10.3732996 -81.65234375 12.59765625 C-81.25479385 13.27235458 -80.85724396 13.94705292 -80.44764709 14.64219666 C-79.16645235 16.81995411 -77.8955263 19.00350453 -76.625 21.1875 C-75.79561453 22.60261973 -74.96554366 24.01733798 -74.13476562 25.43164062 C-72.89385962 27.54462855 -71.65361689 29.65797981 -70.41635132 31.77310181 C-66.23106902 38.92511422 -61.96623261 46.02861263 -57.6875 53.125 C-54.7112995 49.56745574 -52.28578301 45.9388902 -49.96484375 41.92578125 C-49.61925919 41.33186081 -49.27367462 40.73794037 -48.9176178 40.12602234 C-47.81623211 38.23204939 -46.72022867 36.33503889 -45.625 34.4375 C-44.91774033 33.21525014 -44.2100606 31.99324325 -43.50195312 30.77148438 C-43.14917801 30.16046875 -42.79640289 29.54945312 -42.43293762 28.91992188 C-41.69825408 27.66364655 -40.95131991 26.41446329 -40.19291687 25.17236328 C-38.02359087 21.59336481 -36.19727229 18.05649443 -34.5793457 14.19335938 C-27.17034649 -2.21322572 -16.53277563 -1.10164615 0 0 Z " fill="#00009F" transform="translate(115.6875,51.875)"/>
<path d="M0 0 C2.84942262 2.46011197 4.06785602 4.9810756 5.5 8.4375 C5.9021875 9.38496094 6.304375 10.33242187 6.71875 11.30859375 C9.99230211 20.74001675 11.51099789 29.45401874 11.375 39.4375 C11.36339844 40.53642578 11.35179687 41.63535156 11.33984375 42.76757812 C11.04516126 57.37169571 7.09215104 69.3289065 0 82 C-0.37892899 82.69872726 -0.75785797 83.39745453 -1.14826965 84.11735535 C-3.1474477 87.29684808 -4.65128635 89.59901263 -8.35206604 90.69929504 C-11.22263789 90.92614457 -13.99010885 90.90039091 -16.8671875 90.78125 C-17.90191193 90.76993042 -18.93663635 90.75861084 -20.00271606 90.74694824 C-23.29539113 90.70229758 -26.58365013 90.60195298 -29.875 90.5 C-32.11191611 90.45985852 -34.34890073 90.42335893 -36.5859375 90.390625 C-42.05878873 90.30260124 -47.52907893 90.168881 -53 90 C-52.20984901 88.40781516 -51.41832164 86.81631332 -50.6262207 85.22509766 C-49.96527153 83.89558578 -49.96527153 83.89558578 -49.29096985 82.53921509 C-46.75722686 77.55558326 -43.85172121 72.80878479 -41 68 C-46.28 67.67 -51.56 67.34 -57 67 C-55.55283882 62.65851645 -54.437886 59.72981 -52.171875 55.953125 C-51.61886719 55.025 -51.06585938 54.096875 -50.49609375 53.140625 C-49.91988281 52.18671875 -49.34367187 51.2328125 -48.75 50.25 C-48.18925781 49.3115625 -47.62851563 48.373125 -47.05078125 47.40625 C-45.92750691 45.52807304 -44.79278665 43.65669211 -43.64648438 41.79248047 C-41.96017542 39.01431052 -41.96017542 39.01431052 -40.55664062 36.05517578 C-39.21068402 33.41106723 -38.01016295 31.18429021 -36 29 C-32.89461148 28.25099167 -30.11923551 28.87364945 -27 29.375 C-23.32861292 29.62722998 -20.39676552 29.48368413 -17 28 C-11.25074805 22.00183506 -7.76434176 14.12103748 -4.32421875 6.64135742 C-3.08819122 4.17591092 -1.72820221 2.14029734 0 0 Z " fill="#00009F" transform="translate(171,58)"/>
</svg>
