<svg xmlns="http://www.w3.org/2000/svg" viewBox="0 0 115.333 114.667">
  <path d="M56.667 0C25.372 0 0 25.372 0 56.667c0 31.295 25.372 56.667 56.667 56.667 31.295 0 56.667-25.372 56.667-56.667C113.333 25.372 87.961 0 56.667 0zm0 107.667c-5.2 0-9.42-5.268-9.42-11.767h18.84c0 6.499-4.22 11.767-9.42 11.767zm15.573-15.7H41.093V84.3h31.147v7.667zm-.108-11.567H41.2c-.173-.207-.35-.41-.527-.617-4.91-5.73-6.11-8.693-7.16-11.36-.04-.1 5.96 1.253 10.2 2.17 0 0 2.18.49 5.333.953v-.003c-3.847-2.823-6.327-7.253-6.327-7.253.767.18 1.527.34 2.267.49 3.587.727 7.393 1.073 11.367.37 4.153-.737 8.46-2.647 13.093-6.293 1.347 2.7 2.267 5.587 2.7 6.713.273.713-.267 1.67-.267 1.67 1.84-.46 4.567-1.417 4.567-1.417s-1.637 4.07-5.507 8.327c-.247.273-.5.543-.753.81h.003v7.44z" fill="#e6522c"/>
  <path d="M56.093 47.467c7.227 0 13.087-3.427 13.087-7.653 0-4.227-5.86-7.653-13.087-7.653s-13.087 3.427-13.087 7.653c0 4.227 5.86 7.653 13.087 7.653zm0-24.873c8.38 0 15.173-3.967 15.173-8.86 0-4.893-6.793-8.86-15.173-8.86-8.38 0-15.173 3.967-15.173 8.86 0 4.893 6.793 8.86 15.173 8.86zm0 48.12c-6.5 0-11.773 2.96-11.773 6.613 0 3.653 5.273 6.613 11.773 6.613 6.5 0 11.773-2.96 11.773-6.613 0-3.653-5.273-6.613-11.773-6.613z" fill="#e6522c"/>
</svg>
