<svg xmlns="http://www.w3.org/2000/svg" viewBox="0 0 72 66" fill="none">
  <path fill="#362D59" d="M29 2.26a4.67 4.67 0 0 1 8 0l5.43 9.39c10.74 1.69 19.13 10.7 20.16 21.66.13 1.43-1 2.69-2.45 2.69h-3.83c-1.21 0-2.21-.91-2.37-2.1a17.7 17.7 0 0 0-14.07-15.06l3.25 5.61c.6 1.05.6 2.34 0 3.39l-9.34 16.18a2.5 2.5 0 0 1-2.16 1.25h-3.69c-1.92 0-3.12-2.08-2.16-3.75l9.34-16.18-2.74-4.74A17.71 17.71 0 0 0 20.4 33.9c-.16 1.19-1.16 2.1-2.37 2.1h-3.83c-1.45 0-2.58-1.26-2.45-2.69 1.03-10.96 9.42-19.97 20.16-21.66L37.74 2.26a4.67 4.67 0 0 0-8 0Z"/>
  <path fill="#362D59" d="M52 56.27H42.5l-3.74-6.48a2.5 2.5 0 0 0-4.32 0L30.71 56.27H20A2.5 2.5 0 0 1 17.83 52.52l5.55-9.62a2.5 2.5 0 0 1 4.33 0l2.18 3.77h2.55l-4.45-7.7-1.4 2.42a2.5 2.5 0 0 1-2.16 1.25h-3.69c-1.92 0-3.12-2.08-2.16-3.75L24 25.49a2.5 2.5 0 0 1 4.33 0l4.45 7.71h6.45l-9.86-17.08a2.5 2.5 0 0 1 0-2.5L33 5.76a2.5 2.5 0 0 1 4.33 0L60.06 45.31a2.5 2.5 0 0 1-2.16 3.75H49.4l-2.18-3.77h-2.55l4.45 7.71 1.4-2.42a2.5 2.5 0 0 1 2.16-1.25h3.69c1.92 0 3.12 2.08 2.16 3.75l-5.55 9.62a2.5 2.5 0 0 1-2.17 1.25Z" opacity=".4"/>
</svg>
