<?xml version="1.0" encoding="UTF-8"?>
<svg version="1.1" xmlns="http://www.w3.org/2000/svg" width="280" height="280">
<path d="M0 0 C1.13006459 0.96899204 2.25282365 1.94658577 3.3671875 2.93359375 C4.46369992 3.90235715 5.57942177 4.84970473 6.7109375 5.77734375 C10.62963913 9.00246987 13.93489809 12.47415118 17.21484375 16.34375 C18.95038075 18.32557163 20.76991192 20.15093738 22.6640625 21.98046875 C25.59926917 24.86360967 27.72227649 27.9035933 29.9765625 31.35546875 C31.74244003 33.44895252 33.55477402 35.49117452 35.390625 37.5234375 C37.93284255 40.46013709 38.99851862 41.7275236 38.859375 45.70703125 C37.87420091 49.77850291 36.60773166 51.61926763 33.8515625 54.73046875 C32.63339844 56.14005859 32.63339844 56.14005859 31.390625 57.578125 C30.59398437 58.49464844 29.79734375 59.41117187 28.9765625 60.35546875 C27.71406018 61.94981457 26.46283056 63.55319571 25.2265625 65.16796875 C21.07354991 70.53626382 16.8436375 75.60427649 11.9765625 80.35546875 C11.46351563 80.89042969 10.95046875 81.42539063 10.421875 81.9765625 C5.9452182 86.60794246 1.15974507 90.53962882 -4.0234375 94.35546875 C-4.94640625 95.05671875 -5.869375 95.75796875 -6.8203125 96.48046875 C-28.2463496 112.14214054 -54.00619279 120.80280444 -80.6328125 116.7421875 C-100.36077396 113.102819 -118.85695025 103.28853493 -134.0234375 90.35546875 C-134.6525 89.83726562 -135.2815625 89.3190625 -135.9296875 88.78515625 C-145.50268448 80.71301049 -154.93412589 71.70586371 -162.0234375 61.35546875 C-162.70148438 60.45957031 -163.37953125 59.56367188 -164.078125 58.640625 C-164.80257812 57.68027344 -165.52703125 56.71992188 -166.2734375 55.73046875 C-166.93859375 54.85132813 -167.60375 53.9721875 -168.2890625 53.06640625 C-170.14925643 50.15880583 -171.26675863 47.72449132 -172.0234375 44.35546875 C-169.98326507 36.39879629 -162.31950106 29.4451065 -157.0234375 23.35546875 C-156.41242188 22.63230469 -155.80140625 21.90914062 -155.171875 21.1640625 C-147.7107236 12.41223799 -139.52920745 3.89982576 -130.0234375 -2.64453125 C-129.3634375 -2.64453125 -128.7034375 -2.64453125 -128.0234375 -2.64453125 C-128.0234375 -3.30453125 -128.0234375 -3.96453125 -128.0234375 -4.64453125 C-125.55591802 -6.59592202 -122.74449258 -8.07419262 -120.0234375 -9.64453125 C-119.20230469 -10.12277344 -118.38117188 -10.60101563 -117.53515625 -11.09375 C-78.01650595 -33.39983262 -34.8023476 -28.28530567 0 0 Z M-86.0234375 3.35546875 C-87.0340625 3.61070313 -88.0446875 3.8659375 -89.0859375 4.12890625 C-101.18061308 7.6350755 -111.42861484 15.40766156 -121.0234375 23.35546875 C-121.65894531 23.88011719 -122.29445313 24.40476562 -122.94921875 24.9453125 C-126.4862885 27.92190438 -129.83048522 31.0067627 -133.0234375 34.35546875 C-133.72339844 35.06058594 -134.42335938 35.76570313 -135.14453125 36.4921875 C-136.26021484 37.66201172 -136.26021484 37.66201172 -137.3984375 38.85546875 C-138.10742188 39.58765625 -138.81640625 40.31984375 -139.546875 41.07421875 C-141.2841336 43.24348625 -141.2841336 43.24348625 -140.80273438 45.76855469 C-139.95352364 48.58755123 -139.03531192 49.90127515 -137.03125 52.02734375 C-136.41451416 52.68718262 -135.79777832 53.34702148 -135.16235352 54.02685547 C-134.16546509 55.05576904 -134.16546509 55.05576904 -133.1484375 56.10546875 C-132.46515381 56.81848145 -131.78187012 57.53149414 -131.07788086 58.26611328 C-115.61875302 74.18754646 -94.90911666 89.79709343 -71.91015625 90.65625 C-70.17718759 90.67565688 -68.44397814 90.67924423 -66.7109375 90.66796875 C-65.79449463 90.6623291 -64.87805176 90.65668945 -63.93383789 90.65087891 C-47.93747979 90.36606054 -35.95334634 84.73816912 -22.7734375 76.10546875 C-22.1045752 75.66904053 -21.43571289 75.2326123 -20.74658203 74.78295898 C-19.13329433 73.69609251 -17.57249376 72.53207432 -16.0234375 71.35546875 C-16.0234375 70.69546875 -16.0234375 70.03546875 -16.0234375 69.35546875 C-15.44980469 69.09636719 -14.87617188 68.83726562 -14.28515625 68.5703125 C-5.26632123 63.7259987 3.8237616 53.66122155 7.9765625 44.35546875 C4.33775621 40.32926103 0.66808541 36.33337167 -3.0234375 32.35546875 C-3.83683594 31.47375 -4.65023437 30.59203125 -5.48828125 29.68359375 C-11.55022845 23.34931281 -18.15146095 18.29361253 -25.41162109 13.43798828 C-26.80324941 12.5033503 -28.17514429 11.53945324 -29.54296875 10.5703125 C-46.21616579 -0.53568417 -67.20071939 -1.5641053 -86.0234375 3.35546875 Z " fill="#FB7C33" transform="translate(226.0234375,92.64453125)"/>
<path d="M0 0 C0 0.99 0 1.98 0 3 C-1.40185547 4.14746094 -1.40185547 4.14746094 -3.3671875 5.234375 C-4.08334229 5.64002686 -4.79949707 6.04567871 -5.53735352 6.46362305 C-6.69448853 7.10037964 -6.69448853 7.10037964 -7.875 7.75 C-9.44569923 8.64417536 -11.01471967 9.54130623 -12.58203125 10.44140625 C-13.34467285 10.87855957 -14.10731445 11.31571289 -14.89306641 11.76611328 C-21.47358133 15.61987022 -27.35763988 20.14620525 -33 25.25390625 C-35.1131614 27.0987952 -37.31329551 28.76199463 -39.5625 30.4375 C-43.2423929 33.26818684 -46.2257405 36.28573746 -49.1953125 39.84375 C-51.19172016 42.22906824 -53.27583282 44.51721686 -55.375 46.8125 C-65.08376089 57.24286757 -65.08376089 57.24286757 -73 69 C-72.1961335 76.85444562 -63.74204493 84.51647399 -58.65234375 90.16015625 C-57.03096548 91.9655207 -55.48483642 93.81863913 -53.9375 95.6875 C-52.0531007 97.90355358 -50.14096501 99.80200559 -47.875 101.625 C-45 104 -45 104 -43.09375 106.41796875 C-35.41189067 115.89130646 -22.95427248 123.70024926 -12.32421875 129.68359375 C-11.54312744 130.12396973 -10.76203613 130.5643457 -9.95727539 131.01806641 C-8.4260301 131.86792116 -6.884936 132.70031404 -5.33374023 133.51318359 C-3.2265625 134.67578125 -3.2265625 134.67578125 0 137 C0.4765625 139.79296875 0.4765625 139.79296875 0 142 C-21.68916529 141.62721747 -43.25899668 132.68280429 -60 119 C-60.93199219 118.27941406 -61.86398438 117.55882812 -62.82421875 116.81640625 C-68.18624537 112.59554764 -72.86827282 108.19668338 -77.2890625 103 C-78.70105783 101.34944838 -80.21408798 99.78591202 -81.75 98.25 C-84.04491632 95.95508368 -85.98466843 93.54253334 -88 91 C-88.97259766 89.83210938 -88.97259766 89.83210938 -89.96484375 88.640625 C-101.50012539 74.66123418 -101.50012539 74.66123418 -101.25 68 C-100.33798924 63.67860322 -97.83571328 60.75170752 -95.03515625 57.43359375 C-92.8307941 54.79766741 -90.85907187 52.05480748 -88.875 49.25 C-86.1455308 45.4819756 -83.42141208 42.17106486 -80 39 C-79.05060547 38.02160156 -79.05060547 38.02160156 -78.08203125 37.0234375 C-69.88381025 28.57854437 -60.97530543 21.2476913 -51 15 C-50.24460938 14.50886719 -49.48921875 14.01773438 -48.7109375 13.51171875 C-33.71481047 4.05976246 -17.80416461 -1.01845857 0 0 Z " fill="#FB7D34" transform="translate(115,68)"/>
<path d="M0 0 C1.88900007 1.83990157 3.76432827 3.69395518 5.625 5.5625 C6.59781768 6.49214625 7.57307098 7.41925067 8.55078125 8.34375 C15.21796386 14.75631602 15.21796386 14.75631602 16.6328125 17.55859375 C16.62048503 20.72059092 14.95541176 21.9460216 12.8125 24.1875 C11.97589844 25.06535156 11.13929688 25.94320312 10.27734375 26.84765625 C9.40207031 27.74355469 8.52679688 28.63945312 7.625 29.5625 C6.84253906 30.40683594 6.06007812 31.25117188 5.25390625 32.12109375 C-8.5777613 46.67954843 -25.42016097 55.32038326 -45.375 57.5625 C-48.7840594 57.51199542 -52.03003893 57.21575122 -55.375 56.5625 C-55.375 54.9125 -55.375 53.2625 -55.375 51.5625 C-54.34761719 51.01722656 -53.32023438 50.47195312 -52.26171875 49.91015625 C-43.53730944 45.19534357 -35.81989945 40.1801884 -28.375 33.5625 C-27.28445312 32.634375 -27.28445312 32.634375 -26.171875 31.6875 C-21.68872026 27.85457381 -17.4865754 23.78971346 -13.375 19.5625 C-19.50789643 6.08781891 -37.92414556 -4.44381297 -50.9921875 -10.2890625 C-53.47277882 -11.48462619 -55.4130938 -12.49384409 -57.375 -14.4375 C-57.625 -17.125 -57.625 -17.125 -57.375 -19.4375 C-36.75594116 -22.95319206 -15.0575311 -14.02436498 0 0 Z " fill="#FB7D34" transform="translate(206.375,119.4375)"/>
<path d="M0 0 C3.96857737 2.99668087 6.4815756 5.5697268 8.0625 10.3125 C8.5704081 16.53437421 8.81604356 22.05753901 5.0625 27.3125 C0.62487626 31.7622484 -3.04391491 33.45945477 -9.3125 33.5625 C-13.73365343 33.50432693 -16.51386212 33.33335695 -19.9375 30.3125 C-25.17770215 24.83274575 -26.30936121 20.61270718 -26.2109375 13.171875 C-25.80011549 8.87585058 -24.61586799 5.70031665 -21.9375 2.3125 C-15.71660423 -2.76578226 -7.27625932 -3.83372803 0 0 Z " fill="#35545D" transform="translate(146.9375,122.6875)"/>
<path d="M0 0 C4.30427963 1.43475988 5.69941376 4.72370929 8.0625 8.375 C12.84925631 15.56312838 18.04409138 21.73708578 24 28 C25.21547143 29.41054709 26.42445387 30.82672811 27.625 32.25 C42.87742266 49.65114734 68.61908104 66.42930203 92.12988281 68.24121094 C105.29145704 68.84820419 118.27191227 68.65932522 131 65 C131.99 64.74476563 132.98 64.48953125 134 64.2265625 C163.36706244 55.71323855 187.83424209 30.21522939 204.71142578 5.84082031 C205.50395752 4.70725098 205.50395752 4.70725098 206.3125 3.55078125 C206.78300781 2.86669189 207.25351562 2.18260254 207.73828125 1.4777832 C208.15464844 0.99011475 208.57101562 0.50244629 209 0 C209.66 0 210.32 0 211 0 C210.49398271 4.5378325 208.82729687 6.82733718 205.875 10.25 C202.92906666 13.7243309 200.02515927 17.1999028 197.25 20.8125 C193.09698741 26.18079507 188.867075 31.24880774 184 36 C183.48695313 36.53496094 182.97390625 37.06992188 182.4453125 37.62109375 C177.9686557 42.25247371 173.18318257 46.18416007 168 50 C167.07703125 50.70125 166.1540625 51.4025 165.203125 52.125 C143.7770879 67.78667179 118.01724471 76.44733569 91.390625 72.38671875 C71.66266354 68.74735025 53.16648725 58.93306618 38 46 C37.3709375 45.48179687 36.741875 44.96359375 36.09375 44.4296875 C26.52075302 36.35754174 17.08931161 27.35039496 10 17 C9.32195313 16.10410156 8.64390625 15.20820313 7.9453125 14.28515625 C7.22085938 13.32480469 6.49640625 12.36445313 5.75 11.375 C5.08484375 10.49585938 4.4196875 9.61671875 3.734375 8.7109375 C1.91754691 5.87112062 0.92804805 3.22922841 0 0 Z " fill="#FEF3EB" transform="translate(54,137)"/>
<path d="M0 0 C0.83917969 0.76183594 1.67835938 1.52367188 2.54296875 2.30859375 C3.54633117 3.19332547 4.55026237 4.07741245 5.5546875 4.9609375 C11.91351438 10.61322806 18.4760101 16.45028608 23.54296875 23.30859375 C23.54296875 24.29859375 23.54296875 25.28859375 23.54296875 26.30859375 C19.91841521 24.81326225 17.95360059 22.76527147 15.41796875 19.80859375 C7.06902561 10.36003371 -1.38021761 2.39014544 -11.84521484 -4.60888672 C-13.23684316 -5.5435247 -14.60873804 -6.50742176 -15.9765625 -7.4765625 C-28.82380791 -16.03409735 -46.8017094 -19.47645554 -61.92578125 -17.16015625 C-65.46989184 -16.43878861 -68.95798162 -15.60593058 -72.45703125 -14.69140625 C-73.46765625 -14.43617187 -74.47828125 -14.1809375 -75.51953125 -13.91796875 C-87.62440926 -10.40884188 -97.83094203 -2.60707466 -107.45703125 5.30859375 C-108.30007812 5.98535156 -108.30007812 5.98535156 -109.16015625 6.67578125 C-115.4739503 11.8097249 -120.40940505 17.66857151 -125.37109375 24.078125 C-126.05945313 24.81417969 -126.7478125 25.55023438 -127.45703125 26.30859375 C-128.44703125 26.30859375 -129.43703125 26.30859375 -130.45703125 26.30859375 C-128.25465354 21.53851502 -125.01688743 18.12922304 -121.45703125 14.30859375 C-120.78534912 13.58591309 -120.78534912 13.58591309 -120.10009766 12.84863281 C-86.15941511 -23.31711279 -39.68644611 -34.51797871 0 0 Z " fill="#FEF2EB" transform="translate(212.45703125,111.69140625)"/>
<path d="M0 0 C0.66 0 1.32 0 2 0 C3.08955258 1.72940064 4.09480268 3.51207969 5.0625 5.3125 C8.75791638 11.82347171 13.0840823 17.3735463 18 23 C18.75667969 23.86753906 19.51335938 24.73507813 20.29296875 25.62890625 C22.49857135 28.11542897 24.739485 30.56339416 27 33 C27.5878125 33.65355469 28.175625 34.30710938 28.78125 34.98046875 C38.2092535 45.0080602 49.71763859 52.64801777 61.8125 59.0625 C62.65901123 59.51536377 63.50552246 59.96822754 64.37768555 60.43481445 C73.43830572 65.07103246 82.59586601 67.26236282 92.6875 68.1875 C93.49638672 68.26935547 94.30527344 68.35121094 95.13867188 68.43554688 C97.09163077 68.63199836 99.04571083 68.81725569 101 69 C101 70.32 101 71.64 101 73 C79.31083471 72.62721747 57.74100332 63.68280429 41 50 C40.06800781 49.27941406 39.13601562 48.55882812 38.17578125 47.81640625 C32.81375463 43.59554764 28.13172718 39.19668338 23.7109375 34 C22.29894217 32.34944838 20.78591202 30.78591202 19.25 29.25 C16.95508368 26.95508368 15.01533157 24.54253334 13 22 C12.35160156 21.22140625 11.70320313 20.4428125 11.03515625 19.640625 C0 6.26732673 0 6.26732673 0 0 Z " fill="#FEF5EE" transform="translate(14,137)"/>
<path d="M0 0 C0 0.66 0 1.32 0 2 C-2.59799824 3.64861373 -5.19479404 5.18350558 -7.875 6.6875 C-16.88162866 11.86703384 -25.27717502 17.26288122 -33 24.25390625 C-35.1131614 26.0987952 -37.31329551 27.76199463 -39.5625 29.4375 C-43.2423929 32.26818684 -46.2257405 35.28573746 -49.1953125 38.84375 C-51.19172016 41.22906824 -53.27583282 43.51721686 -55.375 45.8125 C-61.23863264 52.31652938 -66.97178854 58.96464696 -71.9375 66.1875 C-72.618125 67.115625 -73.29875 68.04375 -74 69 C-74.66 69 -75.32 69 -76 69 C-66.38748502 40.8342975 -30.70821252 14.59231102 -5.64453125 1.1796875 C-3 0 -3 0 0 0 Z " fill="#FEF1EA" transform="translate(115,69)"/>
<path d="M0 0 C0.99 0.33 1.98 0.66 3 1 C-14.50279823 20.8703265 -31.95417509 35.96114327 -59 39 C-62.4090594 38.94949542 -65.65503893 38.65325122 -69 38 C-69 37.01 -69 36.02 -69 35 C-67.81664062 34.96261719 -66.63328125 34.92523438 -65.4140625 34.88671875 C-46.6335603 34.16867583 -30.30916038 28.64207373 -16 16 C-15.24332031 15.36191406 -14.48664063 14.72382813 -13.70703125 14.06640625 C-8.67225489 9.74004063 -4.22916026 5.11306835 0 0 Z " fill="#FEF3EC" transform="translate(220,138)"/>
<path d="M0 0 C17.0564549 5.29687827 34.00834914 17.834789 46 31 C46.8203125 33.31640625 46.8203125 33.31640625 47 35 C43.67859988 33.57340744 41.78272657 31.85779758 39.375 29.1875 C30.05668048 19.66895213 18.53965521 11.58611359 6.3828125 6.1484375 C3.97079811 4.98592565 2.01074461 3.7675848 0 2 C0 1.34 0 0.68 0 0 Z " fill="#FEF4EE" transform="translate(149,103)"/>
<path d="M0 0 C0.4125 0.556875 0.825 1.11375 1.25 1.6875 C1.8275 2.450625 2.405 3.21375 3 4 C3.639375 4.86625 4.27875 5.7325 4.9375 6.625 C7.50906823 9.58619978 9.45972284 10.80428822 13.3671875 11.30078125 C18.62878382 11.32536815 22.63133653 11.2510984 27 8 C28.45816669 5.94069495 29.72212892 3.86406149 30.921875 1.64453125 C31.27765625 1.10183594 31.6334375 0.55914062 32 0 C32.66 0 33.32 0 34 0 C33.75001963 5.12459764 31.97592917 7.73338803 28.765625 11.484375 C24.22061213 15.38584622 19.31001442 15.37653518 13.5859375 15.24609375 C8.65002227 14.77636164 6.62398289 12.63816432 3.25 9.1875 C0.94156312 5.91721441 0.28150998 3.94113971 0 0 Z " fill="#EAEDEE" transform="translate(121,141)"/>
<path d="M0 0 C0.66 0.33 1.32 0.66 2 1 C-2.24860632 6.2042199 -6.36629298 10.32084439 -12 14 C-12.66 13.67 -13.32 13.34 -14 13 C-14 12.01 -14 11.02 -14 10 C-11.69921875 8.28125 -11.69921875 8.28125 -8.6875 6.5 C-3.98412045 3.69908868 -3.98412045 3.69908868 0 0 Z " fill="#FEF0E8" transform="translate(205,153)"/>
<path d="M0 0 C0.66 0 1.32 0 2 0 C1.56643364 4.91375208 -0.60622458 7.52729957 -4 11 C-6.16796875 11.671875 -6.16796875 11.671875 -8 12 C-4 6 -4 6 0 0 Z " fill="#FEE9DD" transform="translate(263,137)"/>
<path d="M0 0 C0 0.66 0 1.32 0 2 C-2.1171875 3.54296875 -2.1171875 3.54296875 -4.875 5.1875 C-5.77992187 5.73792969 -6.68484375 6.28835937 -7.6171875 6.85546875 C-8.40351562 7.23316406 -9.18984375 7.61085938 -10 8 C-10.66 7.67 -11.32 7.34 -12 7 C-5.36842105 0 -5.36842105 0 0 0 Z " fill="#FEF9F6" transform="translate(115,69)"/>
<path d="M0 0 C0.66 0 1.32 0 2 0 C3.54296875 2.1171875 3.54296875 2.1171875 5.1875 4.875 C5.73792969 5.77992188 6.28835937 6.68484375 6.85546875 7.6171875 C7.23316406 8.40351563 7.61085938 9.18984375 8 10 C7.67 10.66 7.34 11.32 7 12 C1.33064516 6.62903226 1.33064516 6.62903226 0 3 C0 2.01 0 1.02 0 0 Z " fill="#FEE7DA" transform="translate(14,137)"/>
<path d="M0 0 C0 0.66 0 1.32 0 2 C-1.28650706 2.69710731 -2.57940665 3.38242876 -3.875 4.0625 C-4.95394531 4.63677734 -4.95394531 4.63677734 -6.0546875 5.22265625 C-6.69664062 5.47917969 -7.33859375 5.73570312 -8 6 C-8.66 5.67 -9.32 5.34 -10 5 C-5.16129032 0 -5.16129032 0 0 0 Z " fill="#FEF9F4" transform="translate(207,195)"/>
<path d="M0 0 C0.66 0.33 1.32 0.66 2 1 C0.02 3.31 -1.96 5.62 -4 8 C-4.66 7.67 -5.32 7.34 -6 7 C-4.60667426 3.63279613 -3.0210714 2.0140476 0 0 Z " fill="#FEEDE2" transform="translate(231,175)"/>
<path d="M0 0 C0.66 0.33 1.32 0.66 2 1 C0.35 2.98 -1.3 4.96 -3 7 C-3.66 6.67 -4.32 6.34 -5 6 C-5 5.01 -5 4.02 -5 3 C-2.625 1.25 -2.625 1.25 0 0 Z " fill="#FEE7D8" transform="translate(196,160)"/>
<path d="M0 0 C0.66 0.33 1.32 0.66 2 1 C0.35 2.98 -1.3 4.96 -3 7 C-3.99 6.67 -4.98 6.34 -6 6 C-4.02 4.02 -2.04 2.04 0 0 Z " fill="#FEE4D7" transform="translate(74,95)"/>
</svg>
