<?xml version="1.0" encoding="UTF-8"?>
<svg xmlns="http://www.w3.org/2000/svg" version="1.1" viewBox="0 0 300 89">
  <g>
    <g id="black">
      <path d="M32,53.9c0,2-.4,3.8-1.3,5.5-.8,1.7-2,3.1-3.5,4.3-1.5,1.2-3.3,2.1-5.4,2.8-2.1.7-4.4,1-6.8,1s-5.6-.4-8-1.2c-2.4-.8-4.7-2.1-7.1-4l3.9-6.3c1.9,1.6,3.6,2.7,5.1,3.4,1.5.7,3,1.1,4.6,1.1s3.5-.5,4.7-1.5c1.2-1,1.8-2.3,1.8-4s-.1-1.4-.3-2c-.2-.6-.6-1.3-1.2-1.9-.6-.7-1.4-1.4-2.3-2.2-1-.8-2.3-1.8-3.8-2.9-1.2-.8-2.4-1.7-3.5-2.6-1.1-.9-2.2-1.9-3.1-2.9-.9-1-1.7-2.2-2.3-3.4-.6-1.3-.9-2.7-.9-4.3s.4-3.6,1.2-5.1c.8-1.5,1.8-2.8,3.2-3.9,1.4-1.1,3-1.9,4.9-2.5,1.9-.6,4-.9,6.2-.9s4.6.3,6.8.9c2.2.6,4.2,1.5,6.1,2.7l-3.5,5.7c-2.4-1.7-4.9-2.5-7.6-2.5s-3,.4-4,1.3c-1.1.8-1.6,1.9-1.6,3.2s.5,2.3,1.4,3.3c.9,1,2.5,2.3,4.8,4.1,2.3,1.7,4.2,3.2,5.7,4.4,1.5,1.3,2.7,2.5,3.6,3.6.9,1.1,1.5,2.3,1.8,3.4.3,1.1.5,2.4.5,3.8M72,43.2c0,1.8-.2,3.6-.5,5.7-.4,2-1,3.9-1.9,5.6-.9,1.7-2,3.1-3.5,4.3-1.4,1.1-3.2,1.7-5.4,1.7-3.6,0-6.5-1.4-8.6-4.3-2.1-2.9-3.1-6.9-3.1-12s1.1-9.3,3.2-12.4c2.1-3,5-4.6,8.6-4.6s6.2,1.4,8.2,4.3c2,2.9,3,6.8,3,11.7M84.6,42.8c0-3.4-.5-6.4-1.4-9.2-1-2.8-2.3-5.2-4.1-7.1-1.8-2-3.9-3.5-6.3-4.7-2.4-1.1-5.1-1.7-8.1-1.7s-6.1.6-8.6,1.9c-2.5,1.2-4.8,3.2-6.9,5.8v-6.6h-11.7v67.8h11.6v-28.7c1.1,1.3,2.3,2.4,3.3,3.4,1.1.9,2.1,1.6,3.2,2.2,1.1.6,2.2,1,3.4,1.2,1.2.2,2.5.4,3.9.4,3.1,0,6-.6,8.6-1.9,2.7-1.2,5-3,6.9-5.2,1.9-2.2,3.4-4.8,4.5-7.8,1.1-3,1.6-6.3,1.6-9.8M89.8,66.4h11.9V0h-11.9s0,66.4,0,66.4ZM152.7,66.4V21.1h-11.9v24.4c0,2.2,0,3.8-.3,5-.2,1.2-.5,2.3-.9,3.2-1.7,3.7-4.8,5.6-9.3,5.6s-6-1.3-7.4-3.8c-.5-1-.9-2.1-1.1-3.3-.2-1.2-.3-3-.3-5.3v-25.9h-11.9v25.7c0,1.8,0,3.2,0,4.4,0,1.2.1,2.3.2,3.2.1.9.3,1.8.4,2.5.1.7.4,1.4.7,2.1,1.1,2.8,2.9,4.9,5.3,6.3,2.4,1.4,5.5,2.1,9,2.1s6-.6,8.4-1.7c2.4-1.1,4.8-2.9,7.1-5.5v6.1s12,0,12,0ZM204.1,66.4v-25.7c0-1.7,0-3.2,0-4.5,0-1.2-.1-2.3-.2-3.2-.1-.9-.3-1.7-.5-2.4-.2-.7-.4-1.4-.6-2-1.1-2.7-2.9-4.8-5.3-6.3-2.4-1.5-5.5-2.2-9-2.2s-6,.6-8.4,1.7c-2.4,1.1-4.8,2.9-7.1,5.5v-6.1h-12.1v45.2h12v-24.4c0-2.1,0-3.7.2-4.9.2-1.2.4-2.3.9-3.3.8-1.8,2-3.2,3.6-4.1,1.6-.9,3.5-1.4,5.8-1.4,3.5,0,6,1.3,7.4,3.8.5,1,.9,2.1,1.1,3.3.2,1.2.3,3,.3,5.2v25.8s11.9,0,11.9,0ZM253.5,63.4l-18.2-22.6,15.4-16.5-9-3.9-16,18.5h-1.3V0h-12v66.4h12v-24.1l18,25,11.1-3.9ZM300,47.2v-7.4l-36.2-18.1v8.1l28,13.6-28,13.8v7.9l36.2-18Z"/>
    </g>
  </g>
</svg>
